Urbanist-Light.ufo
<glyph name="exclam" format="2">
  <advance width="342.0"/>
  <unicode hex="0021"/>
  <outline>
    <contour>
      <point x="98.0" y="420.0" type="line"/>
      <point x="205.33333333333334" y="420.0" type="line"/>
      <point x="205.33333333333334" y="1400.0" type="line"/>
      <point x="98.0" y="1400.0" type="line"/>
    </contour>
    <contour>
      <point x="152.0" y="-26.0" type="curve" smooth="yes"/>
      <point x="190.66666666666666" y="-26.0"/>
      <point x="222.0" y="5.333333333333334"/>
      <point x="222.0" y="46.66666666666667" type="curve" smooth="yes"/>
      <point x="222.0" y="85.33333333333334"/>
      <point x="190.66666666666666" y="116.66666666666667"/>
      <point x="152.0" y="116.66666666666667" type="curve" smooth="yes"/>
      <point x="111.33333333333333" y="116.66666666666667"/>
      <point x="80.0" y="85.33333333333334"/>
      <point x="80.0" y="46.66666666666667" type="curve" smooth="yes"/>
      <point x="80.0" y="5.333333333333334"/>
      <point x="111.33333333333333" y="-26.0"/>
    </contour>
  </outline>
</glyph>
<glyph name="numbersign" format="2">
  <advance width="1499.5"/>
  <unicode hex="0023"/>
  <outline>
    <contour>
      <point x="1388.0" y="938.6666666666666" type="line"/>
      <point x="1419.3333333333333" y="1054.6666666666667" type="line"/>
      <point x="1211.3333333333333" y="1054.6666666666667" type="line"/>
      <point x="1303.3333333333333" y="1400.0" type="line"/>
      <point x="1183.3333333333333" y="1400.0" type="line"/>
      <point x="1091.3333333333333" y="1054.6666666666667" type="line"/>
      <point x="599.3333333333334" y="1054.6666666666667" type="line"/>
      <point x="691.3333333333334" y="1400.0" type="line"/>
      <point x="571.3333333333334" y="1400.0" type="line"/>
      <point x="479.3333333333333" y="1054.6666666666667" type="line"/>
      <point x="269.3333333333333" y="1054.6666666666667" type="line"/>
      <point x="238.0" y="938.6666666666666" type="line"/>
      <point x="448.0" y="938.6666666666666" type="line"/>
      <point x="319.3333333333333" y="463.3333333333333" type="line"/>
      <point x="111.33333333333333" y="463.3333333333333" type="line"/>
      <point x="80.0" y="347.3333333333333" type="line"/>
      <point x="289.3333333333333" y="347.3333333333333" type="line"/>
      <point x="196.0" y="0.0" type="line"/>
      <point x="316.0" y="0.0" type="line"/>
      <point x="409.3333333333333" y="347.3333333333333" type="line"/>
      <point x="902.0" y="347.3333333333333" type="line"/>
      <point x="808.0" y="0.0" type="line"/>
      <point x="928.0" y="0.0" type="line"/>
      <point x="1022.0" y="347.3333333333333" type="line"/>
      <point x="1230.0" y="347.3333333333333" type="line"/>
      <point x="1261.3333333333333" y="463.3333333333333" type="line"/>
      <point x="1051.3333333333333" y="463.3333333333333" type="line"/>
      <point x="1180.0" y="938.6666666666666" type="line"/>
    </contour>
    <contour>
      <point x="931.3333333333334" y="463.3333333333333" type="line"/>
      <point x="439.3333333333333" y="463.3333333333333" type="line"/>
      <point x="568.0" y="938.6666666666666" type="line"/>
      <point x="1060.0" y="938.6666666666666" type="line"/>
    </contour>
  </outline>
</glyph>
<glyph name="dollar" format="2">
  <advance width="1174.5"/>
  <unicode hex="0024"/>
  <outline>
    <contour>
      <point x="586.6666666666666" y="1299.3333333333333" type="curve"/>
      <point x="755.3333333333334" y="1299.3333333333333"/>
      <point x="933.3333333333334" y="1223.3333333333333"/>
      <point x="980.6666666666666" y="1090.6666666666667" type="curve"/>
      <point x="1094.6666666666667" y="1131.3333333333333" type="line"/>
      <point x="1030.0" y="1302.6666666666667"/>
      <point x="833.3333333333334" y="1404.0"/>
      <point x="635.3333333333334" y="1417.3333333333333" type="curve"/>
      <point x="635.3333333333334" y="1624.0" type="line"/>
      <point x="540.6666666666666" y="1624.0" type="line"/>
      <point x="540.6666666666666" y="1417.3333333333333" type="line"/>
      <point x="296.0" y="1400.6666666666667"/>
      <point x="87.33333333333333" y="1251.3333333333333"/>
      <point x="87.33333333333333" y="1028.6666666666667" type="curve"/>
      <point x="87.33333333333333" y="771.3333333333334"/>
      <point x="302.0" y="687.3333333333334"/>
      <point x="586.6666666666666" y="637.3333333333334" type="curve"/>
      <point x="776.6666666666666" y="603.3333333333334"/>
      <point x="967.3333333333334" y="533.3333333333334"/>
      <point x="967.3333333333334" y="365.3333333333333" type="curve"/>
      <point x="967.3333333333334" y="201.33333333333334"/>
      <point x="786.0" y="94.0"/>
      <point x="586.6666666666666" y="94.0" type="curve"/>
      <point x="417.3333333333333" y="94.0"/>
      <point x="239.33333333333334" y="170.66666666666666"/>
      <point x="192.66666666666666" y="303.3333333333333" type="curve"/>
      <point x="80.0" y="261.3333333333333" type="line"/>
      <point x="139.33333333333334" y="94.66666666666667"/>
      <point x="333.3333333333333" y="-11.333333333333332"/>
      <point x="540.6666666666666" y="-24.0" type="curve"/>
      <point x="540.6666666666666" y="-224.0" type="line"/>
      <point x="635.3333333333334" y="-224.0" type="line"/>
      <point x="635.3333333333334" y="-24.0" type="line"/>
      <point x="880.0" y="-6.0"/>
      <point x="1087.3333333333333" y="141.33333333333334"/>
      <point x="1087.3333333333333" y="365.3333333333333" type="curve"/>
      <point x="1087.3333333333333" y="599.3333333333334"/>
      <point x="852.0" y="713.3333333333334"/>
      <point x="586.6666666666666" y="760.0" type="curve"/>
      <point x="370.6666666666667" y="799.3333333333334"/>
      <point x="207.33333333333334" y="839.3333333333334"/>
      <point x="207.33333333333334" y="1028.6666666666667" type="curve"/>
      <point x="207.33333333333334" y="1190.6666666666667"/>
      <point x="386.6666666666667" y="1300.0"/>
    </contour>
  </outline>
</glyph>
<glyph name="percent" format="2">
  <advance width="1238.5"/>
  <unicode hex="0025"/>
  <outline>
    <contour>
      <point x="145.33333333333334" y="0.0" type="line"/>
      <point x="284.0" y="0.0" type="line"/>
      <point x="1092.0" y="1400.0" type="line"/>
      <point x="953.3333333333334" y="1400.0" type="line"/>
    </contour>
    <contour>
      <point x="307.3333333333333" y="865.3333333333334" type="curve" smooth="yes"/>
      <point x="431.3333333333333" y="865.3333333333334"/>
      <point x="534.6666666666666" y="965.3333333333334"/>
      <point x="534.6666666666666" y="1092.0" type="curve" smooth="yes"/>
      <point x="534.6666666666666" y="1218.0"/>
      <point x="432.6666666666667" y="1320.6666666666667"/>
      <point x="307.3333333333333" y="1320.6666666666667" type="curve" smooth="yes"/>
      <point x="183.33333333333334" y="1320.6666666666667"/>
      <point x="80.0" y="1219.3333333333333"/>
      <point x="80.0" y="1092.0" type="curve" smooth="yes"/>
      <point x="80.0" y="966.0"/>
      <point x="182.66666666666666" y="865.3333333333334"/>
    </contour>
    <contour>
      <point x="307.3333333333333" y="960.0" type="curve" smooth="yes"/>
      <point x="233.33333333333334" y="960.0"/>
      <point x="175.33333333333334" y="1019.3333333333334"/>
      <point x="175.33333333333334" y="1092.0" type="curve" smooth="yes"/>
      <point x="175.33333333333334" y="1166.0"/>
      <point x="233.33333333333334" y="1225.3333333333333"/>
      <point x="307.3333333333333" y="1225.3333333333333" type="curve" smooth="yes"/>
      <point x="381.3333333333333" y="1225.3333333333333"/>
      <point x="439.3333333333333" y="1166.0"/>
      <point x="439.3333333333333" y="1092.0" type="curve" smooth="yes"/>
      <point x="439.3333333333333" y="1019.3333333333334"/>
      <point x="381.3333333333333" y="960.0"/>
    </contour>
    <contour>
      <point x="931.3333333333334" y="79.33333333333333" type="curve" smooth="yes"/>
      <point x="1056.6666666666667" y="79.33333333333333"/>
      <point x="1158.6666666666667" y="182.66666666666666"/>
      <point x="1158.6666666666667" y="307.3333333333333" type="curve" smooth="yes"/>
      <point x="1158.6666666666667" y="431.3333333333333"/>
      <point x="1058.6666666666667" y="535.3333333333334"/>
      <point x="931.3333333333334" y="535.3333333333334" type="curve" smooth="yes"/>
      <point x="807.3333333333334" y="535.3333333333334"/>
      <point x="702.6666666666666" y="434.6666666666667"/>
      <point x="702.6666666666666" y="307.3333333333333" type="curve" smooth="yes"/>
      <point x="702.6666666666666" y="184.66666666666666"/>
      <point x="805.3333333333334" y="79.33333333333333"/>
    </contour>
    <contour>
      <point x="931.3333333333334" y="174.0" type="curve" smooth="yes"/>
      <point x="857.3333333333334" y="174.0"/>
      <point x="797.3333333333334" y="234.0"/>
      <point x="797.3333333333334" y="307.3333333333333" type="curve" smooth="yes"/>
      <point x="797.3333333333334" y="380.0"/>
      <point x="857.3333333333334" y="440.0"/>
      <point x="931.3333333333334" y="440.0" type="curve" smooth="yes"/>
      <point x="1003.3333333333334" y="440.0"/>
      <point x="1063.3333333333333" y="380.0"/>
      <point x="1063.3333333333333" y="307.3333333333333" type="curve" smooth="yes"/>
      <point x="1063.3333333333333" y="234.0"/>
      <point x="1003.3333333333334" y="174.0"/>
    </contour>
  </outline>
</glyph>
<glyph name="ampersand" format="2">
  <advance width="1414.0"/>
  <unicode hex="0026"/>
  <outline>
    <contour>
      <point x="480.6666666666667" y="-26.0" type="curve" smooth="yes"/>
      <point x="656.6666666666666" y="-26.0"/>
      <point x="701.3333333333334" y="27.333333333333332"/>
      <point x="961.3333333333334" y="287.3333333333333" type="curve"/>
      <point x="1249.3333333333333" y="0.0" type="line"/>
      <point x="1334.0" y="84.66666666666667" type="line"/>
      <point x="1044.0" y="373.3333333333333" type="line"/>
      <point x="1175.3333333333333" y="504.6666666666667" type="line"/>
      <point x="1175.3333333333333" y="673.3333333333334" type="line"/>
      <point x="961.3333333333334" y="460.6666666666667" type="line"/>
      <point x="566.6666666666666" y="855.3333333333334" type="line"/>
      <point x="715.3333333333334" y="1003.3333333333334"/>
      <point x="755.3333333333334" y="1041.3333333333333"/>
      <point x="755.3333333333334" y="1156.6666666666667" type="curve" smooth="yes"/>
      <point x="755.3333333333334" y="1309.3333333333333"/>
      <point x="631.3333333333334" y="1431.3333333333333"/>
      <point x="480.6666666666667" y="1431.3333333333333" type="curve" smooth="yes"/>
      <point x="333.3333333333333" y="1431.3333333333333"/>
      <point x="208.0" y="1309.3333333333333"/>
      <point x="208.0" y="1156.6666666666667" type="curve" smooth="yes"/>
      <point x="208.0" y="1044.6666666666667"/>
      <point x="242.66666666666666" y="1010.0"/>
      <point x="396.0" y="855.3333333333334" type="curve"/>
      <point x="140.0" y="599.3333333333334"/>
      <point x="80.0" y="550.0"/>
      <point x="80.0" y="376.0" type="curve" smooth="yes"/>
      <point x="80.0" y="168.0"/>
      <point x="244.0" y="-26.0"/>
    </contour>
    <contour>
      <point x="480.6666666666667" y="94.0" type="curve" smooth="yes"/>
      <point x="326.0" y="94.0"/>
      <point x="201.33333333333334" y="216.66666666666666"/>
      <point x="201.33333333333334" y="373.3333333333333" type="curve" smooth="yes"/>
      <point x="201.33333333333334" y="509.3333333333333"/>
      <point x="244.0" y="532.6666666666666"/>
      <point x="480.6666666666667" y="770.6666666666666" type="curve"/>
      <point x="876.6666666666666" y="374.6666666666667" type="line"/>
      <point x="647.3333333333334" y="142.66666666666666"/>
      <point x="620.0" y="94.0"/>
    </contour>
    <contour>
      <point x="480.6666666666667" y="928.0" type="curve"/>
      <point x="350.6666666666667" y="1059.3333333333333"/>
      <point x="318.0" y="1077.3333333333333"/>
      <point x="318.0" y="1158.0" type="curve" smooth="yes"/>
      <point x="318.0" y="1244.6666666666667"/>
      <point x="388.0" y="1322.0"/>
      <point x="480.6666666666667" y="1322.0" type="curve" smooth="yes"/>
      <point x="568.6666666666666" y="1322.0"/>
      <point x="644.6666666666666" y="1251.3333333333333"/>
      <point x="644.6666666666666" y="1158.0" type="curve" smooth="yes"/>
      <point x="644.6666666666666" y="1078.6666666666667"/>
      <point x="617.3333333333334" y="1062.6666666666667"/>
    </contour>
  </outline>
</glyph>
<glyph name="quotesingle" format="2">
  <advance width="245.0"/>
  <unicode hex="0027"/>
  <outline>
    <contour>
      <point x="75.33333333333333" y="878.0" type="line"/>
      <point x="170.0" y="878.0" type="line"/>
      <point x="170.0" y="1400.0" type="line"/>
      <point x="75.33333333333333" y="1400.0" type="line"/>
    </contour>
  </outline>
</glyph>
<glyph name="parenleft" format="2">
  <advance width="620.5"/>
  <unicode hex="0028"/>
  <outline>
    <contour>
      <point x="400.6666666666667" y="-112.0" type="curve"/>
      <point x="520.6666666666666" y="-112.0" type="line"/>
      <point x="348.0" y="74.66666666666667"/>
      <point x="249.33333333333334" y="329.3333333333333"/>
      <point x="240.0" y="644.0" type="curve" smooth="yes"/>
      <point x="249.33333333333334" y="936.0"/>
      <point x="346.0" y="1225.3333333333333"/>
      <point x="520.6666666666666" y="1400.0" type="curve"/>
      <point x="400.6666666666667" y="1400.0" type="line"/>
      <point x="212.66666666666666" y="1254.6666666666667"/>
      <point x="120.0" y="917.3333333333334"/>
      <point x="120.0" y="644.0" type="curve" smooth="yes"/>
      <point x="120.0" y="354.6666666666667"/>
      <point x="199.33333333333334" y="74.0"/>
    </contour>
  </outline>
</glyph>
<glyph name="parenright" format="2">
  <advance width="620.5"/>
  <unicode hex="0029"/>
  <outline>
    <contour>
      <point x="100.0" y="-112.0" type="curve"/>
      <point x="220.0" y="-112.0" type="line"/>
      <point x="421.3333333333333" y="74.0"/>
      <point x="500.6666666666667" y="354.6666666666667"/>
      <point x="500.6666666666667" y="644.0" type="curve" smooth="yes"/>
      <point x="500.6666666666667" y="917.3333333333334"/>
      <point x="408.0" y="1254.6666666666667"/>
      <point x="220.0" y="1400.0" type="curve"/>
      <point x="100.0" y="1400.0" type="line"/>
      <point x="274.6666666666667" y="1225.3333333333333"/>
      <point x="371.3333333333333" y="936.0"/>
      <point x="380.6666666666667" y="644.0" type="curve" smooth="yes"/>
      <point x="371.3333333333333" y="329.3333333333333"/>
      <point x="272.6666666666667" y="74.66666666666667"/>
    </contour>
  </outline>
</glyph>
<glyph name="asterisk" format="2">
  <advance width="701.0"/>
  <unicode hex="002A"/>
  <outline>
    <contour>
      <point x="205.33333333333334" y="856.0" type="line"/>
      <point x="335.3333333333333" y="1034.6666666666667" type="line"/>
      <point x="463.3333333333333" y="856.0" type="line"/>
      <point x="541.3333333333334" y="912.6666666666666" type="line"/>
      <point x="411.3333333333333" y="1089.3333333333333" type="line"/>
      <point x="621.3333333333334" y="1157.3333333333333" type="line"/>
      <point x="592.0" y="1247.3333333333333" type="line"/>
      <point x="383.3333333333333" y="1180.6666666666667" type="line"/>
      <point x="383.3333333333333" y="1400.0" type="line"/>
      <point x="288.0" y="1400.0" type="line"/>
      <point x="288.0" y="1180.6666666666667" type="line"/>
      <point x="78.66666666666667" y="1247.3333333333333" type="line"/>
      <point x="50.0" y="1157.3333333333333" type="line"/>
      <point x="257.3333333333333" y="1089.3333333333333" type="line"/>
      <point x="129.33333333333334" y="912.6666666666666" type="line"/>
    </contour>
  </outline>
</glyph>
<glyph name="period" format="2">
  <advance width="342.5"/>
  <unicode hex="002E"/>
  <outline>
    <contour>
      <point x="150.66666666666666" y="-26.0" type="curve" smooth="yes"/>
      <point x="190.66666666666666" y="-26.0"/>
      <point x="222.66666666666666" y="5.333333333333334"/>
      <point x="222.66666666666666" y="46.0" type="curve" smooth="yes"/>
      <point x="222.66666666666666" y="84.66666666666667"/>
      <point x="190.66666666666666" y="116.66666666666667"/>
      <point x="150.66666666666666" y="116.66666666666667" type="curve" smooth="yes"/>
      <point x="111.33333333333333" y="116.66666666666667"/>
      <point x="80.0" y="84.66666666666667"/>
      <point x="80.0" y="46.0" type="curve" smooth="yes"/>
      <point x="80.0" y="5.333333333333334"/>
      <point x="111.33333333333333" y="-26.0"/>
    </contour>
  </outline>
</glyph>
<glyph name="slash" format="2">
  <advance width="684.5"/>
  <unicode hex="002F"/>
  <outline>
    <contour>
      <point x="604.6666666666666" y="1400.0" type="line"/>
      <point x="484.6666666666667" y="1400.0" type="line"/>
      <point x="80.0" y="-112.0" type="line"/>
      <point x="200.0" y="-112.0" type="line"/>
    </contour>
  </outline>
</glyph>
<glyph name="zero" format="2">
  <advance width="1188.0"/>
  <unicode hex="0030"/>
  <outline>
    <contour>
      <point x="595.3333333333334" y="-26.0" type="curve" smooth="yes"/>
      <point x="930.0" y="-26.0"/>
      <point x="1128.0" y="300.0"/>
      <point x="1128.0" y="700.0" type="curve" smooth="yes"/>
      <point x="1128.0" y="1101.3333333333333"/>
      <point x="930.0" y="1426.0"/>
      <point x="595.3333333333334" y="1426.0" type="curve" smooth="yes"/>
      <point x="258.6666666666667" y="1426.0"/>
      <point x="60.0" y="1101.3333333333333"/>
      <point x="60.0" y="700.0" type="curve" smooth="yes"/>
      <point x="60.0" y="300.0"/>
      <point x="258.6666666666667" y="-26.0"/>
    </contour>
    <contour>
      <point x="595.3333333333334" y="94.0" type="curve" smooth="yes"/>
      <point x="321.3333333333333" y="94.0"/>
      <point x="175.33333333333334" y="370.0"/>
      <point x="175.33333333333334" y="700.0" type="curve" smooth="yes"/>
      <point x="175.33333333333334" y="1023.3333333333334"/>
      <point x="313.3333333333333" y="1306.0"/>
      <point x="595.3333333333334" y="1306.0" type="curve" smooth="yes"/>
      <point x="863.3333333333334" y="1306.0"/>
      <point x="1013.3333333333334" y="1044.0"/>
      <point x="1013.3333333333334" y="700.0" type="curve" smooth="yes"/>
      <point x="1013.3333333333334" y="372.6666666666667"/>
      <point x="869.3333333333334" y="94.0"/>
    </contour>
  </outline>
</glyph>
<glyph name="one" format="2">
  <advance width="505.0"/>
  <unicode hex="0031"/>
  <outline>
    <contour>
      <point x="225.33333333333334" y="0.0" type="line"/>
      <point x="345.3333333333333" y="0.0" type="line"/>
      <point x="345.3333333333333" y="1400.0" type="line"/>
      <point x="115.33333333333333" y="1400.0" type="line"/>
      <point x="80.0" y="1280.0" type="line"/>
      <point x="225.33333333333334" y="1280.0" type="line"/>
    </contour>
  </outline>
</glyph>
<glyph name="two" format="2">
  <advance width="1079.0"/>
  <unicode hex="0032"/>
  <outline>
    <contour>
      <point x="80.0" y="0.0" type="line"/>
      <point x="959.3333333333334" y="0.0" type="line"/>
      <point x="959.3333333333334" y="120.0" type="line"/>
      <point x="291.3333333333333" y="120.0" type="line"/>
      <point x="565.3333333333334" y="375.3333333333333"/>
      <point x="935.3333333333334" y="764.6666666666666"/>
      <point x="935.3333333333334" y="1004.6666666666666" type="curve" smooth="yes"/>
      <point x="935.3333333333334" y="1237.3333333333333"/>
      <point x="747.3333333333334" y="1426.0"/>
      <point x="517.3333333333334" y="1426.0" type="curve" smooth="yes"/>
      <point x="286.6666666666667" y="1426.0"/>
      <point x="97.33333333333333" y="1238.6666666666667"/>
      <point x="97.33333333333333" y="1004.6666666666666" type="curve"/>
      <point x="217.33333333333334" y="1004.6666666666666" type="line"/>
      <point x="217.33333333333334" y="1169.3333333333333"/>
      <point x="352.0" y="1306.0"/>
      <point x="517.3333333333334" y="1306.0" type="curve" smooth="yes"/>
      <point x="682.0" y="1306.0"/>
      <point x="815.3333333333334" y="1169.3333333333333"/>
      <point x="815.3333333333334" y="1004.6666666666666" type="curve" smooth="yes"/>
      <point x="815.3333333333334" y="779.3333333333334"/>
      <point x="366.6666666666667" y="375.3333333333333"/>
      <point x="80.0" y="106.0" type="curve"/>
    </contour>
  </outline>
</glyph>
<glyph name="three" format="2">
  <advance width="975.0"/>
  <unicode hex="0033"/>
  <outline>
    <contour>
      <point x="487.3333333333333" y="-26.0" type="curve" smooth="yes"/>
      <point x="714.6666666666666" y="-26.0"/>
      <point x="915.3333333333334" y="159.33333333333334"/>
      <point x="915.3333333333334" y="386.6666666666667" type="curve" smooth="yes"/>
      <point x="915.3333333333334" y="548.6666666666666"/>
      <point x="829.3333333333334" y="684.6666666666666"/>
      <point x="667.3333333333334" y="739.3333333333334" type="curve"/>
      <point x="792.0" y="784.6666666666666"/>
      <point x="872.6666666666666" y="905.3333333333334"/>
      <point x="872.6666666666666" y="1048.6666666666667" type="curve" smooth="yes"/>
      <point x="872.6666666666666" y="1257.3333333333333"/>
      <point x="686.0" y="1426.6666666666667"/>
      <point x="479.3333333333333" y="1426.6666666666667" type="curve" smooth="yes"/>
      <point x="269.3333333333333" y="1426.6666666666667"/>
      <point x="79.33333333333333" y="1256.6666666666667"/>
      <point x="79.33333333333333" y="1048.6666666666667" type="curve"/>
      <point x="199.33333333333334" y="1048.6666666666667" type="line"/>
      <point x="199.33333333333334" y="1189.3333333333333"/>
      <point x="337.3333333333333" y="1306.6666666666667"/>
      <point x="480.0" y="1306.6666666666667" type="curve" smooth="yes"/>
      <point x="621.3333333333334" y="1306.6666666666667"/>
      <point x="752.6666666666666" y="1189.3333333333333"/>
      <point x="752.6666666666666" y="1048.6666666666667" type="curve" smooth="yes"/>
      <point x="752.6666666666666" y="876.6666666666666"/>
      <point x="616.0" y="786.0"/>
      <point x="411.3333333333333" y="786.0" type="curve"/>
      <point x="411.3333333333333" y="684.0" type="line"/>
      <point x="633.3333333333334" y="684.0"/>
      <point x="795.3333333333334" y="585.3333333333334"/>
      <point x="795.3333333333334" y="386.6666666666667" type="curve" smooth="yes"/>
      <point x="795.3333333333334" y="225.33333333333334"/>
      <point x="647.3333333333334" y="94.0"/>
      <point x="487.3333333333333" y="94.0" type="curve" smooth="yes"/>
      <point x="296.0" y="94.0"/>
      <point x="180.0" y="225.33333333333334"/>
      <point x="180.0" y="386.6666666666667" type="curve"/>
      <point x="60.0" y="386.6666666666667" type="line"/>
      <point x="60.0" y="159.33333333333334"/>
      <point x="231.33333333333334" y="-26.0"/>
    </contour>
  </outline>
</glyph>
<glyph name="four" format="2">
  <advance width="1078.5"/>
  <unicode hex="0034"/>
  <outline>
    <contour>
      <point x="685.3333333333334" y="0.0" type="line"/>
      <point x="805.3333333333334" y="0.0" type="line"/>
      <point x="805.3333333333334" y="403.3333333333333" type="line"/>
      <point x="958.6666666666666" y="403.3333333333333" type="line"/>
      <point x="958.6666666666666" y="523.3333333333334" type="line"/>
      <point x="805.3333333333334" y="523.3333333333334" type="line"/>
      <point x="805.3333333333334" y="1400.0" type="line"/>
      <point x="653.3333333333334" y="1400.0" type="line"/>
      <point x="80.0" y="526.0" type="line"/>
      <point x="80.0" y="403.3333333333333" type="line"/>
      <point x="685.3333333333334" y="403.3333333333333" type="line"/>
    </contour>
    <contour>
      <point x="223.33333333333334" y="526.0" type="line"/>
      <point x="682.6666666666666" y="1225.3333333333333" type="line"/>
      <point x="685.3333333333334" y="523.3333333333334" type="line"/>
    </contour>
  </outline>
</glyph>
<glyph name="five" format="2">
  <advance width="1098.5"/>
  <unicode hex="0035"/>
  <outline>
    <contour>
      <point x="524.6666666666666" y="-26.0" type="curve" smooth="yes"/>
      <point x="774.0" y="-26.0"/>
      <point x="978.6666666666666" y="178.0"/>
      <point x="978.6666666666666" y="428.0" type="curve" smooth="yes"/>
      <point x="978.6666666666666" y="694.6666666666666"/>
      <point x="781.3333333333334" y="880.0"/>
      <point x="496.0" y="883.3333333333334" type="curve"/>
      <point x="321.3333333333333" y="883.3333333333334" type="line"/>
      <point x="399.3333333333333" y="1280.0" type="line"/>
      <point x="951.3333333333334" y="1280.0" type="line"/>
      <point x="951.3333333333334" y="1400.0" type="line"/>
      <point x="302.0" y="1400.0" type="line"/>
      <point x="173.33333333333334" y="763.3333333333334" type="line"/>
      <point x="510.0" y="763.3333333333334" type="line" smooth="yes"/>
      <point x="717.3333333333334" y="763.3333333333334"/>
      <point x="858.6666666666666" y="612.0"/>
      <point x="858.6666666666666" y="428.0" type="curve" smooth="yes"/>
      <point x="858.6666666666666" y="244.0"/>
      <point x="708.0" y="94.0"/>
      <point x="524.6666666666666" y="94.0" type="curve" smooth="yes"/>
      <point x="339.3333333333333" y="94.0"/>
      <point x="190.0" y="244.0"/>
      <point x="190.0" y="428.0" type="curve"/>
      <point x="70.0" y="428.0" type="line"/>
      <point x="70.0" y="179.33333333333334"/>
      <point x="270.6666666666667" y="-26.0"/>
    </contour>
  </outline>
</glyph>
<glyph name="six" format="2">
  <advance width="1072.5"/>
  <unicode hex="0036"/>
  <outline>
    <contour>
      <point x="530.0" y="-26.0" type="curve" smooth="yes"/>
      <point x="796.0" y="-26.0"/>
      <point x="1012.6666666666666" y="191.33333333333334"/>
      <point x="1012.6666666666666" y="456.0" type="curve" smooth="yes"/>
      <point x="1012.6666666666666" y="797.3333333333334"/>
      <point x="660.6666666666666" y="1018.6666666666666"/>
      <point x="363.3333333333333" y="886.6666666666666" type="curve"/>
      <point x="659.3333333333334" y="1400.0" type="line"/>
      <point x="519.3333333333334" y="1400.0" type="line"/>
      <point x="122.0" y="709.3333333333334" type="line" smooth="yes"/>
      <point x="74.66666666666667" y="619.3333333333334"/>
      <point x="50.0" y="560.0"/>
      <point x="50.0" y="456.0" type="curve" smooth="yes"/>
      <point x="50.0" y="190.66666666666666"/>
      <point x="267.3333333333333" y="-26.0"/>
    </contour>
    <contour>
      <point x="530.0" y="94.0" type="curve" smooth="yes"/>
      <point x="338.0" y="94.0"/>
      <point x="170.0" y="251.33333333333334"/>
      <point x="170.0" y="457.3333333333333" type="curve" smooth="yes"/>
      <point x="170.0" y="648.0"/>
      <point x="325.3333333333333" y="816.6666666666666"/>
      <point x="532.0" y="816.6666666666666" type="curve" smooth="yes"/>
      <point x="731.3333333333334" y="816.6666666666666"/>
      <point x="892.6666666666666" y="655.3333333333334"/>
      <point x="892.6666666666666" y="457.3333333333333" type="curve" smooth="yes"/>
      <point x="892.6666666666666" y="267.3333333333333"/>
      <point x="740.6666666666666" y="94.0"/>
    </contour>
  </outline>
</glyph>
<glyph name="seven" format="2">
  <advance width="1063.5"/>
  <unicode hex="0037"/>
  <outline>
    <contour>
      <point x="146.66666666666666" y="0.0" type="line"/>
      <point x="284.0" y="0.0" type="line"/>
      <point x="1023.3333333333334" y="1280.0" type="line"/>
      <point x="1023.3333333333334" y="1400.0" type="line"/>
      <point x="40.0" y="1400.0" type="line"/>
      <point x="40.0" y="1280.0" type="line"/>
      <point x="884.0" y="1280.0" type="line"/>
    </contour>
  </outline>
</glyph>
<glyph name="eight" format="2">
  <advance width="1045.5"/>
  <unicode hex="0038"/>
  <outline>
    <contour>
      <point x="522.6666666666666" y="-26.0" type="curve" smooth="yes"/>
      <point x="767.3333333333334" y="-26.0"/>
      <point x="965.3333333333334" y="158.0"/>
      <point x="965.3333333333334" y="384.0" type="curve" smooth="yes"/>
      <point x="965.3333333333334" y="537.3333333333334"/>
      <point x="870.0" y="671.3333333333334"/>
      <point x="730.6666666666666" y="737.3333333333334" type="curve"/>
      <point x="846.6666666666666" y="798.0"/>
      <point x="929.3333333333334" y="915.3333333333334"/>
      <point x="929.3333333333334" y="1050.0" type="curve" smooth="yes"/>
      <point x="929.3333333333334" y="1257.3333333333333"/>
      <point x="746.0" y="1426.0"/>
      <point x="522.6666666666666" y="1426.0" type="curve" smooth="yes"/>
      <point x="299.3333333333333" y="1426.0"/>
      <point x="115.33333333333333" y="1257.3333333333333"/>
      <point x="115.33333333333333" y="1050.0" type="curve" smooth="yes"/>
      <point x="115.33333333333333" y="915.3333333333334"/>
      <point x="198.66666666666666" y="798.0"/>
      <point x="314.6666666666667" y="737.3333333333334" type="curve"/>
      <point x="177.33333333333334" y="671.3333333333334"/>
      <point x="80.0" y="537.3333333333334"/>
      <point x="80.0" y="384.0" type="curve" smooth="yes"/>
      <point x="80.0" y="157.33333333333334"/>
      <point x="278.0" y="-26.0"/>
    </contour>
    <contour>
      <point x="522.6666666666666" y="94.0" type="curve" smooth="yes"/>
      <point x="350.6666666666667" y="94.0"/>
      <point x="208.0" y="223.33333333333334"/>
      <point x="208.0" y="384.0" type="curve" smooth="yes"/>
      <point x="208.0" y="544.6666666666666"/>
      <point x="350.6666666666667" y="674.0"/>
      <point x="522.6666666666666" y="674.0" type="curve" smooth="yes"/>
      <point x="697.3333333333334" y="674.0"/>
      <point x="837.3333333333334" y="544.6666666666666"/>
      <point x="837.3333333333334" y="384.0" type="curve" smooth="yes"/>
      <point x="837.3333333333334" y="223.33333333333334"/>
      <point x="697.3333333333334" y="94.0"/>
    </contour>
    <contour>
      <point x="522.6666666666666" y="794.0" type="curve" smooth="yes"/>
      <point x="368.0" y="794.0"/>
      <point x="244.0" y="908.6666666666666"/>
      <point x="244.0" y="1050.0" type="curve" smooth="yes"/>
      <point x="244.0" y="1191.3333333333333"/>
      <point x="368.0" y="1306.0"/>
      <point x="522.6666666666666" y="1306.0" type="curve" smooth="yes"/>
      <point x="677.3333333333334" y="1306.0"/>
      <point x="801.3333333333334" y="1191.3333333333333"/>
      <point x="801.3333333333334" y="1050.0" type="curve" smooth="yes"/>
      <point x="801.3333333333334" y="908.6666666666666"/>
      <point x="677.3333333333334" y="794.0"/>
    </contour>
  </outline>
</glyph>
<glyph name="nine" format="2">
  <advance width="1045.0"/>
  <unicode hex="0039"/>
  <outline>
    <contour>
      <point x="364.0" y="0.0" type="line"/>
      <point x="502.0" y="0.0" type="line"/>
      <point x="914.6666666666666" y="719.3333333333334" type="line" smooth="yes"/>
      <point x="960.6666666666666" y="806.6666666666666"/>
      <point x="985.3333333333334" y="862.6666666666666"/>
      <point x="985.3333333333334" y="962.0" type="curve" smooth="yes"/>
      <point x="985.3333333333334" y="1217.3333333333333"/>
      <point x="775.3333333333334" y="1426.0"/>
      <point x="523.3333333333334" y="1426.0" type="curve" smooth="yes"/>
      <point x="267.3333333333333" y="1426.0"/>
      <point x="60.0" y="1216.6666666666667"/>
      <point x="60.0" y="962.0" type="curve" smooth="yes"/>
      <point x="60.0" y="635.3333333333334"/>
      <point x="395.3333333333333" y="423.3333333333333"/>
      <point x="681.3333333333334" y="548.0" type="curve"/>
    </contour>
    <contour>
      <point x="521.3333333333334" y="618.0" type="curve" smooth="yes"/>
      <point x="330.6666666666667" y="618.0"/>
      <point x="177.33333333333334" y="771.3333333333334"/>
      <point x="177.33333333333334" y="961.3333333333334" type="curve" smooth="yes"/>
      <point x="177.33333333333334" y="1143.3333333333333"/>
      <point x="321.3333333333333" y="1307.3333333333333"/>
      <point x="523.3333333333334" y="1307.3333333333333" type="curve" smooth="yes"/>
      <point x="706.0" y="1307.3333333333333"/>
      <point x="866.6666666666666" y="1157.3333333333333"/>
      <point x="866.6666666666666" y="961.3333333333334" type="curve" smooth="yes"/>
      <point x="866.6666666666666" y="779.3333333333334"/>
      <point x="719.3333333333334" y="618.0"/>
    </contour>
  </outline>
</glyph>
<glyph name="colon" format="2">
  <advance width="342.5"/>
  <unicode hex="003A"/>
  <outline>
    <contour>
      <point x="150.66666666666666" y="857.3333333333334" type="curve" smooth="yes"/>
      <point x="190.66666666666666" y="857.3333333333334"/>
      <point x="222.66666666666666" y="889.3333333333334"/>
      <point x="222.66666666666666" y="929.3333333333334" type="curve" smooth="yes"/>
      <point x="222.66666666666666" y="968.0"/>
      <point x="190.66666666666666" y="1000.0"/>
      <point x="150.66666666666666" y="1000.0" type="curve" smooth="yes"/>
      <point x="111.33333333333333" y="1000.0"/>
      <point x="80.0" y="968.0"/>
      <point x="80.0" y="929.3333333333334" type="curve" smooth="yes"/>
      <point x="80.0" y="889.3333333333334"/>
      <point x="111.33333333333333" y="857.3333333333334"/>
    </contour>
    <contour>
      <point x="150.66666666666666" y="-26.0" type="curve" smooth="yes"/>
      <point x="190.66666666666666" y="-26.0"/>
      <point x="222.66666666666666" y="5.333333333333334"/>
      <point x="222.66666666666666" y="46.0" type="curve" smooth="yes"/>
      <point x="222.66666666666666" y="84.66666666666667"/>
      <point x="190.66666666666666" y="116.66666666666667"/>
      <point x="150.66666666666666" y="116.66666666666667" type="curve" smooth="yes"/>
      <point x="111.33333333333333" y="116.66666666666667"/>
      <point x="80.0" y="84.66666666666667"/>
      <point x="80.0" y="46.0" type="curve" smooth="yes"/>
      <point x="80.0" y="5.333333333333334"/>
      <point x="111.33333333333333" y="-26.0"/>
    </contour>
  </outline>
</glyph>
<glyph name="semicolon" format="2">
  <advance width="391.0"/>
  <unicode hex="003B"/>
  <outline>
    <contour>
      <point x="80.0" y="-112.0" type="line"/>
      <point x="160.0" y="-112.0" type="line"/>
      <point x="262.0" y="226.0" type="line"/>
      <point x="142.0" y="226.0" type="line"/>
    </contour>
    <contour>
      <point x="200.66666666666666" y="857.3333333333334" type="curve" smooth="yes"/>
      <point x="239.33333333333334" y="857.3333333333334"/>
      <point x="271.3333333333333" y="889.3333333333334"/>
      <point x="271.3333333333333" y="928.0" type="curve" smooth="yes"/>
      <point x="271.3333333333333" y="968.0"/>
      <point x="239.33333333333334" y="1000.0"/>
      <point x="200.66666666666666" y="1000.0" type="curve" smooth="yes"/>
      <point x="160.0" y="1000.0"/>
      <point x="128.66666666666666" y="968.0"/>
      <point x="128.66666666666666" y="928.0" type="curve" smooth="yes"/>
      <point x="128.66666666666666" y="889.3333333333334"/>
      <point x="160.0" y="857.3333333333334"/>
    </contour>
  </outline>
</glyph>
<glyph name="less" format="2">
  <advance width="1160.0"/>
  <unicode hex="003C"/>
  <outline>
    <contour>
      <point x="1080.0" y="217.33333333333334" type="line"/>
      <point x="1080.0" y="341.3333333333333" type="line"/>
      <point x="174.0" y="600.0" type="line"/>
      <point x="1080.0" y="857.3333333333334" type="line"/>
      <point x="1080.0" y="983.3333333333334" type="line"/>
      <point x="80.0" y="697.3333333333334" type="line"/>
      <point x="80.0" y="501.3333333333333" type="line"/>
    </contour>
  </outline>
</glyph>
<glyph name="equal" format="2">
  <advance width="1160.0"/>
  <unicode hex="003D"/>
  <outline>
    <contour>
      <point x="80.0" y="340.6666666666667" type="line"/>
      <point x="1080.0" y="340.6666666666667" type="line"/>
      <point x="1080.0" y="460.6666666666667" type="line"/>
      <point x="80.0" y="460.6666666666667" type="line"/>
    </contour>
    <contour>
      <point x="80.0" y="739.3333333333334" type="line"/>
      <point x="1080.0" y="739.3333333333334" type="line"/>
      <point x="1080.0" y="859.3333333333334" type="line"/>
      <point x="80.0" y="859.3333333333334" type="line"/>
    </contour>
  </outline>
</glyph>
<glyph name="greater" format="2">
  <advance width="1160.0"/>
  <unicode hex="003E"/>
  <outline>
    <contour>
      <point x="80.0" y="220.0" type="line"/>
      <point x="1080.0" y="501.3333333333333" type="line"/>
      <point x="1080.0" y="697.3333333333334" type="line"/>
      <point x="80.0" y="980.0" type="line"/>
      <point x="80.0" y="854.0" type="line"/>
      <point x="986.0" y="600.0" type="line"/>
      <point x="80.0" y="344.6666666666667" type="line"/>
    </contour>
  </outline>
</glyph>
<glyph name="question" format="2">
  <advance width="982.5"/>
  <unicode hex="003F"/>
  <outline>
    <contour>
      <point x="424.6666666666667" y="491.3333333333333" type="curve"/>
      <point x="544.6666666666666" y="491.3333333333333" type="line"/>
      <point x="544.6666666666666" y="575.6666666666666"/>
      <point x="588.6666666666666" y="649.6666666666666"/>
      <point x="662.6666666666666" y="689.3333333333334" type="curve" smooth="yes"/>
      <point x="786.6666666666666" y="756.0"/>
      <point x="862.6666666666666" y="888.6666666666666"/>
      <point x="862.6666666666666" y="1036.0" type="curve" smooth="yes"/>
      <point x="862.6666666666666" y="1252.0"/>
      <point x="687.3333333333334" y="1427.3333333333333"/>
      <point x="470.6666666666667" y="1427.3333333333333" type="curve" smooth="yes"/>
      <point x="255.33333333333334" y="1427.3333333333333"/>
      <point x="80.0" y="1252.0"/>
      <point x="80.0" y="1036.0" type="curve"/>
      <point x="200.0" y="1036.0" type="line"/>
      <point x="200.0" y="1187.3333333333333"/>
      <point x="321.3333333333333" y="1307.3333333333333"/>
      <point x="470.6666666666667" y="1307.3333333333333" type="curve" smooth="yes"/>
      <point x="620.0" y="1307.3333333333333"/>
      <point x="742.6666666666666" y="1187.3333333333333"/>
      <point x="742.6666666666666" y="1036.0" type="curve" smooth="yes"/>
      <point x="742.6666666666666" y="932.6666666666666"/>
      <point x="690.6666666666666" y="840.6666666666666"/>
      <point x="606.0" y="795.3333333333334" type="curve" smooth="yes"/>
      <point x="492.6666666666667" y="733.6666666666666"/>
      <point x="424.6666666666667" y="619.6666666666666"/>
    </contour>
    <contour>
      <point x="478.0" y="-26.0" type="curve" smooth="yes"/>
      <point x="518.0" y="-26.0"/>
      <point x="549.3333333333334" y="7.333333333333334"/>
      <point x="549.3333333333334" y="46.66666666666667" type="curve" smooth="yes"/>
      <point x="549.3333333333334" y="85.33333333333334"/>
      <point x="518.0" y="116.66666666666667"/>
      <point x="478.0" y="116.66666666666667" type="curve" smooth="yes"/>
      <point x="439.3333333333333" y="116.66666666666667"/>
      <point x="407.3333333333333" y="85.33333333333334"/>
      <point x="407.3333333333333" y="46.66666666666667" type="curve" smooth="yes"/>
      <point x="407.3333333333333" y="7.333333333333334"/>
      <point x="439.3333333333333" y="-26.0"/>
    </contour>
  </outline>
</glyph>
<glyph name="at" format="2">
  <advance width="1710.75"/>
  <unicode hex="0040"/>
  <outline>
    <contour>
      <point x="856.0" y="-173.33333333333334" type="curve"/>
      <point x="856.0" y="-53.33333333333333" type="line"/>
      <point x="494.0" y="-53.33333333333333"/>
      <point x="200.0" y="189.0"/>
      <point x="200.0" y="551.0" type="curve" smooth="yes"/>
      <point x="200.0" y="914.3333333333334"/>
      <point x="496.0" y="1206.0"/>
      <point x="856.0" y="1206.0" type="curve" smooth="yes"/>
      <point x="1216.0" y="1206.0"/>
      <point x="1511.0" y="913.0"/>
      <point x="1511.0" y="551.0" type="curve" smooth="yes"/>
      <point x="1511.0" y="398.3333333333333"/>
      <point x="1455.6666666666667" y="219.0"/>
      <point x="1331.3333333333333" y="219.0" type="curve" smooth="yes"/>
      <point x="1265.0" y="219.0"/>
      <point x="1200.0" y="270.0"/>
      <point x="1200.0" y="337.0" type="curve" smooth="yes"/>
      <point x="1200.0" y="915.3333333333334" type="line"/>
      <point x="1100.0" y="928.0" type="line"/>
      <point x="1100.0" y="802.3333333333334" type="line"/>
      <point x="1045.6666666666667" y="890.6666666666666"/>
      <point x="944.3333333333334" y="948.0"/>
      <point x="823.6666666666666" y="948.0" type="curve" smooth="yes"/>
      <point x="604.6666666666666" y="948.0"/>
      <point x="426.6666666666667" y="770.0"/>
      <point x="426.6666666666667" y="551.0" type="curve" smooth="yes"/>
      <point x="426.6666666666667" y="331.0"/>
      <point x="604.6666666666666" y="153.0"/>
      <point x="823.6666666666666" y="153.0" type="curve" smooth="yes"/>
      <point x="946.3333333333334" y="153.0"/>
      <point x="1040.3333333333333" y="211.66666666666666"/>
      <point x="1096.0" y="302.0" type="curve"/>
      <point x="1102.6666666666667" y="186.33333333333334"/>
      <point x="1222.0" y="99.0"/>
      <point x="1336.0" y="99.0" type="curve" smooth="yes"/>
      <point x="1523.0" y="99.0"/>
      <point x="1631.0" y="339.6666666666667"/>
      <point x="1631.0" y="551.0" type="curve" smooth="yes"/>
      <point x="1631.0" y="976.0"/>
      <point x="1288.0" y="1326.0"/>
      <point x="856.0" y="1326.0" type="curve" smooth="yes"/>
      <point x="427.3333333333333" y="1326.0"/>
      <point x="80.0" y="978.6666666666666"/>
      <point x="80.0" y="551.0" type="curve" smooth="yes"/>
      <point x="80.0" y="123.66666666666667"/>
      <point x="427.6666666666667" y="-173.33333333333334"/>
    </contour>
    <contour>
      <point x="830.3333333333334" y="252.33333333333334" type="curve" smooth="yes"/>
      <point x="669.0" y="252.33333333333334"/>
      <point x="532.6666666666666" y="383.3333333333333"/>
      <point x="532.6666666666666" y="551.0" type="curve" smooth="yes"/>
      <point x="532.6666666666666" y="716.0"/>
      <point x="664.3333333333334" y="848.0"/>
      <point x="830.3333333333334" y="848.0" type="curve" smooth="yes"/>
      <point x="1006.6666666666666" y="848.0"/>
      <point x="1095.0" y="711.3333333333334"/>
      <point x="1095.0" y="564.3333333333334" type="curve" smooth="yes"/>
      <point x="1095.0" y="409.0"/>
      <point x="995.6666666666666" y="252.33333333333334"/>
    </contour>
  </outline>
</glyph>
<glyph name="A" format="2">
  <advance width="1332.5"/>
  <unicode hex="0041"/>
  <outline>
    <contour>
      <point x="589.3333333333334" y="1400.0" type="line"/>
      <point x="80.0" y="0.0" type="line"/>
      <point x="207.33333333333334" y="0.0" type="line"/>
      <point x="320.6666666666667" y="310.0" type="line"/>
      <point x="1012.0" y="310.0" type="line"/>
      <point x="1125.3333333333333" y="0.0" type="line"/>
      <point x="1252.6666666666667" y="0.0" type="line"/>
      <point x="743.3333333333334" y="1400.0" type="line"/>
    </contour>
    <contour>
      <point x="364.6666666666667" y="430.0" type="line"/>
      <point x="666.0" y="1258.6666666666667" type="line"/>
      <point x="968.0" y="430.0" type="line"/>
    </contour>
  </outline>
</glyph>
<glyph name="B" format="2">
  <advance width="1104.0"/>
  <unicode hex="0042"/>
  <outline>
    <contour>
      <point x="120.0" y="0.0" type="line"/>
      <point x="648.6666666666666" y="0.0" type="line" smooth="yes"/>
      <point x="855.3333333333334" y="0.0"/>
      <point x="1024.0" y="156.66666666666666"/>
      <point x="1024.0" y="397.3333333333333" type="curve" smooth="yes"/>
      <point x="1024.0" y="551.3333333333334"/>
      <point x="946.0" y="728.3333333333334"/>
      <point x="781.3333333333334" y="773.3333333333334" type="curve"/>
      <point x="864.6666666666666" y="794.0"/>
      <point x="949.3333333333334" y="915.3333333333334"/>
      <point x="949.3333333333334" y="1048.6666666666667" type="curve" smooth="yes"/>
      <point x="949.3333333333334" y="1273.3333333333333"/>
      <point x="787.3333333333334" y="1398.6666666666667"/>
      <point x="585.3333333333334" y="1398.6666666666667" type="curve" smooth="yes"/>
      <point x="120.0" y="1398.6666666666667" type="line"/>
    </contour>
    <contour>
      <point x="240.0" y="108.66666666666667" type="line"/>
      <point x="240.0" y="711.3333333333334" type="line"/>
      <point x="640.6666666666666" y="711.3333333333334" type="line" smooth="yes"/>
      <point x="791.3333333333334" y="711.3333333333334"/>
      <point x="912.6666666666666" y="567.3333333333334"/>
      <point x="912.6666666666666" y="412.6666666666667" type="curve" smooth="yes"/>
      <point x="912.6666666666666" y="238.0"/>
      <point x="791.3333333333334" y="108.66666666666667"/>
      <point x="640.6666666666666" y="108.66666666666667" type="curve" smooth="yes"/>
    </contour>
    <contour>
      <point x="240.0" y="818.6666666666666" type="line"/>
      <point x="240.0" y="1289.3333333333333" type="line"/>
      <point x="576.6666666666666" y="1289.3333333333333" type="line" smooth="yes"/>
      <point x="715.3333333333334" y="1289.3333333333333"/>
      <point x="829.3333333333334" y="1212.0"/>
      <point x="829.3333333333334" y="1049.3333333333333" type="curve" smooth="yes"/>
      <point x="829.3333333333334" y="901.3333333333334"/>
      <point x="715.3333333333334" y="818.6666666666666"/>
      <point x="576.6666666666666" y="818.6666666666666" type="curve" smooth="yes"/>
    </contour>
  </outline>
</glyph>
<glyph name="C" format="2">
  <advance width="1398.0"/>
  <unicode hex="0043"/>
  <outline>
    <contour>
      <point x="748.0" y="-26.0" type="curve"/>
      <point x="974.0" y="-26.0"/>
      <point x="1172.0" y="86.66666666666667"/>
      <point x="1298.0" y="262.0" type="curve"/>
      <point x="1192.0" y="319.3333333333333" type="line"/>
      <point x="1092.0" y="185.33333333333334"/>
      <point x="929.3333333333334" y="94.0"/>
      <point x="748.0" y="94.0" type="curve"/>
      <point x="435.3333333333333" y="94.0"/>
      <point x="180.0" y="365.3333333333333"/>
      <point x="180.0" y="700.0" type="curve"/>
      <point x="180.0" y="1027.3333333333333"/>
      <point x="430.6666666666667" y="1306.0"/>
      <point x="748.0" y="1306.0" type="curve"/>
      <point x="921.3333333333334" y="1306.0"/>
      <point x="1089.3333333333333" y="1218.0"/>
      <point x="1192.0" y="1079.3333333333333" type="curve"/>
      <point x="1298.0" y="1136.6666666666667" type="line"/>
      <point x="1172.0" y="1312.0"/>
      <point x="974.0" y="1426.0"/>
      <point x="748.0" y="1426.0" type="curve"/>
      <point x="368.0" y="1426.0"/>
      <point x="60.0" y="1100.6666666666667"/>
      <point x="60.0" y="700.0" type="curve"/>
      <point x="60.0" y="298.6666666666667"/>
      <point x="368.0" y="-26.0"/>
    </contour>
  </outline>
</glyph>
<glyph name="D" format="2">
  <advance width="1342.5"/>
  <unicode hex="0044"/>
  <outline>
    <contour>
      <point x="120.0" y="0.0" type="line"/>
      <point x="582.6666666666666" y="0.0" type="line" smooth="yes"/>
      <point x="970.0" y="0.0"/>
      <point x="1282.6666666666667" y="314.0"/>
      <point x="1282.6666666666667" y="700.0" type="curve" smooth="yes"/>
      <point x="1282.6666666666667" y="1086.0"/>
      <point x="970.0" y="1400.0"/>
      <point x="582.6666666666666" y="1400.0" type="curve" smooth="yes"/>
      <point x="120.0" y="1400.0" type="line"/>
    </contour>
    <contour>
      <point x="240.0" y="120.0" type="line"/>
      <point x="240.0" y="1280.0" type="line"/>
      <point x="582.6666666666666" y="1280.0" type="line" smooth="yes"/>
      <point x="902.6666666666666" y="1280.0"/>
      <point x="1162.6666666666667" y="1020.6666666666666"/>
      <point x="1162.6666666666667" y="700.0" type="curve" smooth="yes"/>
      <point x="1162.6666666666667" y="379.3333333333333"/>
      <point x="903.3333333333334" y="120.0"/>
      <point x="582.6666666666666" y="120.0" type="curve" smooth="yes"/>
    </contour>
  </outline>
</glyph>
<glyph name="E" format="2">
  <advance width="1067.0"/>
  <unicode hex="0045"/>
  <outline>
    <contour>
      <point x="120.0" y="0.0" type="line"/>
      <point x="967.3333333333334" y="0.0" type="line"/>
      <point x="967.3333333333334" y="120.0" type="line"/>
      <point x="240.0" y="120.0" type="line"/>
      <point x="240.0" y="690.0" type="line"/>
      <point x="846.0" y="690.0" type="line"/>
      <point x="846.0" y="810.0" type="line"/>
      <point x="240.0" y="810.0" type="line"/>
      <point x="240.0" y="1280.0" type="line"/>
      <point x="967.3333333333334" y="1280.0" type="line"/>
      <point x="967.3333333333334" y="1400.0" type="line"/>
      <point x="120.0" y="1400.0" type="line"/>
    </contour>
  </outline>
</glyph>
<glyph name="G" format="2">
  <advance width="1496.25"/>
  <unicode hex="0047"/>
  <outline>
    <contour>
      <point x="749.3333333333334" y="-26.0" type="curve" smooth="yes"/>
      <point x="1118.6666666666667" y="-26.0"/>
      <point x="1423.3333333333333" y="284.6666666666667"/>
      <point x="1436.0" y="666.6666666666666" type="curve"/>
      <point x="895.3333333333334" y="666.6666666666666" type="line"/>
      <point x="895.3333333333334" y="556.6666666666666" type="line"/>
      <point x="1296.6666666666667" y="556.6666666666666" type="line"/>
      <point x="1241.3333333333333" y="296.0"/>
      <point x="1016.6666666666666" y="94.0"/>
      <point x="750.6666666666666" y="94.0" type="curve" smooth="yes"/>
      <point x="435.3333333333333" y="94.0"/>
      <point x="180.0" y="367.3333333333333"/>
      <point x="180.0" y="699.3333333333334" type="curve" smooth="yes"/>
      <point x="180.0" y="1031.3333333333333"/>
      <point x="436.0" y="1306.0"/>
      <point x="750.0" y="1306.0" type="curve" smooth="yes"/>
      <point x="917.3333333333334" y="1306.0"/>
      <point x="1081.3333333333333" y="1225.3333333333333"/>
      <point x="1192.0" y="1079.3333333333333" type="curve"/>
      <point x="1299.3333333333333" y="1137.3333333333333" type="line"/>
      <point x="1167.3333333333333" y="1318.6666666666667"/>
      <point x="967.3333333333334" y="1425.3333333333333"/>
      <point x="751.3333333333334" y="1425.3333333333333" type="curve" smooth="yes"/>
      <point x="375.3333333333333" y="1425.3333333333333"/>
      <point x="60.0" y="1107.3333333333333"/>
      <point x="60.0" y="700.6666666666666" type="curve" smooth="yes"/>
      <point x="60.0" y="301.3333333333333"/>
      <point x="365.3333333333333" y="-26.0"/>
    </contour>
  </outline>
</glyph>
<glyph name="H" format="2">
  <advance width="1244.5"/>
  <unicode hex="0048"/>
  <outline>
    <contour>
      <point x="1004.6666666666666" y="1400.0" type="line"/>
      <point x="1004.6666666666666" y="810.0" type="line"/>
      <point x="240.0" y="810.0" type="line"/>
      <point x="240.0" y="1400.0" type="line"/>
      <point x="120.0" y="1400.0" type="line"/>
      <point x="120.0" y="0.0" type="line"/>
      <point x="240.0" y="0.0" type="line"/>
      <point x="240.0" y="690.0" type="line"/>
      <point x="1004.6666666666666" y="690.0" type="line"/>
      <point x="1004.6666666666666" y="0.0" type="line"/>
      <point x="1124.6666666666667" y="0.0" type="line"/>
      <point x="1124.6666666666667" y="1400.0" type="line"/>
    </contour>
  </outline>
</glyph>
<glyph name="J" format="2">
  <advance width="787.0"/>
  <unicode hex="004A"/>
  <outline>
    <contour>
      <point x="283.3333333333333" y="-26.0" type="curve" smooth="yes"/>
      <point x="495.3333333333333" y="-26.0"/>
      <point x="667.3333333333334" y="160.66666666666666"/>
      <point x="667.3333333333334" y="371.3333333333333" type="curve" smooth="yes"/>
      <point x="667.3333333333334" y="1400.0" type="line"/>
      <point x="547.3333333333334" y="1400.0" type="line"/>
      <point x="547.3333333333334" y="371.3333333333333" type="line" smooth="yes"/>
      <point x="547.3333333333334" y="226.0"/>
      <point x="428.6666666666667" y="94.0"/>
      <point x="283.3333333333333" y="94.0" type="curve" smooth="yes"/>
      <point x="219.33333333333334" y="94.0"/>
      <point x="161.33333333333334" y="117.33333333333334"/>
      <point x="116.66666666666667" y="155.33333333333334" type="curve"/>
      <point x="40.0" y="63.333333333333336" type="line"/>
      <point x="107.33333333333333" y="4.666666666666667"/>
      <point x="194.66666666666666" y="-26.0"/>
    </contour>
  </outline>
</glyph>
<glyph name="K" format="2">
  <advance width="1045.5"/>
  <unicode hex="004B"/>
  <outline>
    <contour>
      <point x="995.3333333333334" y="0.0" type="line"/>
      <point x="447.3333333333333" y="738.6666666666666" type="line"/>
      <point x="1003.3333333333334" y="1400.0" type="line"/>
      <point x="846.6666666666666" y="1400.0" type="line"/>
      <point x="240.0" y="676.6666666666666" type="line"/>
      <point x="240.0" y="1400.0" type="line"/>
      <point x="120.0" y="1400.0" type="line"/>
      <point x="120.0" y="0.0" type="line"/>
      <point x="240.0" y="0.0" type="line"/>
      <point x="240.0" y="489.3333333333333" type="line"/>
      <point x="368.6666666666667" y="644.0" type="line"/>
      <point x="840.6666666666666" y="0.0" type="line"/>
    </contour>
  </outline>
</glyph>
<glyph name="L" format="2">
  <advance width="995.0"/>
  <unicode hex="004C"/>
  <outline>
    <contour>
      <point x="120.0" y="0.0" type="line"/>
      <point x="895.3333333333334" y="0.0" type="line"/>
      <point x="895.3333333333334" y="120.0" type="line"/>
      <point x="240.0" y="120.0" type="line"/>
      <point x="240.0" y="1400.0" type="line"/>
      <point x="120.0" y="1400.0" type="line"/>
    </contour>
  </outline>
</glyph>
<glyph name="M" format="2">
  <advance width="1750.0"/>
  <unicode hex="004D"/>
  <outline>
    <contour>
      <point x="120.0" y="0.0" type="line"/>
      <point x="241.33333333333334" y="0.0" type="line"/>
      <point x="456.6666666666667" y="1110.0" type="line"/>
      <point x="837.3333333333334" y="103.33333333333333" type="line"/>
      <point x="911.3333333333334" y="103.33333333333333" type="line"/>
      <point x="1292.0" y="1110.0" type="line"/>
      <point x="1507.3333333333333" y="0.0" type="line"/>
      <point x="1630.0" y="0.0" type="line"/>
      <point x="1358.0" y="1400.0" type="line"/>
      <point x="1274.6666666666667" y="1400.0" type="line"/>
      <point x="875.3333333333334" y="344.6666666666667" type="line"/>
      <point x="474.0" y="1400.0" type="line"/>
      <point x="390.6666666666667" y="1400.0" type="line"/>
    </contour>
  </outline>
</glyph>
<glyph name="N" format="2">
  <advance width="1302.5"/>
  <unicode hex="004E"/>
  <outline>
    <contour>
      <point x="142.66666666666666" y="0.0" type="line"/>
      <point x="262.6666666666667" y="0.0" type="line"/>
      <point x="262.6666666666667" y="1183.3333333333333" type="line"/>
      <point x="1031.3333333333333" y="0.0" type="line"/>
      <point x="1160.0" y="0.0" type="line"/>
      <point x="1160.0" y="1400.0" type="line"/>
      <point x="1040.0" y="1400.0" type="line"/>
      <point x="1040.0" y="216.66666666666669" type="line"/>
      <point x="273.3333333333333" y="1400.0" type="line"/>
      <point x="142.66666666666666" y="1400.0" type="line"/>
    </contour>
  </outline>
</glyph>
<glyph name="O" format="2">
  <advance width="1540.0"/>
  <unicode hex="004F"/>
  <outline>
    <contour>
      <point x="770.0" y="-26.0" type="curve" smooth="yes"/>
      <point x="1150.0" y="-26.0"/>
      <point x="1460.0" y="300.0"/>
      <point x="1460.0" y="700.0" type="curve" smooth="yes"/>
      <point x="1460.0" y="1100.0"/>
      <point x="1150.0" y="1426.0"/>
      <point x="770.0" y="1426.0" type="curve" smooth="yes"/>
      <point x="390.0" y="1426.0"/>
      <point x="80.0" y="1100.0"/>
      <point x="80.0" y="700.0" type="curve" smooth="yes"/>
      <point x="80.0" y="300.0"/>
      <point x="390.0" y="-26.0"/>
    </contour>
    <contour>
      <point x="770.0" y="94.0" type="curve" smooth="yes"/>
      <point x="455.3333333333333" y="94.0"/>
      <point x="200.0" y="367.3333333333333"/>
      <point x="200.0" y="700.0" type="curve" smooth="yes"/>
      <point x="200.0" y="1028.6666666666667"/>
      <point x="452.6666666666667" y="1306.0"/>
      <point x="770.0" y="1306.0" type="curve" smooth="yes"/>
      <point x="1084.6666666666667" y="1306.0"/>
      <point x="1340.0" y="1031.3333333333333"/>
      <point x="1340.0" y="700.0" type="curve" smooth="yes"/>
      <point x="1340.0" y="371.3333333333333"/>
      <point x="1087.3333333333333" y="94.0"/>
    </contour>
  </outline>
</glyph>
<glyph name="P" format="2">
  <advance width="1035.0"/>
  <unicode hex="0050"/>
  <outline>
    <contour>
      <point x="120.0" y="0.0" type="line"/>
      <point x="240.0" y="0.0" type="line"/>
      <point x="240.0" y="586.0" type="line"/>
      <point x="558.0" y="586.0" type="line" smooth="yes"/>
      <point x="774.0" y="586.0"/>
      <point x="955.3333333333334" y="761.3333333333334"/>
      <point x="955.3333333333334" y="993.3333333333334" type="curve" smooth="yes"/>
      <point x="955.3333333333334" y="1222.0"/>
      <point x="780.6666666666666" y="1400.0"/>
      <point x="558.0" y="1400.0" type="curve" smooth="yes"/>
      <point x="120.0" y="1400.0" type="line"/>
    </contour>
    <contour>
      <point x="240.0" y="706.0" type="line"/>
      <point x="240.0" y="1291.3333333333333" type="line"/>
      <point x="549.3333333333334" y="1291.3333333333333" type="line" smooth="yes"/>
      <point x="706.0" y="1291.3333333333333"/>
      <point x="835.3333333333334" y="1166.0"/>
      <point x="835.3333333333334" y="998.6666666666666" type="curve" smooth="yes"/>
      <point x="835.3333333333334" y="831.3333333333334"/>
      <point x="706.0" y="706.0"/>
      <point x="549.3333333333334" y="706.0" type="curve" smooth="yes"/>
    </contour>
  </outline>
</glyph>
<glyph name="Q" format="2">
  <advance width="1549.5"/>
  <unicode hex="0051"/>
  <outline>
    <contour>
      <point x="1382.0" y="-20.666666666666668" type="line"/>
      <point x="1466.6666666666667" y="64.0" type="line"/>
      <point x="1294.6666666666667" y="234.66666666666666" type="line"/>
      <point x="1397.3333333333333" y="360.6666666666667"/>
      <point x="1458.6666666666667" y="523.3333333333334"/>
      <point x="1458.6666666666667" y="702.0" type="curve" smooth="yes"/>
      <point x="1458.6666666666667" y="1102.0"/>
      <point x="1150.0" y="1428.0"/>
      <point x="770.0" y="1428.0" type="curve" smooth="yes"/>
      <point x="388.6666666666667" y="1428.0"/>
      <point x="80.0" y="1102.0"/>
      <point x="80.0" y="702.0" type="curve" smooth="yes"/>
      <point x="80.0" y="301.3333333333333"/>
      <point x="388.6666666666667" y="-24.0"/>
      <point x="770.0" y="-24.0" type="curve" smooth="yes"/>
      <point x="938.0" y="-24.0"/>
      <point x="1093.3333333333333" y="40.666666666666664"/>
      <point x="1212.6666666666667" y="148.66666666666666" type="curve"/>
    </contour>
    <contour>
      <point x="770.0" y="96.0" type="curve" smooth="yes"/>
      <point x="457.3333333333333" y="96.0"/>
      <point x="200.0" y="368.6666666666667"/>
      <point x="200.0" y="702.0" type="curve" smooth="yes"/>
      <point x="200.0" y="1029.3333333333333"/>
      <point x="452.6666666666667" y="1308.0"/>
      <point x="770.0" y="1308.0" type="curve" smooth="yes"/>
      <point x="1081.3333333333333" y="1308.0"/>
      <point x="1338.6666666666667" y="1035.3333333333333"/>
      <point x="1338.6666666666667" y="702.0" type="curve" smooth="yes"/>
      <point x="1338.6666666666667" y="564.0"/>
      <point x="1292.0" y="429.3333333333333"/>
      <point x="1207.3333333333333" y="323.3333333333333" type="curve"/>
      <point x="987.3333333333334" y="543.3333333333334" type="line"/>
      <point x="903.3333333333334" y="457.3333333333333" type="line"/>
      <point x="1125.3333333333333" y="235.33333333333334" type="line"/>
      <point x="1030.6666666666667" y="147.33333333333334"/>
      <point x="899.3333333333334" y="96.0"/>
    </contour>
  </outline>
</glyph>
<glyph name="R" format="2">
  <advance width="1119.0"/>
  <unicode hex="0052"/>
  <outline>
    <contour>
      <point x="142.66666666666666" y="0.0" type="line"/>
      <point x="262.6666666666667" y="0.0" type="line"/>
      <point x="262.6666666666667" y="586.0" type="line"/>
      <point x="537.3333333333334" y="586.0" type="line"/>
      <point x="877.3333333333334" y="0.0" type="line"/>
      <point x="1016.6666666666666" y="0.0" type="line"/>
      <point x="672.6666666666666" y="594.6666666666666" type="line"/>
      <point x="858.6666666666666" y="624.6666666666666"/>
      <point x="1002.6666666666666" y="784.6666666666666"/>
      <point x="1002.6666666666666" y="993.3333333333334" type="curve" smooth="yes"/>
      <point x="1002.6666666666666" y="1222.6666666666667"/>
      <point x="828.6666666666666" y="1400.0"/>
      <point x="606.0" y="1400.0" type="curve" smooth="yes"/>
      <point x="142.66666666666666" y="1400.0" type="line"/>
    </contour>
    <contour>
      <point x="262.6666666666667" y="706.0" type="line"/>
      <point x="262.6666666666667" y="1291.3333333333333" type="line"/>
      <point x="597.3333333333334" y="1291.3333333333333" type="line" smooth="yes"/>
      <point x="753.3333333333334" y="1291.3333333333333"/>
      <point x="882.6666666666666" y="1166.0"/>
      <point x="882.6666666666666" y="998.6666666666666" type="curve" smooth="yes"/>
      <point x="882.6666666666666" y="831.3333333333334"/>
      <point x="753.3333333333334" y="706.0"/>
      <point x="597.3333333333334" y="706.0" type="curve" smooth="yes"/>
    </contour>
  </outline>
</glyph>
<glyph name="S" format="2">
  <advance width="1214.5"/>
  <unicode hex="0053"/>
  <outline>
    <contour>
      <point x="606.6666666666666" y="-26.0" type="curve" smooth="yes"/>
      <point x="873.3333333333334" y="-26.0"/>
      <point x="1107.3333333333333" y="127.33333333333333"/>
      <point x="1107.3333333333333" y="365.3333333333333" type="curve" smooth="yes"/>
      <point x="1107.3333333333333" y="599.3333333333334"/>
      <point x="872.0" y="713.3333333333334"/>
      <point x="606.6666666666666" y="760.0" type="curve" smooth="yes"/>
      <point x="390.6666666666667" y="799.3333333333334"/>
      <point x="227.33333333333334" y="839.3333333333334"/>
      <point x="227.33333333333334" y="1028.6666666666667" type="curve" smooth="yes"/>
      <point x="227.33333333333334" y="1190.6666666666667"/>
      <point x="406.6666666666667" y="1300.0"/>
      <point x="606.6666666666666" y="1299.3333333333333" type="curve" smooth="yes"/>
      <point x="775.3333333333334" y="1299.3333333333333"/>
      <point x="953.3333333333334" y="1223.3333333333333"/>
      <point x="1000.6666666666666" y="1090.6666666666667" type="curve"/>
      <point x="1114.6666666666667" y="1131.3333333333333" type="line"/>
      <point x="1044.6666666666667" y="1317.3333333333333"/>
      <point x="821.3333333333334" y="1420.0"/>
      <point x="606.6666666666666" y="1420.0" type="curve" smooth="yes"/>
      <point x="342.6666666666667" y="1420.0"/>
      <point x="107.33333333333333" y="1266.6666666666667"/>
      <point x="107.33333333333333" y="1028.6666666666667" type="curve" smooth="yes"/>
      <point x="107.33333333333333" y="771.3333333333334"/>
      <point x="322.0" y="687.3333333333334"/>
      <point x="606.6666666666666" y="637.3333333333334" type="curve" smooth="yes"/>
      <point x="796.6666666666666" y="603.3333333333334"/>
      <point x="987.3333333333334" y="533.3333333333334"/>
      <point x="987.3333333333334" y="365.3333333333333" type="curve" smooth="yes"/>
      <point x="987.3333333333334" y="201.33333333333334"/>
      <point x="806.0" y="94.0"/>
      <point x="606.6666666666666" y="94.0" type="curve" smooth="yes"/>
      <point x="437.3333333333333" y="94.0"/>
      <point x="259.3333333333333" y="170.66666666666666"/>
      <point x="212.66666666666666" y="303.3333333333333" type="curve"/>
      <point x="100.0" y="261.3333333333333" type="line"/>
      <point x="163.33333333333334" y="81.33333333333333"/>
      <point x="384.0" y="-26.0"/>
    </contour>
  </outline>
</glyph>
<glyph name="T" format="2">
  <advance width="1258.5"/>
  <unicode hex="0054"/>
  <outline>
    <contour>
      <point x="1178.6666666666667" y="1400.0" type="line"/>
      <point x="80.0" y="1400.0" type="line"/>
      <point x="80.0" y="1280.0" type="line"/>
      <point x="568.6666666666666" y="1280.0" type="line"/>
      <point x="568.6666666666666" y="0.0" type="line"/>
      <point x="688.6666666666666" y="0.0" type="line"/>
      <point x="688.6666666666666" y="1280.0" type="line"/>
      <point x="1178.6666666666667" y="1280.0" type="line"/>
    </contour>
  </outline>
</glyph>
<glyph name="U" format="2">
  <advance width="1319.5"/>
  <unicode hex="0055"/>
  <outline>
    <contour>
      <point x="660.0" y="-26.0" type="curve" smooth="yes"/>
      <point x="996.0" y="-26.0"/>
      <point x="1199.3333333333333" y="246.0"/>
      <point x="1199.3333333333333" y="584.0" type="curve" smooth="yes"/>
      <point x="1199.3333333333333" y="1400.0" type="line"/>
      <point x="1079.3333333333333" y="1400.0" type="line"/>
      <point x="1079.3333333333333" y="584.0" type="line" smooth="yes"/>
      <point x="1079.3333333333333" y="319.3333333333333"/>
      <point x="934.0" y="94.0"/>
      <point x="660.0" y="94.0" type="curve" smooth="yes"/>
      <point x="389.3333333333333" y="94.0"/>
      <point x="240.0" y="316.6666666666667"/>
      <point x="240.0" y="584.0" type="curve" smooth="yes"/>
      <point x="240.0" y="1400.0" type="line"/>
      <point x="120.0" y="1400.0" type="line"/>
      <point x="120.0" y="584.0" type="line" smooth="yes"/>
      <point x="120.0" y="246.0"/>
      <point x="324.0" y="-26.0"/>
    </contour>
  </outline>
</glyph>
<glyph name="V" format="2">
  <advance width="1199.5"/>
  <unicode hex="0056"/>
  <outline>
    <contour>
      <point x="528.0" y="0.0" type="line"/>
      <point x="670.0" y="0.0" type="line"/>
      <point x="1179.3333333333333" y="1400.0" type="line"/>
      <point x="1052.0" y="1400.0" type="line"/>
      <point x="599.3333333333334" y="155.33333333333334" type="line"/>
      <point x="147.33333333333334" y="1400.0" type="line"/>
      <point x="20.0" y="1400.0" type="line"/>
    </contour>
  </outline>
</glyph>
<glyph name="W" format="2">
  <advance width="1774.0"/>
  <unicode hex="0057"/>
  <outline>
    <contour>
      <point x="458.0" y="0.0" type="line"/>
      <point x="601.3333333333334" y="0.0" type="line"/>
      <point x="887.3333333333334" y="1119.3333333333333" type="line"/>
      <point x="1173.3333333333333" y="0.0" type="line"/>
      <point x="1318.0" y="0.0" type="line"/>
      <point x="1674.0" y="1400.0" type="line"/>
      <point x="1550.0" y="1400.0" type="line"/>
      <point x="1245.3333333333333" y="202.66666666666669" type="line"/>
      <point x="939.3333333333334" y="1400.0" type="line"/>
      <point x="834.6666666666666" y="1400.0" type="line"/>
      <point x="530.0" y="202.66666666666669" type="line"/>
      <point x="224.0" y="1400.0" type="line"/>
      <point x="100.0" y="1400.0" type="line"/>
    </contour>
  </outline>
</glyph>
<glyph name="X" format="2">
  <advance width="1294.0"/>
  <unicode hex="0058"/>
  <outline>
    <contour>
      <point x="60.0" y="0.0" type="line"/>
      <point x="210.0" y="0.0" type="line"/>
      <point x="647.3333333333334" y="601.3333333333334" type="line"/>
      <point x="1085.3333333333333" y="0.0" type="line"/>
      <point x="1234.0" y="0.0" type="line"/>
      <point x="722.0" y="704.0" type="line"/>
      <point x="1230.0" y="1402.0" type="line"/>
      <point x="1082.0" y="1402.0" type="line"/>
      <point x="647.3333333333334" y="805.3333333333334" type="line"/>
      <point x="212.0" y="1402.0" type="line"/>
      <point x="64.0" y="1402.0" type="line"/>
      <point x="573.3333333333334" y="704.0" type="line"/>
    </contour>
  </outline>
</glyph>
<glyph name="Y" format="2">
  <advance width="1179.0"/>
  <unicode hex="0059"/>
  <outline>
    <contour>
      <point x="978.0" y="1400.0" type="line"/>
      <point x="589.3333333333334" y="765.3333333333334" type="line"/>
      <point x="201.33333333333334" y="1400.0" type="line"/>
      <point x="60.0" y="1400.0" type="line"/>
      <point x="529.3333333333334" y="634.6666666666666" type="line"/>
      <point x="529.3333333333334" y="0.0" type="line"/>
      <point x="649.3333333333334" y="0.0" type="line"/>
      <point x="649.3333333333334" y="634.6666666666666" type="line"/>
      <point x="1119.3333333333333" y="1400.0" type="line"/>
    </contour>
  </outline>
</glyph>
<glyph name="Z" format="2">
  <advance width="1372.0"/>
  <unicode hex="005A"/>
  <outline>
    <contour>
      <point x="120.0" y="0.0" type="line"/>
      <point x="1252.0" y="0.0" type="line"/>
      <point x="1252.0" y="120.0" type="line"/>
      <point x="280.0" y="120.0" type="line"/>
      <point x="1252.0" y="1280.0" type="line"/>
      <point x="1252.0" y="1400.0" type="line"/>
      <point x="120.0" y="1400.0" type="line"/>
      <point x="120.0" y="1280.0" type="line"/>
      <point x="1092.0" y="1280.0" type="line"/>
      <point x="120.0" y="120.0" type="line"/>
    </contour>
  </outline>
</glyph>
<glyph name="bracketleft" format="2">
  <advance width="519.0"/>
  <unicode hex="005B"/>
  <outline>
    <contour>
      <point x="419.3333333333333" y="8.0" type="line"/>
      <point x="240.0" y="8.0" type="line"/>
      <point x="240.0" y="1280.0" type="line"/>
      <point x="419.3333333333333" y="1280.0" type="line"/>
      <point x="419.3333333333333" y="1400.0" type="line"/>
      <point x="120.0" y="1400.0" type="line"/>
      <point x="120.0" y="-112.0" type="line"/>
      <point x="419.3333333333333" y="-112.0" type="line"/>
    </contour>
  </outline>
</glyph>
<glyph name="backslash" format="2">
  <advance width="685.5"/>
  <unicode hex="005C"/>
  <outline>
    <contour>
      <point x="485.3333333333333" y="-112.0" type="line"/>
      <point x="605.3333333333334" y="-112.0" type="line"/>
      <point x="200.0" y="1400.0" type="line"/>
      <point x="80.0" y="1400.0" type="line"/>
    </contour>
  </outline>
</glyph>
<glyph name="bracketright" format="2">
  <advance width="519.5"/>
  <unicode hex="005D"/>
  <outline>
    <contour>
      <point x="100.0" y="-112.0" type="line"/>
      <point x="399.3333333333333" y="-112.0" type="line"/>
      <point x="399.3333333333333" y="1400.0" type="line"/>
      <point x="100.0" y="1400.0" type="line"/>
      <point x="100.0" y="1280.0" type="line"/>
      <point x="279.3333333333333" y="1280.0" type="line"/>
      <point x="279.3333333333333" y="8.0" type="line"/>
      <point x="100.0" y="8.0" type="line"/>
    </contour>
  </outline>
</glyph>
<glyph name="asciicircum" format="2">
  <advance width="752.0"/>
  <unicode hex="005E"/>
  <outline>
    <contour>
      <point x="80.0" y="1000.0" type="line"/>
      <point x="206.66666666666669" y="1000.0" type="line"/>
      <point x="376.0" y="1463.3333333333333" type="line"/>
      <point x="544.0" y="1000.0" type="line"/>
      <point x="672.0" y="1000.0" type="line"/>
      <point x="436.0" y="1650.0" type="line"/>
      <point x="316.0" y="1650.0" type="line"/>
    </contour>
  </outline>
</glyph>
<glyph name="a" format="2">
  <advance width="1205.5"/>
  <unicode hex="0061"/>
  <outline>
    <contour>
      <point x="965.3333333333334" y="1000.0" type="line"/>
      <point x="969.3333333333334" y="802.0" type="line"/>
      <point x="896.6666666666666" y="936.6666666666666"/>
      <point x="766.6666666666666" y="1028.0"/>
      <point x="592.6666666666666" y="1028.0" type="curve"/>
      <point x="304.0" y="1028.0"/>
      <point x="70.0" y="793.3333333333334"/>
      <point x="70.66666666666667" y="503.3333333333333" type="curve"/>
      <point x="70.0" y="211.33333333333334"/>
      <point x="307.3333333333333" y="-26.0"/>
      <point x="599.3333333333334" y="-26.0" type="curve"/>
      <point x="770.0" y="-26.0"/>
      <point x="895.3333333333334" y="63.333333333333336"/>
      <point x="962.0" y="198.0" type="curve"/>
      <point x="965.3333333333334" y="0.0" type="line"/>
      <point x="1085.3333333333333" y="0.0" type="line"/>
      <point x="1085.3333333333333" y="1000.0" type="line"/>
    </contour>
    <contour>
      <point x="602.0" y="91.33333333333334" type="curve"/>
      <point x="385.3333333333333" y="91.33333333333334"/>
      <point x="196.66666666666669" y="269.3333333333333"/>
      <point x="191.33333333333334" y="496.6666666666667" type="curve"/>
      <point x="187.33333333333334" y="725.3333333333334"/>
      <point x="366.6666666666667" y="910.6666666666666"/>
      <point x="592.0" y="910.6666666666666" type="curve"/>
      <point x="812.0" y="910.6666666666666"/>
      <point x="952.0" y="731.3333333333334"/>
      <point x="956.6666666666666" y="503.3333333333333" type="curve"/>
      <point x="960.6666666666666" y="277.3333333333333"/>
      <point x="828.0" y="91.33333333333334"/>
    </contour>
  </outline>
</glyph>
<glyph name="b" format="2">
  <advance width="1195.5"/>
  <unicode hex="0062"/>
  <outline>
    <contour>
      <point x="609.3333333333334" y="1028.0" type="curve"/>
      <point x="437.3333333333333" y="1028.0"/>
      <point x="309.3333333333333" y="937.3333333333334"/>
      <point x="240.0" y="803.3333333333334" type="curve"/>
      <point x="240.0" y="1500.0" type="line"/>
      <point x="120.0" y="1500.0" type="line"/>
      <point x="120.0" y="0.0" type="line"/>
      <point x="240.0" y="0.0" type="line"/>
      <point x="240.0" y="199.33333333333334" type="line"/>
      <point x="309.3333333333333" y="64.66666666666667"/>
      <point x="437.3333333333333" y="-26.0"/>
      <point x="609.3333333333334" y="-26.0" type="curve"/>
      <point x="899.3333333333334" y="-26.0"/>
      <point x="1135.3333333333333" y="210.0"/>
      <point x="1135.3333333333333" y="500.6666666666667" type="curve"/>
      <point x="1135.3333333333333" y="792.0"/>
      <point x="899.3333333333334" y="1028.0"/>
    </contour>
    <contour>
      <point x="608.0" y="91.33333333333334" type="curve"/>
      <point x="387.3333333333333" y="91.33333333333334"/>
      <point x="249.33333333333334" y="272.6666666666667"/>
      <point x="249.33333333333334" y="500.6666666666667" type="curve"/>
      <point x="249.33333333333334" y="725.3333333333334"/>
      <point x="384.0" y="911.3333333333334"/>
      <point x="608.0" y="911.3333333333334" type="curve"/>
      <point x="826.6666666666666" y="911.3333333333334"/>
      <point x="1013.3333333333334" y="731.3333333333334"/>
      <point x="1013.3333333333334" y="500.6666666666667" type="curve"/>
      <point x="1013.3333333333334" y="275.3333333333333"/>
      <point x="832.6666666666666" y="91.33333333333334"/>
    </contour>
  </outline>
</glyph>
<glyph name="c" format="2">
  <advance width="1018.5"/>
  <unicode hex="0063"/>
  <outline>
    <contour>
      <point x="852.0" y="241.33333333333334" type="line"/>
      <point x="784.6666666666666" y="154.66666666666666"/>
      <point x="677.3333333333334" y="94.0"/>
      <point x="560.0" y="94.0" type="curve"/>
      <point x="350.0" y="94.0"/>
      <point x="180.0" y="277.3333333333333"/>
      <point x="180.0" y="500.0" type="curve"/>
      <point x="180.0" y="720.6666666666666"/>
      <point x="345.3333333333333" y="908.0"/>
      <point x="560.0" y="908.0" type="curve"/>
      <point x="668.0" y="908.0"/>
      <point x="778.6666666666666" y="855.3333333333334"/>
      <point x="852.0" y="760.6666666666666" type="curve"/>
      <point x="958.6666666666666" y="818.0" type="line"/>
      <point x="868.0" y="946.0"/>
      <point x="722.6666666666666" y="1028.0"/>
      <point x="560.0" y="1028.0" type="curve"/>
      <point x="284.0" y="1028.0"/>
      <point x="60.0" y="792.0"/>
      <point x="60.0" y="500.0" type="curve"/>
      <point x="60.0" y="210.0"/>
      <point x="284.0" y="-26.0"/>
      <point x="560.0" y="-26.0" type="curve"/>
      <point x="722.6666666666666" y="-26.0"/>
      <point x="868.0" y="56.0"/>
      <point x="958.6666666666666" y="183.33333333333334" type="curve"/>
    </contour>
  </outline>
</glyph>
<glyph name="d" format="2">
  <advance width="1213.0"/>
  <unicode hex="0064"/>
  <outline>
    <contour>
      <point x="955.3333333333334" y="1500.0" type="line"/>
      <point x="955.3333333333334" y="803.3333333333334" type="line"/>
      <point x="886.0" y="937.3333333333334"/>
      <point x="758.6666666666666" y="1027.3333333333333"/>
      <point x="586.0" y="1027.3333333333333" type="curve"/>
      <point x="296.0" y="1027.3333333333333"/>
      <point x="60.0" y="791.3333333333334"/>
      <point x="60.0" y="500.0" type="curve"/>
      <point x="60.0" y="210.0"/>
      <point x="296.0" y="-26.0"/>
      <point x="586.0" y="-26.0" type="curve"/>
      <point x="758.6666666666666" y="-26.0"/>
      <point x="886.0" y="64.0"/>
      <point x="955.3333333333334" y="198.66666666666666" type="curve"/>
      <point x="955.3333333333334" y="0.0" type="line"/>
      <point x="1075.3333333333333" y="0.0" type="line"/>
      <point x="1075.3333333333333" y="1500.0" type="line"/>
    </contour>
    <contour>
      <point x="587.3333333333334" y="91.33333333333334" type="curve"/>
      <point x="369.3333333333333" y="91.33333333333334"/>
      <point x="182.0" y="270.6666666666667"/>
      <point x="182.0" y="500.0" type="curve"/>
      <point x="182.0" y="726.6666666666666"/>
      <point x="364.6666666666667" y="910.6666666666666"/>
      <point x="587.3333333333334" y="910.6666666666666" type="curve"/>
      <point x="808.6666666666666" y="910.6666666666666"/>
      <point x="946.0" y="729.3333333333334"/>
      <point x="946.0" y="500.0" type="curve"/>
      <point x="946.0" y="275.3333333333333"/>
      <point x="811.3333333333334" y="91.33333333333334"/>
    </contour>
  </outline>
</glyph>
<glyph name="e" format="2">
  <advance width="1118.5"/>
  <unicode hex="0065"/>
  <outline>
    <contour>
      <point x="560.0" y="-26.0" type="curve" smooth="yes"/>
      <point x="760.0" y="-26.0"/>
      <point x="932.0" y="98.0"/>
      <point x="1012.0" y="276.0" type="curve"/>
      <point x="890.6666666666666" y="304.0" type="line"/>
      <point x="821.3333333333334" y="173.33333333333334"/>
      <point x="702.0" y="94.0"/>
      <point x="560.0" y="94.0" type="curve" smooth="yes"/>
      <point x="364.0" y="94.66666666666667"/>
      <point x="208.0" y="247.33333333333334"/>
      <point x="186.0" y="452.6666666666667" type="curve"/>
      <point x="1056.0" y="452.6666666666667" type="line"/>
      <point x="1066.6666666666667" y="782.6666666666666"/>
      <point x="854.0" y="1028.0"/>
      <point x="560.0" y="1028.0" type="curve" smooth="yes"/>
      <point x="284.0" y="1028.0"/>
      <point x="60.0" y="792.0"/>
      <point x="60.0" y="500.0" type="curve" smooth="yes"/>
      <point x="60.0" y="210.0"/>
      <point x="284.0" y="-26.0"/>
    </contour>
    <contour>
      <point x="183.33333333333334" y="552.6666666666666" type="line"/>
      <point x="202.66666666666669" y="756.0"/>
      <point x="360.0" y="918.0"/>
      <point x="560.0" y="918.0" type="curve" smooth="yes"/>
      <point x="758.6666666666666" y="918.0"/>
      <point x="922.0" y="750.0"/>
      <point x="935.3333333333334" y="552.6666666666666" type="curve"/>
    </contour>
  </outline>
</glyph>
<glyph name="f" format="2">
  <advance width="655.5"/>
  <unicode hex="0066"/>
  <outline>
    <contour>
      <point x="312.0" y="1270.6666666666667" type="line"/>
      <point x="312.0" y="1344.0"/>
      <point x="372.6666666666667" y="1404.0"/>
      <point x="446.0" y="1404.0" type="curve"/>
      <point x="483.3333333333333" y="1404.0"/>
      <point x="519.3333333333334" y="1388.0"/>
      <point x="543.3333333333334" y="1360.6666666666667" type="curve"/>
      <point x="629.3333333333334" y="1445.3333333333333" type="line"/>
      <point x="580.0" y="1496.6666666666667"/>
      <point x="514.0" y="1524.0"/>
      <point x="446.0" y="1524.0" type="curve"/>
      <point x="305.3333333333333" y="1524.0"/>
      <point x="192.0" y="1410.6666666666667"/>
      <point x="192.0" y="1270.6666666666667" type="curve"/>
      <point x="192.0" y="1000.0" type="line"/>
      <point x="50.0" y="1000.0" type="line"/>
      <point x="50.0" y="880.0" type="line"/>
      <point x="192.0" y="880.0" type="line"/>
      <point x="192.0" y="0.0" type="line"/>
      <point x="312.0" y="0.0" type="line"/>
      <point x="312.0" y="880.0" type="line"/>
      <point x="618.0" y="880.0" type="line"/>
      <point x="618.0" y="1000.0" type="line"/>
      <point x="312.0" y="1000.0" type="line"/>
    </contour>
  </outline>
</glyph>
<glyph name="g" format="2">
  <advance width="1165.5"/>
  <unicode hex="0067"/>
  <outline>
    <contour>
      <point x="925.3333333333334" y="1000.0" type="line"/>
      <point x="925.3333333333334" y="805.3333333333334" type="line"/>
      <point x="855.3333333333334" y="938.0"/>
      <point x="729.3333333333334" y="1027.3333333333333"/>
      <point x="566.6666666666666" y="1027.3333333333333" type="curve" smooth="yes"/>
      <point x="287.3333333333333" y="1027.3333333333333"/>
      <point x="60.0" y="791.3333333333334"/>
      <point x="60.0" y="500.0" type="curve" smooth="yes"/>
      <point x="60.0" y="210.0"/>
      <point x="287.3333333333333" y="-26.0"/>
      <point x="566.6666666666666" y="-26.0" type="curve" smooth="yes"/>
      <point x="729.3333333333334" y="-26.0"/>
      <point x="855.3333333333334" y="63.333333333333336"/>
      <point x="925.3333333333334" y="196.0" type="curve"/>
      <point x="925.3333333333334" y="-40.0" type="line" smooth="yes"/>
      <point x="925.3333333333334" y="-222.66666666666666"/>
      <point x="741.3333333333334" y="-379.3333333333333"/>
      <point x="552.6666666666666" y="-379.3333333333333" type="curve" smooth="yes"/>
      <point x="395.3333333333333" y="-379.3333333333333"/>
      <point x="231.33333333333334" y="-254.0"/>
      <point x="195.33333333333334" y="-96.66666666666667" type="curve"/>
      <point x="85.33333333333333" y="-147.33333333333334" type="line"/>
      <point x="141.33333333333334" y="-340.0"/>
      <point x="343.3333333333333" y="-500.0"/>
      <point x="552.6666666666666" y="-500.0" type="curve" smooth="yes"/>
      <point x="805.3333333333334" y="-500.0"/>
      <point x="1045.3333333333333" y="-290.0"/>
      <point x="1045.3333333333333" y="-40.0" type="curve" smooth="yes"/>
      <point x="1045.3333333333333" y="1000.0" type="line"/>
    </contour>
    <contour>
      <point x="567.3333333333334" y="91.33333333333334" type="curve" smooth="yes"/>
      <point x="357.3333333333333" y="91.33333333333334"/>
      <point x="182.0" y="272.0"/>
      <point x="182.0" y="500.0" type="curve" smooth="yes"/>
      <point x="182.0" y="726.6666666666666"/>
      <point x="352.6666666666667" y="910.6666666666666"/>
      <point x="567.3333333333334" y="910.6666666666666" type="curve" smooth="yes"/>
      <point x="781.3333333333334" y="910.6666666666666"/>
      <point x="919.3333333333334" y="723.3333333333334"/>
      <point x="919.3333333333334" y="500.0" type="curve" smooth="yes"/>
      <point x="919.3333333333334" y="281.3333333333333"/>
      <point x="784.6666666666666" y="91.33333333333334"/>
    </contour>
  </outline>
</glyph>
<glyph name="h" format="2">
  <advance width="1073.0"/>
  <unicode hex="0068"/>
  <outline>
    <contour>
      <point x="993.3333333333334" y="541.3333333333334" type="line"/>
      <point x="989.3333333333334" y="802.6666666666666"/>
      <point x="813.3333333333334" y="1027.3333333333333"/>
      <point x="561.3333333333334" y="1027.3333333333333" type="curve"/>
      <point x="425.3333333333333" y="1027.3333333333333"/>
      <point x="311.3333333333333" y="961.3333333333334"/>
      <point x="240.0" y="831.3333333333334" type="curve"/>
      <point x="240.0" y="1500.0" type="line"/>
      <point x="120.0" y="1500.0" type="line"/>
      <point x="120.0" y="0.0" type="line"/>
      <point x="240.66666666666666" y="0.0" type="line"/>
      <point x="240.66666666666666" y="537.3333333333334" type="line"/>
      <point x="240.66666666666666" y="743.3333333333334"/>
      <point x="373.3333333333333" y="910.6666666666666"/>
      <point x="553.3333333333334" y="910.6666666666666" type="curve"/>
      <point x="729.3333333333334" y="910.6666666666666"/>
      <point x="873.3333333333334" y="743.3333333333334"/>
      <point x="873.3333333333334" y="537.3333333333334" type="curve"/>
      <point x="873.3333333333334" y="0.0" type="line"/>
      <point x="993.3333333333334" y="0.0" type="line"/>
    </contour>
  </outline>
</glyph>
<glyph name="i" format="2">
  <advance width="383.0"/>
  <unicode hex="0069"/>
  <outline>
    <contour>
      <point x="125.33333333333333" y="1000.0" type="line"/>
      <point x="125.33333333333333" y="0.0" type="line"/>
      <point x="245.33333333333334" y="0.0" type="line"/>
      <point x="245.33333333333334" y="1000.0" type="line"/>
    </contour>
    <contour>
      <point x="190.66666666666666" y="1175.3333333333333" type="curve"/>
      <point x="229.33333333333334" y="1175.3333333333333"/>
      <point x="262.6666666666667" y="1209.3333333333333"/>
      <point x="262.6666666666667" y="1245.3333333333333" type="curve"/>
      <point x="262.6666666666667" y="1284.0"/>
      <point x="229.33333333333334" y="1317.3333333333333"/>
      <point x="190.66666666666666" y="1317.3333333333333" type="curve"/>
      <point x="152.0" y="1317.3333333333333"/>
      <point x="120.0" y="1284.0"/>
      <point x="120.0" y="1245.3333333333333" type="curve"/>
      <point x="120.0" y="1209.3333333333333"/>
      <point x="152.0" y="1175.3333333333333"/>
    </contour>
  </outline>
</glyph>
<glyph name="j" format="2">
  <advance width="474.5"/>
  <unicode hex="006A"/>
  <outline>
    <contour>
      <point x="-80.0" y="-500.0" type="line"/>
      <point x="144.66666666666666" y="-500.0"/>
      <point x="312.6666666666667" y="-330.0"/>
      <point x="312.6666666666667" y="-118.0" type="curve"/>
      <point x="312.6666666666667" y="1000.0" type="line"/>
      <point x="192.66666666666666" y="1000.0" type="line"/>
      <point x="192.66666666666666" y="-118.0" type="line"/>
      <point x="192.66666666666666" y="-266.6666666666667"/>
      <point x="75.33333333333333" y="-380.0"/>
      <point x="-80.0" y="-380.0" type="curve"/>
    </contour>
    <contour>
      <point x="252.66666666666666" y="1175.3333333333333" type="curve"/>
      <point x="291.3333333333333" y="1175.3333333333333"/>
      <point x="324.6666666666667" y="1207.3333333333333"/>
      <point x="324.6666666666667" y="1245.3333333333333" type="curve"/>
      <point x="324.6666666666667" y="1284.6666666666667"/>
      <point x="291.3333333333333" y="1317.3333333333333"/>
      <point x="252.66666666666666" y="1317.3333333333333" type="curve"/>
      <point x="213.33333333333334" y="1317.3333333333333"/>
      <point x="182.0" y="1284.6666666666667"/>
      <point x="182.0" y="1245.3333333333333" type="curve"/>
      <point x="182.0" y="1207.3333333333333"/>
      <point x="213.33333333333334" y="1175.3333333333333"/>
    </contour>
  </outline>
</glyph>
<glyph name="k" format="2">
  <advance width="987.5"/>
  <unicode hex="006B"/>
  <outline>
    <contour>
      <point x="901.3333333333334" y="0.0" type="line"/>
      <point x="555.3333333333334" y="598.6666666666666" type="line"/>
      <point x="893.3333333333334" y="1000.0" type="line"/>
      <point x="737.3333333333334" y="1000.0" type="line"/>
      <point x="262.6666666666667" y="434.6666666666667" type="line"/>
      <point x="262.6666666666667" y="1500.0" type="line"/>
      <point x="142.66666666666666" y="1500.0" type="line"/>
      <point x="142.66666666666666" y="0.0" type="line"/>
      <point x="262.6666666666667" y="0.0" type="line"/>
      <point x="262.6666666666667" y="247.33333333333334" type="line"/>
      <point x="474.0" y="500.0" type="line"/>
      <point x="764.0" y="0.0" type="line"/>
    </contour>
  </outline>
</glyph>
<glyph name="l" format="2">
  <advance width="405.0"/>
  <unicode hex="006C"/>
  <outline>
    <contour>
      <point x="142.66666666666666" y="1.3333333333333333" type="line"/>
      <point x="262.6666666666667" y="1.3333333333333333" type="line"/>
      <point x="262.6666666666667" y="1500.0" type="line"/>
      <point x="142.66666666666666" y="1500.0" type="line"/>
    </contour>
  </outline>
</glyph>
<glyph name="m" format="2">
  <advance width="1705.5"/>
  <unicode hex="006D"/>
  <outline>
    <contour>
      <point x="95.33333333333333" y="0.0" type="line"/>
      <point x="215.33333333333334" y="0.0" type="line"/>
      <point x="215.33333333333334" y="530.6666666666666" type="line" smooth="yes"/>
      <point x="215.33333333333334" y="726.6666666666666"/>
      <point x="330.0" y="902.0"/>
      <point x="496.6666666666667" y="902.0" type="curve" smooth="yes"/>
      <point x="676.0" y="902.0"/>
      <point x="792.6666666666666" y="742.0"/>
      <point x="792.6666666666666" y="545.3333333333334" type="curve" smooth="yes"/>
      <point x="792.6666666666666" y="0.0" type="line"/>
      <point x="912.6666666666666" y="0.0" type="line"/>
      <point x="912.6666666666666" y="545.3333333333334" type="line" smooth="yes"/>
      <point x="912.6666666666666" y="742.0"/>
      <point x="1029.3333333333333" y="902.0"/>
      <point x="1209.3333333333333" y="902.0" type="curve" smooth="yes"/>
      <point x="1388.6666666666667" y="902.0"/>
      <point x="1490.6666666666667" y="742.0"/>
      <point x="1490.6666666666667" y="545.3333333333334" type="curve" smooth="yes"/>
      <point x="1490.6666666666667" y="0.0" type="line"/>
      <point x="1610.6666666666667" y="0.0" type="line"/>
      <point x="1610.6666666666667" y="545.3333333333334" type="line" smooth="yes"/>
      <point x="1610.6666666666667" y="802.6666666666666"/>
      <point x="1460.0" y="1022.0"/>
      <point x="1209.3333333333333" y="1022.0" type="curve" smooth="yes"/>
      <point x="1041.3333333333333" y="1022.0"/>
      <point x="921.3333333333334" y="930.0"/>
      <point x="852.6666666666666" y="777.3333333333334" type="curve"/>
      <point x="784.6666666666666" y="926.6666666666666"/>
      <point x="669.3333333333334" y="1022.0"/>
      <point x="496.6666666666667" y="1022.0" type="curve" smooth="yes"/>
      <point x="361.3333333333333" y="1022.0"/>
      <point x="285.3333333333333" y="948.6666666666666"/>
      <point x="215.33333333333334" y="832.0" type="curve"/>
      <point x="215.33333333333334" y="1000.0" type="line"/>
      <point x="95.33333333333333" y="1000.0" type="line"/>
    </contour>
  </outline>
</glyph>
<glyph name="n" format="2">
  <advance width="1082.5"/>
  <unicode hex="006E"/>
  <outline>
    <contour>
      <point x="982.6666666666666" y="542.0" type="line"/>
      <point x="979.3333333333334" y="803.3333333333334"/>
      <point x="803.3333333333334" y="1028.0"/>
      <point x="551.3333333333334" y="1028.0" type="curve"/>
      <point x="413.3333333333333" y="1028.0"/>
      <point x="297.3333333333333" y="951.3333333333334"/>
      <point x="220.0" y="824.0" type="curve"/>
      <point x="220.0" y="1000.0" type="line"/>
      <point x="100.0" y="1000.0" type="line"/>
      <point x="100.0" y="0.0" type="line"/>
      <point x="220.0" y="0.0" type="line"/>
      <point x="220.0" y="538.0" type="line"/>
      <point x="220.0" y="743.3333333333334"/>
      <point x="358.6666666666667" y="911.3333333333334"/>
      <point x="538.0" y="911.3333333333334" type="curve"/>
      <point x="719.3333333333334" y="911.3333333333334"/>
      <point x="862.6666666666666" y="743.3333333333334"/>
      <point x="862.6666666666666" y="538.0" type="curve"/>
      <point x="862.6666666666666" y="0.0" type="line"/>
      <point x="982.6666666666666" y="0.0" type="line"/>
    </contour>
  </outline>
</glyph>
<glyph name="o" format="2">
  <advance width="1120.0"/>
  <unicode hex="006F"/>
  <outline>
    <contour>
      <point x="560.0" y="-26.0" type="curve" smooth="yes"/>
      <point x="836.0" y="-26.0"/>
      <point x="1060.0" y="210.0"/>
      <point x="1060.0" y="500.0" type="curve" smooth="yes"/>
      <point x="1060.0" y="792.0"/>
      <point x="836.0" y="1028.0"/>
      <point x="560.0" y="1028.0" type="curve" smooth="yes"/>
      <point x="284.0" y="1028.0"/>
      <point x="60.0" y="792.0"/>
      <point x="60.0" y="500.0" type="curve" smooth="yes"/>
      <point x="60.0" y="210.0"/>
      <point x="284.0" y="-26.0"/>
    </contour>
    <contour>
      <point x="560.0" y="94.0" type="curve" smooth="yes"/>
      <point x="353.3333333333333" y="94.0"/>
      <point x="180.0" y="273.3333333333333"/>
      <point x="180.0" y="500.0" type="curve" smooth="yes"/>
      <point x="180.0" y="719.3333333333334"/>
      <point x="344.6666666666667" y="908.0"/>
      <point x="560.0" y="908.0" type="curve" smooth="yes"/>
      <point x="773.3333333333334" y="908.0"/>
      <point x="940.0" y="720.6666666666666"/>
      <point x="940.0" y="500.0" type="curve" smooth="yes"/>
      <point x="940.0" y="282.0"/>
      <point x="774.6666666666666" y="94.0"/>
    </contour>
  </outline>
</glyph>
<glyph name="p" format="2">
  <advance width="1215.0"/>
  <unicode hex="0070"/>
  <outline>
    <contour>
      <point x="240.0" y="-500.0" type="line"/>
      <point x="240.0" y="197.33333333333334" type="line"/>
      <point x="309.3333333333333" y="62.666666666666664"/>
      <point x="436.6666666666667" y="-28.0"/>
      <point x="609.3333333333334" y="-28.0" type="curve"/>
      <point x="899.3333333333334" y="-28.0"/>
      <point x="1135.3333333333333" y="208.0"/>
      <point x="1135.3333333333333" y="500.0" type="curve"/>
      <point x="1135.3333333333333" y="790.0"/>
      <point x="899.3333333333334" y="1026.0"/>
      <point x="609.3333333333334" y="1026.0" type="curve"/>
      <point x="436.6666666666667" y="1026.0"/>
      <point x="309.3333333333333" y="935.3333333333334"/>
      <point x="240.0" y="801.3333333333334" type="curve"/>
      <point x="240.0" y="1000.0" type="line"/>
      <point x="120.0" y="1000.0" type="line"/>
      <point x="120.0" y="-500.0" type="line"/>
    </contour>
    <contour>
      <point x="608.0" y="909.3333333333334" type="curve"/>
      <point x="832.6666666666666" y="909.3333333333334"/>
      <point x="1013.3333333333334" y="724.6666666666666"/>
      <point x="1013.3333333333334" y="500.0" type="curve"/>
      <point x="1013.3333333333334" y="269.3333333333333"/>
      <point x="826.6666666666666" y="89.33333333333334"/>
      <point x="608.0" y="89.33333333333334" type="curve"/>
      <point x="384.0" y="89.33333333333334"/>
      <point x="249.33333333333334" y="275.3333333333333"/>
      <point x="249.33333333333334" y="500.0" type="curve"/>
      <point x="249.33333333333334" y="727.3333333333334"/>
      <point x="387.3333333333333" y="909.3333333333334"/>
    </contour>
  </outline>
</glyph>
<glyph name="q" format="2">
  <advance width="1215.0"/>
  <unicode hex="0071"/>
  <outline>
    <contour>
      <point x="606.0" y="-28.0" type="curve"/>
      <point x="778.6666666666666" y="-28.0"/>
      <point x="905.3333333333334" y="62.666666666666664"/>
      <point x="975.3333333333334" y="197.33333333333334" type="curve"/>
      <point x="975.3333333333334" y="-500.0" type="line"/>
      <point x="1095.3333333333333" y="-500.0" type="line"/>
      <point x="1095.3333333333333" y="1000.0" type="line"/>
      <point x="975.3333333333334" y="1000.0" type="line"/>
      <point x="975.3333333333334" y="801.3333333333334" type="line"/>
      <point x="905.3333333333334" y="935.3333333333334"/>
      <point x="778.6666666666666" y="1026.0"/>
      <point x="606.0" y="1026.0" type="curve"/>
      <point x="316.0" y="1026.0"/>
      <point x="80.0" y="790.0"/>
      <point x="80.0" y="500.0" type="curve"/>
      <point x="80.0" y="208.0"/>
      <point x="316.0" y="-28.0"/>
    </contour>
    <contour>
      <point x="607.3333333333334" y="909.3333333333334" type="curve"/>
      <point x="828.6666666666666" y="909.3333333333334"/>
      <point x="965.3333333333334" y="727.3333333333334"/>
      <point x="965.3333333333334" y="500.0" type="curve"/>
      <point x="965.3333333333334" y="275.3333333333333"/>
      <point x="831.3333333333334" y="89.33333333333334"/>
      <point x="607.3333333333334" y="89.33333333333334" type="curve"/>
      <point x="388.6666666666667" y="89.33333333333334"/>
      <point x="202.0" y="269.3333333333333"/>
      <point x="202.0" y="500.0" type="curve"/>
      <point x="202.0" y="724.6666666666666"/>
      <point x="382.6666666666667" y="909.3333333333334"/>
    </contour>
  </outline>
</glyph>
<glyph name="r" format="2">
  <advance width="719.5"/>
  <unicode hex="0072"/>
  <outline>
    <contour>
      <point x="670.0" y="885.3333333333334" type="curve"/>
      <point x="689.3333333333334" y="1011.3333333333334" type="line"/>
      <point x="654.0" y="1023.3333333333334"/>
      <point x="614.6666666666666" y="1027.3333333333333"/>
      <point x="573.3333333333334" y="1027.3333333333333" type="curve" smooth="yes"/>
      <point x="435.3333333333333" y="1027.3333333333333"/>
      <point x="317.3333333333333" y="951.3333333333334"/>
      <point x="240.0" y="824.0" type="curve"/>
      <point x="240.0" y="999.3333333333334" type="line"/>
      <point x="120.0" y="999.3333333333334" type="line"/>
      <point x="120.0" y="0.0" type="line"/>
      <point x="240.66666666666666" y="0.0" type="line"/>
      <point x="240.66666666666666" y="537.3333333333334" type="line" smooth="yes"/>
      <point x="240.66666666666666" y="743.3333333333334"/>
      <point x="378.6666666666667" y="910.6666666666666"/>
      <point x="559.3333333333334" y="910.6666666666666" type="curve" smooth="yes"/>
      <point x="600.0" y="910.6666666666666"/>
      <point x="637.3333333333334" y="901.3333333333334"/>
    </contour>
  </outline>
</glyph>
<glyph name="s" format="2">
  <advance width="877.5"/>
  <unicode hex="0073"/>
  <outline>
    <contour>
      <point x="442.0" y="-19.333333333333332" type="curve" smooth="yes"/>
      <point x="634.6666666666666" y="-24.666666666666668"/>
      <point x="814.6666666666666" y="91.33333333333333"/>
      <point x="814.6666666666666" y="269.3333333333333" type="curve" smooth="yes"/>
      <point x="816.0" y="436.6666666666667"/>
      <point x="648.0" y="503.3333333333333"/>
      <point x="464.0" y="562.0" type="curve" smooth="yes"/>
      <point x="310.6666666666667" y="610.6666666666666"/>
      <point x="202.0" y="626.0"/>
      <point x="202.0" y="744.0" type="curve" smooth="yes"/>
      <point x="202.0" y="860.0"/>
      <point x="321.3333333333333" y="927.3333333333334"/>
      <point x="457.3333333333333" y="925.3333333333334" type="curve" smooth="yes"/>
      <point x="565.3333333333334" y="924.0"/>
      <point x="682.0" y="868.6666666666666"/>
      <point x="719.3333333333334" y="781.3333333333334" type="curve"/>
      <point x="817.3333333333334" y="839.3333333333334" type="line"/>
      <point x="760.0" y="956.0"/>
      <point x="614.6666666666666" y="1034.0"/>
      <point x="451.3333333333333" y="1034.0" type="curve" smooth="yes"/>
      <point x="260.6666666666667" y="1034.0"/>
      <point x="87.33333333333333" y="921.3333333333334"/>
      <point x="87.33333333333333" y="742.0" type="curve" smooth="yes"/>
      <point x="87.33333333333333" y="571.3333333333334"/>
      <point x="229.33333333333334" y="512.6666666666666"/>
      <point x="446.0" y="451.3333333333333" type="curve" smooth="yes"/>
      <point x="569.3333333333334" y="415.3333333333333"/>
      <point x="700.6666666666666" y="384.0"/>
      <point x="700.6666666666666" y="268.0" type="curve" smooth="yes"/>
      <point x="700.6666666666666" y="158.0"/>
      <point x="580.6666666666666" y="88.66666666666667"/>
      <point x="450.6666666666667" y="88.66666666666667" type="curve" smooth="yes"/>
      <point x="336.6666666666667" y="88.66666666666667"/>
      <point x="198.66666666666666" y="154.66666666666666"/>
      <point x="165.33333333333334" y="241.33333333333334" type="curve"/>
      <point x="60.0" y="196.0" type="line"/>
      <point x="107.33333333333333" y="73.33333333333333"/>
      <point x="275.3333333333333" y="-16.0"/>
    </contour>
  </outline>
</glyph>
<glyph name="t" format="2">
  <advance width="685.0"/>
  <unicode hex="0074"/>
  <outline>
    <contour>
      <point x="626.6666666666666" y="880.0" type="line"/>
      <point x="626.6666666666666" y="1000.0" type="line"/>
      <point x="378.6666666666667" y="1000.0" type="line"/>
      <point x="377.3333333333333" y="1314.0" type="line"/>
      <point x="257.3333333333333" y="1314.0" type="line"/>
      <point x="258.6666666666667" y="1000.0" type="line"/>
      <point x="71.33333333333333" y="1000.0" type="line"/>
      <point x="71.33333333333333" y="880.0" type="line"/>
      <point x="258.6666666666667" y="880.0" type="line"/>
      <point x="257.3333333333333" y="0.0" type="line"/>
      <point x="377.3333333333333" y="0.0" type="line"/>
      <point x="378.6666666666667" y="880.0" type="line"/>
    </contour>
  </outline>
</glyph>
<glyph name="u" format="2">
  <advance width="1122.5"/>
  <unicode hex="0075"/>
  <outline>
    <contour>
      <point x="120.0" y="460.0" type="line"/>
      <point x="123.33333333333333" y="198.66666666666666"/>
      <point x="299.3333333333333" y="-26.666666666666668"/>
      <point x="551.3333333333334" y="-26.666666666666668" type="curve"/>
      <point x="689.3333333333334" y="-26.666666666666668"/>
      <point x="805.3333333333334" y="50.666666666666664"/>
      <point x="882.6666666666666" y="177.33333333333334" type="curve"/>
      <point x="882.6666666666666" y="0.0" type="line"/>
      <point x="1002.6666666666666" y="0.0" type="line"/>
      <point x="1002.6666666666666" y="1000.0" type="line"/>
      <point x="882.6666666666666" y="1000.0" type="line"/>
      <point x="882.6666666666666" y="464.0" type="line"/>
      <point x="882.6666666666666" y="258.6666666666667"/>
      <point x="744.0" y="91.33333333333334"/>
      <point x="564.6666666666666" y="91.33333333333334" type="curve"/>
      <point x="383.3333333333333" y="91.33333333333334"/>
      <point x="240.0" y="258.6666666666667"/>
      <point x="240.0" y="464.0" type="curve"/>
      <point x="240.0" y="1000.0" type="line"/>
      <point x="120.0" y="1000.0" type="line"/>
    </contour>
  </outline>
</glyph>
<glyph name="v" format="2">
  <advance width="1002.0"/>
  <unicode hex="0076"/>
  <outline>
    <contour>
      <point x="576.6666666666666" y="0.0" type="line"/>
      <point x="942.0" y="1003.3333333333334" type="line"/>
      <point x="814.0" y="1003.3333333333334" type="line"/>
      <point x="501.3333333333333" y="141.33333333333334" type="line"/>
      <point x="188.0" y="1003.3333333333334" type="line"/>
      <point x="60.0" y="1003.3333333333334" type="line"/>
      <point x="425.3333333333333" y="0.0" type="line"/>
    </contour>
  </outline>
</glyph>
<glyph name="w" format="2">
  <advance width="1610.0"/>
  <unicode hex="0077"/>
  <outline>
    <contour>
      <point x="520.0" y="0.0" type="line"/>
      <point x="803.3333333333334" y="845.3333333333334" type="line"/>
      <point x="1088.6666666666667" y="0.0" type="line"/>
      <point x="1214.6666666666667" y="0.0" type="line"/>
      <point x="1550.0" y="1001.3333333333334" type="line"/>
      <point x="1431.3333333333333" y="1001.3333333333334" type="line"/>
      <point x="1150.6666666666667" y="163.33333333333334" type="line"/>
      <point x="870.0" y="1001.3333333333334" type="line"/>
      <point x="740.0" y="1001.3333333333334" type="line"/>
      <point x="459.3333333333333" y="163.33333333333334" type="line"/>
      <point x="177.33333333333334" y="1001.3333333333334" type="line"/>
      <point x="60.0" y="1001.3333333333334" type="line"/>
      <point x="395.3333333333333" y="0.0" type="line"/>
    </contour>
  </outline>
</glyph>
<glyph name="x" format="2">
  <advance width="1040.0"/>
  <unicode hex="0078"/>
  <outline>
    <contour>
      <point x="80.0" y="0.0" type="line"/>
      <point x="228.0" y="0.0" type="line"/>
      <point x="520.6666666666666" y="401.3333333333333" type="line"/>
      <point x="812.0" y="0.0" type="line"/>
      <point x="960.0" y="0.0" type="line"/>
      <point x="594.0" y="502.0" type="line"/>
      <point x="959.3333333333334" y="1003.3333333333334" type="line"/>
      <point x="811.3333333333334" y="1003.3333333333334" type="line"/>
      <point x="520.6666666666666" y="605.3333333333334" type="line"/>
      <point x="229.33333333333334" y="1003.3333333333334" type="line"/>
      <point x="81.33333333333333" y="1003.3333333333334" type="line"/>
      <point x="446.0" y="502.0" type="line"/>
    </contour>
  </outline>
</glyph>
<glyph name="y" format="2">
  <advance width="1011.0"/>
  <unicode hex="0079"/>
  <outline>
    <contour>
      <point x="804.6666666666666" y="1000.0" type="line"/>
      <point x="498.6666666666667" y="165.33333333333334" type="line"/>
      <point x="211.33333333333334" y="1000.0" type="line"/>
      <point x="80.0" y="1000.0" type="line"/>
      <point x="438.6666666666667" y="1.3333333333333333" type="line"/>
      <point x="257.3333333333333" y="-500.0" type="line"/>
      <point x="384.6666666666667" y="-500.0" type="line"/>
      <point x="931.3333333333334" y="1000.0" type="line"/>
    </contour>
  </outline>
</glyph>
<glyph name="z" format="2">
  <advance width="1064.0"/>
  <unicode hex="007A"/>
  <outline>
    <contour>
      <point x="959.3333333333334" y="880.0" type="line"/>
      <point x="959.3333333333334" y="1000.0" type="line"/>
      <point x="105.33333333333333" y="1000.0" type="line"/>
      <point x="105.33333333333333" y="880.0" type="line"/>
      <point x="790.6666666666666" y="880.0" type="line"/>
      <point x="105.33333333333333" y="120.0" type="line"/>
      <point x="105.33333333333333" y="0.0" type="line"/>
      <point x="959.3333333333334" y="0.0" type="line"/>
      <point x="959.3333333333334" y="120.0" type="line"/>
      <point x="273.3333333333333" y="120.0" type="line"/>
    </contour>
  </outline>
</glyph>
<glyph name="braceleft" format="2">
  <advance width="800.0"/>
  <unicode hex="007B"/>
  <outline>
    <contour>
      <point x="632.6666666666666" y="-113.33333333333333" type="curve" smooth="yes"/>
      <point x="700.0" y="-113.33333333333333" type="line"/>
      <point x="700.0" y="6.666666666666668" type="line"/>
      <point x="632.6666666666666" y="6.666666666666668" type="line" smooth="yes"/>
      <point x="505.3333333333333" y="6.666666666666668"/>
      <point x="402.6666666666667" y="109.33333333333334"/>
      <point x="402.6666666666667" y="236.66666666666666" type="curve" smooth="yes"/>
      <point x="402.6666666666667" y="486.6666666666667" type="line" smooth="yes"/>
      <point x="398.6666666666667" y="567.3333333333334"/>
      <point x="364.0" y="576.6666666666666"/>
      <point x="277.3333333333333" y="642.6666666666666" type="curve" smooth="yes"/>
      <point x="361.3333333333333" y="705.3333333333334"/>
      <point x="398.6666666666667" y="720.0"/>
      <point x="402.6666666666667" y="800.0" type="curve" smooth="yes"/>
      <point x="402.6666666666667" y="1050.0" type="line" smooth="yes"/>
      <point x="402.6666666666667" y="1177.3333333333333"/>
      <point x="507.3333333333333" y="1280.0"/>
      <point x="632.6666666666666" y="1280.0" type="curve" smooth="yes"/>
      <point x="700.0" y="1280.0" type="line"/>
      <point x="700.0" y="1400.0" type="line"/>
      <point x="632.6666666666666" y="1400.0" type="line" smooth="yes"/>
      <point x="438.6666666666667" y="1400.0"/>
      <point x="282.6666666666667" y="1242.0"/>
      <point x="282.6666666666667" y="1050.0" type="curve" smooth="yes"/>
      <point x="282.6666666666667" y="804.0" type="line" smooth="yes"/>
      <point x="278.0" y="715.3333333333334"/>
      <point x="120.0" y="730.6666666666666"/>
      <point x="120.0" y="642.6666666666666" type="curve" smooth="yes"/>
      <point x="120.0" y="558.6666666666666"/>
      <point x="278.0" y="573.3333333333334"/>
      <point x="282.6666666666667" y="482.0" type="curve" smooth="yes"/>
      <point x="282.6666666666667" y="236.66666666666666" type="line" smooth="yes"/>
      <point x="282.6666666666667" y="44.0"/>
      <point x="438.6666666666667" y="-113.33333333333333"/>
    </contour>
  </outline>
</glyph>
<glyph name="bar" format="2">
  <advance width="400.0"/>
  <unicode hex="007C"/>
  <outline>
    <contour>
      <point x="140.0" y="1400.0" type="line"/>
      <point x="140.0" y="-302.0" type="line"/>
      <point x="260.0" y="-302.0" type="line"/>
      <point x="260.0" y="1400.0" type="line"/>
    </contour>
  </outline>
</glyph>
<glyph name="braceright" format="2">
  <advance width="800.0"/>
  <unicode hex="007D"/>
  <outline>
    <contour>
      <point x="100.0" y="-113.33333333333333" type="line"/>
      <point x="167.33333333333334" y="-113.33333333333333" type="line" smooth="yes"/>
      <point x="361.3333333333333" y="-113.33333333333333"/>
      <point x="517.3333333333334" y="44.0"/>
      <point x="517.3333333333334" y="236.66666666666666" type="curve" smooth="yes"/>
      <point x="517.3333333333334" y="482.0" type="line" smooth="yes"/>
      <point x="522.0" y="573.3333333333334"/>
      <point x="680.0" y="558.6666666666666"/>
      <point x="680.0" y="642.6666666666666" type="curve" smooth="yes"/>
      <point x="680.0" y="730.6666666666666"/>
      <point x="522.0" y="715.3333333333334"/>
      <point x="517.3333333333334" y="804.0" type="curve" smooth="yes"/>
      <point x="517.3333333333334" y="1050.0" type="line" smooth="yes"/>
      <point x="517.3333333333334" y="1242.0"/>
      <point x="361.3333333333333" y="1400.0"/>
      <point x="167.33333333333334" y="1400.0" type="curve" smooth="yes"/>
      <point x="100.0" y="1400.0" type="line"/>
      <point x="100.0" y="1280.0" type="line"/>
      <point x="167.33333333333334" y="1280.0" type="line" smooth="yes"/>
      <point x="293.3333333333333" y="1280.0"/>
      <point x="397.3333333333333" y="1177.3333333333333"/>
      <point x="397.3333333333333" y="1050.0" type="curve" smooth="yes"/>
      <point x="397.3333333333333" y="800.0" type="line"/>
      <point x="401.3333333333333" y="720.0"/>
      <point x="439.3333333333333" y="705.3333333333334"/>
      <point x="523.3333333333334" y="642.6666666666666" type="curve" smooth="yes"/>
      <point x="436.0" y="576.6666666666666"/>
      <point x="401.3333333333333" y="567.3333333333334"/>
      <point x="397.3333333333333" y="486.6666666666667" type="curve"/>
      <point x="397.3333333333333" y="236.66666666666666" type="line" smooth="yes"/>
      <point x="397.3333333333333" y="109.33333333333334"/>
      <point x="294.6666666666667" y="6.666666666666668"/>
      <point x="167.33333333333334" y="6.666666666666668" type="curve" smooth="yes"/>
      <point x="100.0" y="6.666666666666668" type="line"/>
    </contour>
  </outline>
</glyph>
<glyph name="asciitilde" format="2">
  <advance width="1208.0"/>
  <unicode hex="007E"/>
  <outline>
    <contour>
      <point x="884.3333333333334" y="428.3333333333333" type="curve" smooth="yes"/>
      <point x="1041.6666666666667" y="428.3333333333333"/>
      <point x="1160.3333333333333" y="573.0"/>
      <point x="1119.6666666666667" y="733.0" type="curve"/>
      <point x="1003.0" y="721.0" type="line"/>
      <point x="1025.0" y="629.0"/>
      <point x="959.0" y="543.0"/>
      <point x="864.3333333333334" y="543.0" type="curve" smooth="yes"/>
      <point x="715.0" y="543.0"/>
      <point x="493.6666666666667" y="771.6666666666666"/>
      <point x="333.6666666666667" y="771.6666666666666" type="curve" smooth="yes"/>
      <point x="170.33333333333334" y="771.6666666666666"/>
      <point x="49.666666666666664" y="615.0"/>
      <point x="87.0" y="465.0" type="curve"/>
      <point x="204.33333333333334" y="473.0" type="line"/>
      <point x="183.0" y="567.6666666666666"/>
      <point x="247.0" y="657.0"/>
      <point x="340.3333333333333" y="655.0" type="curve" smooth="yes"/>
      <point x="474.3333333333333" y="657.0"/>
      <point x="717.0" y="428.3333333333333"/>
    </contour>
  </outline>
</glyph>
<glyph name="exclamdown" format="2">
  <advance width="312.0"/>
  <unicode hex="00A1"/>
  <outline>
    <contour>
      <point x="150.0" y="1026.0" type="curve"/>
      <point x="111.33333333333333" y="1026.0"/>
      <point x="80.0" y="994.6666666666666"/>
      <point x="80.0" y="953.3333333333334" type="curve"/>
      <point x="80.0" y="915.3333333333334"/>
      <point x="111.33333333333333" y="883.3333333333334"/>
      <point x="150.0" y="883.3333333333334" type="curve"/>
      <point x="190.66666666666666" y="883.3333333333334"/>
      <point x="222.0" y="915.3333333333334"/>
      <point x="222.0" y="953.3333333333334" type="curve"/>
      <point x="222.0" y="994.6666666666666"/>
      <point x="190.66666666666666" y="1026.0"/>
    </contour>
    <contour>
      <point x="204.0" y="580.0" type="line"/>
      <point x="96.66666666666667" y="580.0" type="line"/>
      <point x="96.66666666666667" y="-400.0" type="line"/>
      <point x="204.0" y="-400.0" type="line"/>
    </contour>
  </outline>
</glyph>
<glyph name="cent" format="2">
  <advance width="1092.0"/>
  <unicode hex="00A2"/>
  <outline>
    <contour>
      <point x="531.3333333333334" y="0.0" type="line"/>
      <point x="626.6666666666666" y="0.0" type="line"/>
      <point x="626.6666666666666" y="202.0" type="line"/>
      <point x="789.3333333333334" y="215.33333333333334"/>
      <point x="931.3333333333334" y="307.3333333333333"/>
      <point x="1012.0" y="440.0" type="curve"/>
      <point x="908.0" y="500.0" type="line"/>
      <point x="840.0" y="390.0"/>
      <point x="711.3333333333334" y="318.0"/>
      <point x="582.0" y="318.0" type="curve" smooth="yes"/>
      <point x="376.0" y="318.0"/>
      <point x="200.0" y="486.6666666666667"/>
      <point x="200.0" y="702.0" type="curve" smooth="yes"/>
      <point x="200.0" y="912.6666666666666"/>
      <point x="373.3333333333333" y="1084.0"/>
      <point x="582.0" y="1084.0" type="curve" smooth="yes"/>
      <point x="711.3333333333334" y="1084.0"/>
      <point x="840.0" y="1012.0"/>
      <point x="908.0" y="902.0" type="curve"/>
      <point x="1012.0" y="962.0" type="line"/>
      <point x="931.3333333333334" y="1095.3333333333333"/>
      <point x="789.3333333333334" y="1187.3333333333333"/>
      <point x="626.6666666666666" y="1200.0" type="curve"/>
      <point x="626.6666666666666" y="1400.0" type="line"/>
      <point x="531.3333333333334" y="1400.0" type="line"/>
      <point x="531.3333333333334" y="1200.0" type="line"/>
      <point x="278.0" y="1175.3333333333333"/>
      <point x="80.0" y="962.0"/>
      <point x="80.0" y="702.0" type="curve" smooth="yes"/>
      <point x="80.0" y="441.3333333333333"/>
      <point x="278.0" y="227.33333333333334"/>
      <point x="531.3333333333334" y="202.0" type="curve"/>
    </contour>
  </outline>
</glyph>
<glyph name="sterling" format="2">
  <advance width="1154.0"/>
  <unicode hex="00A3"/>
  <outline>
    <contour>
      <point x="104.0" y="0.0" type="line"/>
      <point x="1067.3333333333333" y="0.0" type="line"/>
      <point x="1067.3333333333333" y="120.0" type="line"/>
      <point x="382.6666666666667" y="120.0" type="line"/>
      <point x="449.3333333333333" y="150.0"/>
      <point x="520.0" y="230.66666666666666"/>
      <point x="520.0" y="319.3333333333333" type="curve" smooth="yes"/>
      <point x="520.0" y="664.3333333333334"/>
      <point x="200.0" y="588.3333333333334"/>
      <point x="200.0" y="930.0" type="curve" smooth="yes"/>
      <point x="200.0" y="1136.6666666666667"/>
      <point x="369.3333333333333" y="1306.0"/>
      <point x="576.0" y="1306.0" type="curve" smooth="yes"/>
      <point x="784.6666666666666" y="1306.0"/>
      <point x="954.0" y="1136.6666666666667"/>
      <point x="954.0" y="930.0" type="curve"/>
      <point x="1074.0" y="930.0" type="line"/>
      <point x="1074.0" y="1203.3333333333333"/>
      <point x="851.3333333333334" y="1426.0"/>
      <point x="576.0" y="1426.0" type="curve" smooth="yes"/>
      <point x="303.3333333333333" y="1426.0"/>
      <point x="80.0" y="1203.3333333333333"/>
      <point x="80.0" y="930.0" type="curve" smooth="yes"/>
      <point x="80.0" y="593.6666666666666"/>
      <point x="382.0" y="617.3333333333334"/>
      <point x="396.6666666666667" y="343.3333333333333" type="curve" smooth="yes"/>
      <point x="413.3333333333333" y="208.0"/>
      <point x="261.3333333333333" y="120.0"/>
      <point x="104.0" y="120.0" type="curve"/>
    </contour>
    <contour>
      <point x="104.0" y="450.0" type="line"/>
      <point x="851.3333333333334" y="450.0" type="line"/>
      <point x="851.3333333333334" y="545.3333333333334" type="line"/>
      <point x="104.0" y="545.3333333333334" type="line"/>
    </contour>
  </outline>
</glyph>
<glyph name="currency" format="2">
  <advance width="975.0"/>
  <unicode hex="00A4"/>
  <outline>
    <contour>
      <point x="147.33333333333334" y="292.0" type="line"/>
      <point x="269.3333333333333" y="416.0" type="line"/>
      <point x="399.3333333333333" y="313.3333333333333"/>
      <point x="576.6666666666666" y="312.0"/>
      <point x="706.6666666666666" y="414.0" type="curve"/>
      <point x="828.6666666666666" y="292.0" type="line"/>
      <point x="895.3333333333334" y="358.6666666666667" type="line"/>
      <point x="774.6666666666666" y="480.6666666666667" type="line"/>
      <point x="873.3333333333334" y="608.0"/>
      <point x="873.3333333333334" y="790.0"/>
      <point x="772.6666666666666" y="918.0" type="curve"/>
      <point x="895.3333333333334" y="1042.0" type="line"/>
      <point x="828.6666666666666" y="1108.0" type="line"/>
      <point x="704.0" y="984.0" type="line"/>
      <point x="580.0" y="1080.6666666666667"/>
      <point x="396.6666666666667" y="1079.3333333333333"/>
      <point x="273.3333333333333" y="982.0" type="curve"/>
      <point x="147.33333333333334" y="1108.0" type="line"/>
      <point x="80.0" y="1042.0" type="line"/>
      <point x="205.33333333333334" y="915.3333333333334" type="line"/>
      <point x="106.0" y="788.0"/>
      <point x="106.0" y="610.0"/>
      <point x="203.33333333333334" y="483.3333333333333" type="curve"/>
      <point x="80.0" y="358.6666666666667" type="line"/>
    </contour>
    <contour>
      <point x="489.3333333333333" y="433.3333333333333" type="curve" smooth="yes"/>
      <point x="348.6666666666667" y="432.6666666666667"/>
      <point x="225.33333333333334" y="548.6666666666666"/>
      <point x="225.33333333333334" y="698.0" type="curve" smooth="yes"/>
      <point x="225.33333333333334" y="842.6666666666666"/>
      <point x="341.3333333333333" y="962.0"/>
      <point x="489.3333333333333" y="961.3333333333334" type="curve" smooth="yes"/>
      <point x="635.3333333333334" y="960.6666666666666"/>
      <point x="753.3333333333334" y="846.6666666666666"/>
      <point x="753.3333333333334" y="698.0" type="curve" smooth="yes"/>
      <point x="753.3333333333334" y="551.3333333333334"/>
      <point x="634.0" y="434.0"/>
    </contour>
  </outline>
</glyph>
<glyph name="yen" format="2">
  <advance width="1209.0"/>
  <unicode hex="00A5"/>
  <outline>
    <contour>
      <point x="544.6666666666666" y="0.0" type="line"/>
      <point x="664.6666666666666" y="0.0" type="line"/>
      <point x="664.6666666666666" y="201.0" type="line"/>
      <point x="968.6666666666666" y="201.0" type="line"/>
      <point x="968.6666666666666" y="296.3333333333333" type="line"/>
      <point x="664.6666666666666" y="296.3333333333333" type="line"/>
      <point x="664.6666666666666" y="467.0" type="line"/>
      <point x="968.6666666666666" y="467.0" type="line"/>
      <point x="968.6666666666666" y="562.3333333333334" type="line"/>
      <point x="664.6666666666666" y="562.3333333333334" type="line"/>
      <point x="664.6666666666666" y="634.6666666666666" type="line"/>
      <point x="1134.0" y="1400.0" type="line"/>
      <point x="993.3333333333334" y="1400.0" type="line"/>
      <point x="604.6666666666666" y="765.3333333333334" type="line"/>
      <point x="216.0" y="1400.0" type="line"/>
      <point x="75.33333333333333" y="1400.0" type="line"/>
      <point x="544.6666666666666" y="634.6666666666666" type="line"/>
      <point x="544.6666666666666" y="562.3333333333334" type="line"/>
      <point x="240.66666666666666" y="562.3333333333334" type="line"/>
      <point x="240.66666666666666" y="467.0" type="line"/>
      <point x="544.6666666666666" y="467.0" type="line"/>
      <point x="544.6666666666666" y="296.3333333333333" type="line"/>
      <point x="240.66666666666666" y="296.3333333333333" type="line"/>
      <point x="240.66666666666666" y="201.0" type="line"/>
      <point x="544.6666666666666" y="201.0" type="line"/>
    </contour>
  </outline>
</glyph>
<glyph name="section" format="2">
  <advance width="1071.0"/>
  <unicode hex="00A7"/>
  <outline>
    <contour>
      <point x="545.3333333333334" y="-407.3333333333333" type="curve" smooth="yes"/>
      <point x="735.3333333333334" y="-407.3333333333333"/>
      <point x="909.3333333333334" y="-294.0"/>
      <point x="909.3333333333334" y="-115.33333333333333" type="curve" smooth="yes"/>
      <point x="909.3333333333334" y="13.333333333333334"/>
      <point x="832.0" y="90.0"/>
      <point x="671.3333333333334" y="122.0" type="curve"/>
      <point x="833.3333333333334" y="171.33333333333334"/>
      <point x="951.3333333333334" y="326.6666666666667"/>
      <point x="951.3333333333334" y="498.6666666666667" type="curve" smooth="yes"/>
      <point x="951.3333333333334" y="747.3333333333334"/>
      <point x="789.3333333333334" y="880.6666666666666"/>
      <point x="537.3333333333334" y="935.3333333333334" type="curve" smooth="yes"/>
      <point x="380.0" y="970.6666666666666"/>
      <point x="277.3333333333333" y="999.3333333333334"/>
      <point x="277.3333333333333" y="1117.3333333333333" type="curve" smooth="yes"/>
      <point x="277.3333333333333" y="1233.3333333333333"/>
      <point x="396.6666666666667" y="1300.0"/>
      <point x="532.6666666666666" y="1298.6666666666667" type="curve" smooth="yes"/>
      <point x="640.0" y="1297.3333333333333"/>
      <point x="757.3333333333334" y="1241.3333333333333"/>
      <point x="794.6666666666666" y="1154.6666666666667" type="curve"/>
      <point x="892.6666666666666" y="1212.0" type="line"/>
      <point x="835.3333333333334" y="1329.3333333333333"/>
      <point x="689.3333333333334" y="1407.3333333333333"/>
      <point x="526.0" y="1407.3333333333333" type="curve" smooth="yes"/>
      <point x="335.3333333333333" y="1407.3333333333333"/>
      <point x="162.0" y="1294.0"/>
      <point x="162.0" y="1115.3333333333333" type="curve" smooth="yes"/>
      <point x="162.0" y="985.3333333333334"/>
      <point x="237.33333333333334" y="908.6666666666666"/>
      <point x="399.3333333333333" y="877.3333333333334" type="curve"/>
      <point x="234.66666666666666" y="826.0"/>
      <point x="120.0" y="670.6666666666666"/>
      <point x="120.0" y="498.6666666666667" type="curve" smooth="yes"/>
      <point x="120.0" y="261.3333333333333"/>
      <point x="286.6666666666667" y="114.0"/>
      <point x="532.0" y="65.33333333333333" type="curve" smooth="yes"/>
      <point x="687.3333333333334" y="32.666666666666664"/>
      <point x="794.0" y="1.333333333333334"/>
      <point x="794.0" y="-117.33333333333333" type="curve" smooth="yes"/>
      <point x="794.0" y="-233.33333333333334"/>
      <point x="674.6666666666666" y="-300.0"/>
      <point x="538.6666666666666" y="-298.6666666666667" type="curve" smooth="yes"/>
      <point x="431.3333333333333" y="-297.3333333333333"/>
      <point x="314.0" y="-241.33333333333334"/>
      <point x="276.6666666666667" y="-154.66666666666666" type="curve"/>
      <point x="178.66666666666666" y="-212.0" type="line"/>
      <point x="236.0" y="-329.3333333333333"/>
      <point x="381.3333333333333" y="-407.3333333333333"/>
    </contour>
    <contour>
      <point x="539.3333333333334" y="192.66666666666666" type="curve" smooth="yes"/>
      <point x="379.3333333333333" y="192.66666666666666"/>
      <point x="230.66666666666666" y="325.3333333333333"/>
      <point x="230.66666666666666" y="498.6666666666667" type="curve" smooth="yes"/>
      <point x="230.66666666666666" y="670.0"/>
      <point x="367.3333333333333" y="807.3333333333334"/>
      <point x="530.0" y="807.3333333333334" type="curve" smooth="yes"/>
      <point x="688.6666666666666" y="807.3333333333334"/>
      <point x="840.6666666666666" y="689.3333333333334"/>
      <point x="840.6666666666666" y="494.0" type="curve" smooth="yes"/>
      <point x="840.6666666666666" y="331.3333333333333"/>
      <point x="704.6666666666666" y="192.66666666666666"/>
    </contour>
  </outline>
</glyph>
<glyph name="copyright" format="2">
  <advance width="1783.5"/>
  <unicode hex="00A9"/>
  <outline>
    <contour>
      <point x="891.3333333333334" y="-197.33333333333334" type="curve" smooth="yes"/>
      <point x="1340.0" y="-197.33333333333334"/>
      <point x="1703.3333333333333" y="166.0"/>
      <point x="1703.3333333333333" y="614.6666666666666" type="curve" smooth="yes"/>
      <point x="1703.3333333333333" y="1063.3333333333333"/>
      <point x="1340.0" y="1426.0"/>
      <point x="891.3333333333334" y="1426.0" type="curve" smooth="yes"/>
      <point x="443.3333333333333" y="1426.0"/>
      <point x="80.0" y="1063.3333333333333"/>
      <point x="80.0" y="614.6666666666666" type="curve" smooth="yes"/>
      <point x="80.0" y="166.0"/>
      <point x="443.3333333333333" y="-197.33333333333334"/>
    </contour>
    <contour>
      <point x="891.3333333333334" y="-77.33333333333333" type="curve" smooth="yes"/>
      <point x="516.6666666666666" y="-77.33333333333333"/>
      <point x="200.0" y="225.33333333333334"/>
      <point x="200.0" y="614.6666666666666" type="curve" smooth="yes"/>
      <point x="200.0" y="992.6666666666666"/>
      <point x="508.0" y="1303.3333333333333"/>
      <point x="891.3333333333334" y="1306.0" type="curve" smooth="yes"/>
      <point x="1269.3333333333333" y="1309.3333333333333"/>
      <point x="1583.3333333333333" y="998.0"/>
      <point x="1583.3333333333333" y="614.6666666666666" type="curve" smooth="yes"/>
      <point x="1583.3333333333333" y="239.33333333333334"/>
      <point x="1279.3333333333333" y="-77.33333333333333"/>
    </contour>
    <component base="c" xOffset="340.6666666666667" yOffset="114.66666666666667"/>
  </outline>
</glyph>
<glyph name="logicalnot" format="2">
  <advance width="963.0"/>
  <unicode hex="00AC"/>
  <outline>
    <contour>
      <point x="763.3333333333334" y="320.3333333333333" type="line"/>
      <point x="883.3333333333334" y="320.3333333333333" type="line"/>
      <point x="883.3333333333334" y="880.3333333333334" type="line"/>
      <point x="80.0" y="880.3333333333334" type="line"/>
      <point x="80.0" y="760.3333333333334" type="line"/>
      <point x="763.3333333333334" y="760.3333333333334" type="line"/>
    </contour>
  </outline>
</glyph>
<glyph name="registered" format="2">
  <advance width="970.5"/>
  <unicode hex="00AE"/>
  <outline>
    <contour>
      <point x="485.3333333333333" y="475.3333333333333" type="curve" smooth="yes"/>
      <point x="720.0" y="476.6666666666667"/>
      <point x="910.6666666666666" y="669.3333333333334"/>
      <point x="910.6666666666666" y="900.6666666666666" type="curve" smooth="yes"/>
      <point x="910.6666666666666" y="1126.0"/>
      <point x="725.3333333333334" y="1325.3333333333333"/>
      <point x="485.3333333333333" y="1325.3333333333333" type="curve" smooth="yes"/>
      <point x="249.33333333333334" y="1325.3333333333333"/>
      <point x="60.0" y="1132.0"/>
      <point x="60.0" y="900.6666666666666" type="curve" smooth="yes"/>
      <point x="60.0" y="670.0"/>
      <point x="247.33333333333334" y="476.6666666666667"/>
    </contour>
    <contour>
      <point x="485.3333333333333" y="572.6666666666666" type="curve" smooth="yes"/>
      <point x="305.3333333333333" y="572.6666666666666"/>
      <point x="157.33333333333334" y="720.0"/>
      <point x="157.33333333333334" y="900.6666666666666" type="curve" smooth="yes"/>
      <point x="157.33333333333334" y="1080.6666666666667"/>
      <point x="305.3333333333333" y="1228.0"/>
      <point x="485.3333333333333" y="1228.0" type="curve" smooth="yes"/>
      <point x="665.3333333333334" y="1228.0"/>
      <point x="813.3333333333334" y="1080.6666666666667"/>
      <point x="813.3333333333334" y="900.6666666666666" type="curve" smooth="yes"/>
      <point x="813.3333333333334" y="720.0"/>
      <point x="665.3333333333334" y="572.6666666666666"/>
    </contour>
    <contour>
      <point x="366.0" y="710.0" type="line"/>
      <point x="438.6666666666667" y="710.0" type="line"/>
      <point x="438.6666666666667" y="870.6666666666666" type="line"/>
      <point x="467.3333333333333" y="870.6666666666666" type="line"/>
      <point x="560.6666666666666" y="710.0" type="line"/>
      <point x="644.6666666666666" y="710.0" type="line"/>
      <point x="547.3333333333334" y="877.3333333333334" type="line"/>
      <point x="593.3333333333334" y="890.6666666666666"/>
      <point x="625.3333333333334" y="935.3333333333334"/>
      <point x="625.3333333333334" y="987.3333333333334" type="curve" smooth="yes"/>
      <point x="625.3333333333334" y="1053.3333333333333"/>
      <point x="575.3333333333334" y="1105.3333333333333"/>
      <point x="513.3333333333334" y="1105.3333333333333" type="curve" smooth="yes"/>
      <point x="366.0" y="1105.3333333333333" type="line"/>
    </contour>
    <contour>
      <point x="438.6666666666667" y="943.3333333333334" type="line"/>
      <point x="438.6666666666667" y="1032.6666666666667" type="line"/>
      <point x="513.3333333333334" y="1032.6666666666667" type="line" smooth="yes"/>
      <point x="534.6666666666666" y="1032.6666666666667"/>
      <point x="552.6666666666666" y="1012.6666666666666"/>
      <point x="552.6666666666666" y="987.3333333333334" type="curve" smooth="yes"/>
      <point x="552.6666666666666" y="963.3333333333334"/>
      <point x="534.6666666666666" y="943.3333333333334"/>
      <point x="513.3333333333334" y="943.3333333333334" type="curve" smooth="yes"/>
    </contour>
  </outline>
</glyph>
<glyph name="macron" format="2">
  <advance width="1200.0"/>
  <unicode hex="00AF"/>
  <outline>
    <contour>
      <point x="262.0" y="1352.0" type="line"/>
      <point x="262.0" y="1232.0" type="line"/>
      <point x="938.0" y="1232.0" type="line"/>
      <point x="938.0" y="1352.0" type="line"/>
    </contour>
  </outline>
</glyph>
<glyph name="degree" format="2">
  <advance width="664.5"/>
  <unicode hex="00B0"/>
  <outline>
    <contour>
      <point x="332.6666666666667" y="828.0" type="curve" smooth="yes"/>
      <point x="470.0" y="828.0"/>
      <point x="584.6666666666666" y="938.6666666666666"/>
      <point x="584.6666666666666" y="1080.0" type="curve" smooth="yes"/>
      <point x="584.6666666666666" y="1216.6666666666667"/>
      <point x="474.0" y="1332.0"/>
      <point x="332.6666666666667" y="1332.0" type="curve" smooth="yes"/>
      <point x="192.66666666666666" y="1332.0"/>
      <point x="80.0" y="1218.0"/>
      <point x="80.0" y="1080.0" type="curve" smooth="yes"/>
      <point x="80.0" y="943.3333333333334"/>
      <point x="191.33333333333334" y="828.0"/>
    </contour>
    <contour>
      <point x="332.6666666666667" y="948.0" type="curve" smooth="yes"/>
      <point x="258.6666666666667" y="948.0"/>
      <point x="200.0" y="1006.0"/>
      <point x="200.0" y="1080.0" type="curve" smooth="yes"/>
      <point x="200.0" y="1154.0"/>
      <point x="258.6666666666667" y="1212.0"/>
      <point x="332.6666666666667" y="1212.0" type="curve" smooth="yes"/>
      <point x="406.0" y="1212.0"/>
      <point x="464.6666666666667" y="1154.0"/>
      <point x="464.6666666666667" y="1080.0" type="curve" smooth="yes"/>
      <point x="464.6666666666667" y="1006.0"/>
      <point x="406.0" y="948.0"/>
    </contour>
  </outline>
</glyph>
<glyph name="plusminus" format="2">
  <advance width="1160.0"/>
  <unicode hex="00B1"/>
  <outline>
    <contour>
      <point x="520.0" y="325.3333333333333" type="line"/>
      <point x="640.0" y="325.3333333333333" type="line"/>
      <point x="640.0" y="765.3333333333334" type="line"/>
      <point x="1080.0" y="765.3333333333334" type="line"/>
      <point x="1080.0" y="885.3333333333334" type="line"/>
      <point x="640.0" y="885.3333333333334" type="line"/>
      <point x="640.0" y="1325.3333333333333" type="line"/>
      <point x="520.0" y="1325.3333333333333" type="line"/>
      <point x="520.0" y="885.3333333333334" type="line"/>
      <point x="80.0" y="885.3333333333334" type="line"/>
      <point x="80.0" y="765.3333333333334" type="line"/>
      <point x="520.0" y="765.3333333333334" type="line"/>
    </contour>
    <contour>
      <point x="80.0" y="1.3333333333333333" type="line"/>
      <point x="1080.0" y="1.3333333333333333" type="line"/>
      <point x="1080.0" y="121.33333333333334" type="line"/>
      <point x="80.0" y="121.33333333333334" type="line"/>
    </contour>
  </outline>
</glyph>
<glyph name="twosuperior" format="2">
  <advance width="684.25"/>
  <unicode hex="00B2"/>
  <outline>
    <contour>
      <point x="96.0" y="818.0" type="line"/>
      <point x="537.3333333333334" y="818.0" type="line"/>
      <point x="537.3333333333334" y="914.0" type="line"/>
      <point x="264.0" y="914.0" type="line"/>
      <point x="378.3333333333333" y="996.0"/>
      <point x="540.0" y="1141.3333333333333"/>
      <point x="540.0" y="1256.6666666666667" type="curve"/>
      <point x="540.0" y="1379.3333333333333"/>
      <point x="441.3333333333333" y="1468.0"/>
      <point x="319.3333333333333" y="1468.0" type="curve"/>
      <point x="195.33333333333334" y="1468.0"/>
      <point x="96.0" y="1379.3333333333333"/>
      <point x="96.0" y="1256.6666666666667" type="curve"/>
      <point x="192.0" y="1256.6666666666667" type="line"/>
      <point x="192.0" y="1327.0"/>
      <point x="249.0" y="1375.3333333333333"/>
      <point x="319.3333333333333" y="1375.3333333333333" type="curve"/>
      <point x="389.0" y="1375.3333333333333"/>
      <point x="444.0" y="1327.0"/>
      <point x="444.0" y="1256.6666666666667" type="curve"/>
      <point x="426.0" y="1136.3333333333333"/>
      <point x="198.0" y="978.3333333333334"/>
      <point x="96.0" y="910.0" type="curve"/>
    </contour>
  </outline>
</glyph>
<glyph name="threesuperior" format="2">
  <advance width="552.0"/>
  <unicode hex="00B3"/>
  <outline>
    <contour>
      <point x="277.0" y="798.0" type="curve" smooth="yes"/>
      <point x="388.3333333333333" y="798.0"/>
      <point x="480.0" y="878.3333333333334"/>
      <point x="480.0" y="992.0" type="curve" smooth="yes"/>
      <point x="480.0" y="1065.0"/>
      <point x="452.3333333333333" y="1108.0"/>
      <point x="398.3333333333333" y="1151.0" type="curve"/>
      <point x="433.0" y="1174.0"/>
      <point x="461.6666666666667" y="1231.6666666666667"/>
      <point x="461.6666666666667" y="1289.0" type="curve" smooth="yes"/>
      <point x="461.6666666666667" y="1393.3333333333333"/>
      <point x="377.0" y="1466.6666666666667"/>
      <point x="272.0" y="1466.6666666666667" type="curve" smooth="yes"/>
      <point x="168.0" y="1466.6666666666667"/>
      <point x="83.33333333333333" y="1393.3333333333333"/>
      <point x="83.33333333333333" y="1289.0" type="curve"/>
      <point x="179.33333333333334" y="1289.0" type="line"/>
      <point x="179.33333333333334" y="1339.6666666666667"/>
      <point x="222.0" y="1373.3333333333333"/>
      <point x="272.0" y="1373.3333333333333" type="curve" smooth="yes"/>
      <point x="322.6666666666667" y="1373.3333333333333"/>
      <point x="365.6666666666667" y="1339.6666666666667"/>
      <point x="365.6666666666667" y="1289.0" type="curve" smooth="yes"/>
      <point x="365.6666666666667" y="1227.6666666666667"/>
      <point x="321.3333333333333" y="1188.3333333333333"/>
      <point x="234.33333333333334" y="1188.3333333333333" type="curve"/>
      <point x="234.33333333333334" y="1108.3333333333333" type="line"/>
      <point x="330.0" y="1108.3333333333333"/>
      <point x="384.0" y="1061.0"/>
      <point x="384.0" y="992.0" type="curve" smooth="yes"/>
      <point x="384.0" y="931.3333333333334"/>
      <point x="337.0" y="891.3333333333334"/>
      <point x="277.0" y="891.3333333333334" type="curve" smooth="yes"/>
      <point x="215.0" y="891.3333333333334"/>
      <point x="168.0" y="931.3333333333334"/>
      <point x="168.0" y="992.0" type="curve"/>
      <point x="72.0" y="992.0" type="line"/>
      <point x="72.0" y="878.3333333333334"/>
      <point x="164.33333333333334" y="798.0"/>
    </contour>
  </outline>
</glyph>
<glyph name="paragraph" format="2">
  <advance width="818.0"/>
  <unicode hex="00B6"/>
  <outline>
    <contour>
      <point x="420.0" y="-302.0" type="line"/>
      <point x="540.0" y="-302.0" type="line"/>
      <point x="540.0" y="1400.0" type="line"/>
      <point x="420.0" y="1400.0" type="line" smooth="yes"/>
      <point x="232.0" y="1400.0"/>
      <point x="80.0" y="1246.6666666666667"/>
      <point x="80.0" y="1058.6666666666667" type="curve" smooth="yes"/>
      <point x="80.0" y="870.0"/>
      <point x="232.0" y="718.0"/>
      <point x="420.0" y="718.0" type="curve"/>
    </contour>
    <contour>
      <point x="618.0" y="-302.0" type="line"/>
      <point x="738.0" y="-302.0" type="line"/>
      <point x="738.0" y="1400.0" type="line"/>
      <point x="618.0" y="1400.0" type="line"/>
    </contour>
  </outline>
</glyph>
<glyph name="periodcentered" format="2">
  <advance width="302.5"/>
  <unicode hex="00B7"/>
  <outline>
    <contour>
      <point x="150.66666666666666" y="529.0" type="curve" smooth="yes"/>
      <point x="190.66666666666666" y="529.0"/>
      <point x="222.66666666666666" y="560.3333333333334"/>
      <point x="222.66666666666666" y="601.0" type="curve" smooth="yes"/>
      <point x="222.66666666666666" y="639.0"/>
      <point x="190.66666666666666" y="671.0"/>
      <point x="150.66666666666666" y="671.0" type="curve" smooth="yes"/>
      <point x="111.33333333333333" y="671.0"/>
      <point x="80.0" y="639.0"/>
      <point x="80.0" y="601.0" type="curve" smooth="yes"/>
      <point x="80.0" y="560.3333333333334"/>
      <point x="111.33333333333333" y="529.0"/>
    </contour>
  </outline>
</glyph>
<glyph name="onesuperior" format="2">
  <advance width="417.25"/>
  <unicode hex="00B9"/>
  <outline>
    <contour>
      <point x="177.0" y="818.0" type="line"/>
      <point x="273.0" y="818.0" type="line"/>
      <point x="273.0" y="1449.0" type="line"/>
      <point x="109.33333333333333" y="1449.0" type="line"/>
      <point x="96.0" y="1353.0" type="line"/>
      <point x="177.0" y="1353.0" type="line"/>
    </contour>
  </outline>
</glyph>
<glyph name="questiondown" format="2">
  <advance width="954.0"/>
  <unicode hex="00BF"/>
  <outline>
    <contour>
      <point x="472.0" y="-427.3333333333333" type="curve" smooth="yes"/>
      <point x="688.6666666666666" y="-427.3333333333333"/>
      <point x="864.0" y="-252.0"/>
      <point x="864.0" y="-36.0" type="curve"/>
      <point x="744.0" y="-36.0" type="line"/>
      <point x="744.0" y="-185.33333333333334"/>
      <point x="621.3333333333334" y="-307.3333333333333"/>
      <point x="472.0" y="-307.3333333333333" type="curve" smooth="yes"/>
      <point x="322.6666666666667" y="-307.3333333333333"/>
      <point x="200.0" y="-185.33333333333334"/>
      <point x="200.0" y="-36.0" type="curve" smooth="yes"/>
      <point x="200.0" y="67.33333333333333"/>
      <point x="252.0" y="159.33333333333334"/>
      <point x="336.6666666666667" y="206.0" type="curve" smooth="yes"/>
      <point x="450.0" y="268.6666666666667"/>
      <point x="518.0" y="383.6666666666667"/>
      <point x="518.0" y="510.0" type="curve"/>
      <point x="398.0" y="510.0" type="line"/>
      <point x="398.0" y="425.3333333333333"/>
      <point x="353.0" y="350.3333333333333"/>
      <point x="280.0" y="311.3333333333333" type="curve" smooth="yes"/>
      <point x="156.0" y="245.33333333333334"/>
      <point x="80.0" y="111.33333333333334"/>
      <point x="80.0" y="-36.0" type="curve" smooth="yes"/>
      <point x="80.0" y="-252.0"/>
      <point x="255.33333333333334" y="-427.3333333333333"/>
    </contour>
    <contour>
      <point x="464.6666666666667" y="883.3333333333334" type="curve" smooth="yes"/>
      <point x="503.3333333333333" y="883.3333333333334"/>
      <point x="535.3333333333334" y="915.3333333333334"/>
      <point x="535.3333333333334" y="953.3333333333334" type="curve" smooth="yes"/>
      <point x="535.3333333333334" y="994.6666666666666"/>
      <point x="503.3333333333333" y="1026.0"/>
      <point x="464.6666666666667" y="1026.0" type="curve" smooth="yes"/>
      <point x="424.6666666666667" y="1026.0"/>
      <point x="393.3333333333333" y="994.6666666666666"/>
      <point x="393.3333333333333" y="953.3333333333334" type="curve" smooth="yes"/>
      <point x="393.3333333333333" y="915.3333333333334"/>
      <point x="424.6666666666667" y="883.3333333333334"/>
    </contour>
  </outline>
</glyph>
<glyph name="AE" format="2">
  <advance width="1608.0"/>
  <unicode hex="00C6"/>
  <outline>
    <contour>
      <point x="80.0" y="0.0" type="line"/>
      <point x="207.33333333333334" y="0.0" type="line"/>
      <point x="320.6666666666667" y="310.0" type="line"/>
      <point x="801.3333333333334" y="310.0" type="line"/>
      <point x="801.3333333333334" y="0.0" type="line"/>
      <point x="1508.0" y="0.0" type="line"/>
      <point x="1508.0" y="120.0" type="line"/>
      <point x="921.3333333333334" y="120.0" type="line"/>
      <point x="921.3333333333334" y="640.0" type="line"/>
      <point x="1412.0" y="640.0" type="line"/>
      <point x="1412.0" y="760.0" type="line"/>
      <point x="921.3333333333334" y="760.0" type="line"/>
      <point x="921.3333333333334" y="1280.0" type="line"/>
      <point x="1508.0" y="1280.0" type="line"/>
      <point x="1508.0" y="1400.0" type="line"/>
      <point x="589.3333333333334" y="1400.0" type="line"/>
    </contour>
    <contour>
      <point x="364.6666666666667" y="430.0" type="line"/>
      <point x="675.3333333333334" y="1280.0" type="line"/>
      <point x="801.3333333333334" y="1280.0" type="line"/>
      <point x="801.3333333333334" y="430.0" type="line"/>
    </contour>
  </outline>
</glyph>
<glyph name="Eth" format="2">
  <advance width="1454.5"/>
  <unicode hex="00D0"/>
  <outline>
    <contour>
      <point x="231.33333333333334" y="0.0" type="line"/>
      <point x="694.6666666666666" y="0.0" type="line" smooth="yes"/>
      <point x="1080.6666666666667" y="0.0"/>
      <point x="1394.6666666666667" y="314.0"/>
      <point x="1394.6666666666667" y="700.0" type="curve" smooth="yes"/>
      <point x="1394.6666666666667" y="1086.0"/>
      <point x="1080.6666666666667" y="1400.0"/>
      <point x="694.6666666666666" y="1400.0" type="curve" smooth="yes"/>
      <point x="231.33333333333334" y="1400.0" type="line"/>
      <point x="231.33333333333334" y="810.0" type="line"/>
      <point x="100.0" y="810.0" type="line"/>
      <point x="100.0" y="690.0" type="line"/>
      <point x="231.33333333333334" y="690.0" type="line"/>
    </contour>
    <contour>
      <point x="351.3333333333333" y="120.0" type="line"/>
      <point x="351.3333333333333" y="690.0" type="line"/>
      <point x="709.3333333333334" y="690.0" type="line"/>
      <point x="709.3333333333334" y="810.0" type="line"/>
      <point x="351.3333333333333" y="810.0" type="line"/>
      <point x="351.3333333333333" y="1280.0" type="line"/>
      <point x="694.6666666666666" y="1280.0" type="line" smooth="yes"/>
      <point x="1007.3333333333334" y="1280.0"/>
      <point x="1274.6666666666667" y="1025.3333333333333"/>
      <point x="1274.6666666666667" y="700.0" type="curve" smooth="yes"/>
      <point x="1274.6666666666667" y="385.3333333333333"/>
      <point x="1019.3333333333334" y="120.0"/>
      <point x="694.6666666666666" y="120.0" type="curve" smooth="yes"/>
    </contour>
  </outline>
</glyph>
<glyph name="multiply" format="2">
  <advance width="952.0"/>
  <unicode hex="00D7"/>
  <outline>
    <contour>
      <point x="164.66666666666666" y="204.66666666666666" type="line"/>
      <point x="475.3333333333333" y="515.3333333333334" type="line"/>
      <point x="786.0" y="204.66666666666666" type="line"/>
      <point x="872.0" y="289.3333333333333" type="line"/>
      <point x="559.3333333333334" y="600.0" type="line"/>
      <point x="872.0" y="911.3333333333334" type="line"/>
      <point x="786.0" y="995.3333333333334" type="line"/>
      <point x="475.3333333333333" y="684.6666666666666" type="line"/>
      <point x="164.66666666666666" y="995.3333333333334" type="line"/>
      <point x="80.0" y="911.3333333333334" type="line"/>
      <point x="390.6666666666667" y="600.0" type="line"/>
      <point x="80.0" y="289.3333333333333" type="line"/>
    </contour>
  </outline>
</glyph>
<glyph name="Oslash" format="2">
  <advance width="1540.0"/>
  <unicode hex="00D8"/>
  <outline>
    <contour>
      <point x="392.0" y="-77.33333333333333" type="line"/>
      <point x="465.3333333333333" y="51.333333333333336" type="line"/>
      <point x="558.0" y="3.333333333333333"/>
      <point x="660.6666666666666" y="-26.0"/>
      <point x="770.0" y="-26.0" type="curve" smooth="yes"/>
      <point x="1150.0" y="-26.0"/>
      <point x="1460.0" y="300.0"/>
      <point x="1460.0" y="700.0" type="curve" smooth="yes"/>
      <point x="1460.0" y="940.6666666666666"/>
      <point x="1348.0" y="1153.3333333333333"/>
      <point x="1177.3333333333333" y="1284.6666666666667" type="curve"/>
      <point x="1254.0" y="1417.3333333333333" type="line"/>
      <point x="1150.0" y="1477.3333333333333" type="line"/>
      <point x="1076.6666666666667" y="1349.3333333333333" type="line"/>
      <point x="984.0" y="1398.6666666666667"/>
      <point x="881.3333333333334" y="1426.0"/>
      <point x="770.0" y="1426.0" type="curve" smooth="yes"/>
      <point x="390.0" y="1426.0"/>
      <point x="80.0" y="1100.0"/>
      <point x="80.0" y="700.0" type="curve" smooth="yes"/>
      <point x="80.0" y="461.3333333333333"/>
      <point x="194.0" y="248.0"/>
      <point x="364.6666666666667" y="116.0" type="curve"/>
      <point x="288.0" y="-17.333333333333332" type="line"/>
    </contour>
    <contour>
      <point x="427.3333333333333" y="225.33333333333334" type="line"/>
      <point x="289.3333333333333" y="333.3333333333333"/>
      <point x="200.0" y="506.0"/>
      <point x="200.0" y="700.0" type="curve" smooth="yes"/>
      <point x="200.0" y="1028.6666666666667"/>
      <point x="452.6666666666667" y="1306.0"/>
      <point x="770.0" y="1306.0" type="curve" smooth="yes"/>
      <point x="858.6666666666666" y="1306.0"/>
      <point x="942.6666666666666" y="1283.3333333333333"/>
      <point x="1015.3333333333334" y="1243.3333333333333" type="curve"/>
    </contour>
    <contour>
      <point x="770.0" y="94.0" type="curve" smooth="yes"/>
      <point x="683.3333333333334" y="94.0"/>
      <point x="599.3333333333334" y="117.33333333333334"/>
      <point x="526.6666666666666" y="157.33333333333334" type="curve"/>
      <point x="1115.3333333333333" y="1176.0" type="line"/>
      <point x="1251.3333333333333" y="1067.3333333333333"/>
      <point x="1340.0" y="894.0"/>
      <point x="1340.0" y="700.0" type="curve" smooth="yes"/>
      <point x="1340.0" y="371.3333333333333"/>
      <point x="1087.3333333333333" y="94.0"/>
    </contour>
  </outline>
</glyph>
<glyph name="Thorn" format="2">
  <advance width="1035.0"/>
  <unicode hex="00DE"/>
  <outline>
    <contour>
      <point x="120.0" y="0.0" type="line"/>
      <point x="240.0" y="0.0" type="line"/>
      <point x="240.0" y="293.3333333333333" type="line"/>
      <point x="558.0" y="293.3333333333333" type="line" smooth="yes"/>
      <point x="774.0" y="293.3333333333333"/>
      <point x="955.3333333333334" y="468.6666666666667"/>
      <point x="955.3333333333334" y="700.0" type="curve" smooth="yes"/>
      <point x="955.3333333333334" y="929.3333333333334"/>
      <point x="780.6666666666666" y="1107.3333333333333"/>
      <point x="558.0" y="1107.3333333333333" type="curve" smooth="yes"/>
      <point x="240.0" y="1107.3333333333333" type="line"/>
      <point x="240.0" y="1400.0" type="line"/>
      <point x="120.0" y="1400.0" type="line"/>
    </contour>
    <contour>
      <point x="240.0" y="413.3333333333333" type="line"/>
      <point x="240.0" y="998.0" type="line"/>
      <point x="549.3333333333334" y="998.0" type="line" smooth="yes"/>
      <point x="706.0" y="998.0"/>
      <point x="835.3333333333334" y="873.3333333333334"/>
      <point x="835.3333333333334" y="705.3333333333334" type="curve" smooth="yes"/>
      <point x="835.3333333333334" y="538.0"/>
      <point x="706.0" y="413.3333333333333"/>
      <point x="549.3333333333334" y="413.3333333333333" type="curve" smooth="yes"/>
    </contour>
  </outline>
</glyph>
<glyph name="germandbls" format="2">
  <advance width="1054.0"/>
  <unicode hex="00DF"/>
  <outline>
    <contour>
      <point x="120.0" y="0.0" type="line"/>
      <point x="240.0" y="0.0" type="line"/>
      <point x="240.0" y="983.3333333333334" type="line" smooth="yes"/>
      <point x="240.0" y="1152.6666666666667"/>
      <point x="377.3333333333333" y="1289.3333333333333"/>
      <point x="546.6666666666666" y="1289.3333333333333" type="curve" smooth="yes"/>
      <point x="685.3333333333334" y="1289.3333333333333"/>
      <point x="799.3333333333334" y="1169.3333333333333"/>
      <point x="799.3333333333334" y="1021.3333333333334" type="curve" smooth="yes"/>
      <point x="799.3333333333334" y="873.3333333333334"/>
      <point x="685.3333333333334" y="756.0"/>
      <point x="546.6666666666666" y="752.6666666666666" type="curve" smooth="yes"/>
      <point x="519.3333333333334" y="751.3333333333334" type="line"/>
      <point x="519.3333333333334" y="646.0" type="line"/>
      <point x="610.6666666666666" y="645.3333333333334" type="line" smooth="yes"/>
      <point x="761.3333333333334" y="643.3333333333334"/>
      <point x="882.6666666666666" y="525.3333333333334"/>
      <point x="882.6666666666666" y="377.3333333333333" type="curve" smooth="yes"/>
      <point x="882.6666666666666" y="230.0"/>
      <point x="761.3333333333334" y="108.66666666666667"/>
      <point x="610.6666666666666" y="108.66666666666667" type="curve" smooth="yes"/>
      <point x="519.3333333333334" y="108.66666666666667" type="line"/>
      <point x="544.6666666666666" y="0.0" type="line"/>
      <point x="618.6666666666666" y="0.0" type="line" smooth="yes"/>
      <point x="825.3333333333334" y="0.0"/>
      <point x="994.0" y="164.0"/>
      <point x="994.0" y="372.0" type="curve" smooth="yes"/>
      <point x="994.0" y="526.0"/>
      <point x="908.6666666666666" y="675.3333333333334"/>
      <point x="751.3333333333334" y="714.6666666666666" type="curve"/>
      <point x="857.3333333333334" y="773.3333333333334"/>
      <point x="919.3333333333334" y="895.3333333333334"/>
      <point x="919.3333333333334" y="1021.3333333333334" type="curve" smooth="yes"/>
      <point x="919.3333333333334" y="1231.3333333333333"/>
      <point x="757.3333333333334" y="1398.6666666666667"/>
      <point x="555.3333333333334" y="1398.6666666666667" type="curve" smooth="yes"/>
      <point x="314.0" y="1398.6666666666667"/>
      <point x="120.0" y="1202.6666666666667"/>
      <point x="120.0" y="963.3333333333334" type="curve" smooth="yes"/>
    </contour>
  </outline>
</glyph>
<glyph name="ae" format="2">
  <advance width="1884.75"/>
  <unicode hex="00E6"/>
  <outline>
    <contour>
      <point x="471.3333333333333" y="-6.666666666666667" type="curve" smooth="yes"/>
      <point x="586.6666666666666" y="-6.666666666666667" type="line" smooth="yes"/>
      <point x="746.0" y="-6.666666666666667"/>
      <point x="871.3333333333334" y="95.33333333333333"/>
      <point x="910.6666666666666" y="238.66666666666666" type="curve"/>
      <point x="995.3333333333334" y="92.66666666666667"/>
      <point x="1148.6666666666667" y="-6.666666666666667"/>
      <point x="1325.3333333333333" y="-6.666666666666667" type="curve" smooth="yes"/>
      <point x="1525.3333333333333" y="-6.666666666666667"/>
      <point x="1697.3333333333333" y="117.33333333333333"/>
      <point x="1777.3333333333333" y="295.3333333333333" type="curve"/>
      <point x="1656.0" y="324.0" type="line"/>
      <point x="1587.3333333333333" y="192.66666666666666"/>
      <point x="1467.3333333333333" y="113.33333333333334"/>
      <point x="1325.3333333333333" y="113.33333333333334" type="curve" smooth="yes"/>
      <point x="1129.3333333333333" y="114.0"/>
      <point x="973.3333333333334" y="267.3333333333333"/>
      <point x="951.3333333333334" y="472.6666666666667" type="curve"/>
      <point x="1821.3333333333333" y="472.6666666666667" type="line"/>
      <point x="1832.0" y="803.3333333333334"/>
      <point x="1619.3333333333333" y="1047.3333333333333"/>
      <point x="1325.3333333333333" y="1047.3333333333333" type="curve" smooth="yes"/>
      <point x="1140.0" y="1047.3333333333333"/>
      <point x="978.6666666666666" y="937.3333333333334"/>
      <point x="899.3333333333334" y="776.6666666666666" type="curve"/>
      <point x="855.3333333333334" y="933.3333333333334"/>
      <point x="762.0" y="1047.3333333333333"/>
      <point x="535.3333333333334" y="1047.3333333333333" type="curve" smooth="yes"/>
      <point x="387.3333333333333" y="1047.3333333333333"/>
      <point x="229.33333333333334" y="1011.3333333333334"/>
      <point x="149.33333333333334" y="875.3333333333334" type="curve"/>
      <point x="253.33333333333334" y="815.3333333333334" type="line"/>
      <point x="305.3333333333333" y="902.0"/>
      <point x="419.3333333333333" y="934.6666666666666"/>
      <point x="535.3333333333334" y="934.6666666666666" type="curve" smooth="yes"/>
      <point x="785.3333333333334" y="934.6666666666666"/>
      <point x="809.3333333333334" y="774.0"/>
      <point x="825.3333333333334" y="572.6666666666666" type="curve"/>
      <point x="409.3333333333333" y="572.6666666666666" type="line" smooth="yes"/>
      <point x="234.0" y="572.6666666666666"/>
      <point x="80.0" y="512.6666666666666"/>
      <point x="72.66666666666667" y="324.6666666666667" type="curve" smooth="yes"/>
      <point x="75.33333333333333" y="98.66666666666667"/>
      <point x="265.3333333333333" y="-6.666666666666667"/>
    </contour>
    <contour>
      <point x="526.0" y="83.33333333333333" type="curve" smooth="yes"/>
      <point x="343.3333333333333" y="83.33333333333333"/>
      <point x="193.33333333333334" y="137.33333333333334"/>
      <point x="190.0" y="316.0" type="curve" smooth="yes"/>
      <point x="194.66666666666666" y="441.3333333333333"/>
      <point x="298.0" y="472.6666666666667"/>
      <point x="452.0" y="472.6666666666667" type="curve" smooth="yes"/>
      <point x="824.0" y="472.6666666666667" type="line"/>
      <point x="824.0" y="374.0" type="line" smooth="yes"/>
      <point x="824.0" y="309.3333333333333"/>
      <point x="809.3333333333334" y="83.33333333333333"/>
    </contour>
    <contour>
      <point x="948.6666666666666" y="572.6666666666666" type="line"/>
      <point x="967.3333333333334" y="775.3333333333334"/>
      <point x="1125.3333333333333" y="937.3333333333334"/>
      <point x="1325.3333333333333" y="937.3333333333334" type="curve" smooth="yes"/>
      <point x="1524.0" y="937.3333333333334"/>
      <point x="1687.3333333333333" y="769.3333333333334"/>
      <point x="1700.6666666666667" y="572.6666666666666" type="curve"/>
    </contour>
  </outline>
</glyph>
<glyph name="igrave" format="2">
  <advance width="373.3333333333333"/>
  <unicode hex="00EC"/>
  <outline>
    <contour>
      <point x="132.66666666666666" y="1000.0" type="line"/>
      <point x="132.66666666666666" y="0.0" type="line"/>
      <point x="252.66666666666669" y="0.0" type="line"/>
      <point x="252.66666666666669" y="1000.0" type="line"/>
    </contour>
    <component base="grave" xOffset="-300.0"/>
  </outline>
</glyph>
<glyph name="divide" format="2">
  <advance width="1160.0"/>
  <unicode hex="00F7"/>
  <outline>
    <contour>
      <point x="80.0" y="540.0" type="line"/>
      <point x="1080.0" y="540.0" type="line"/>
      <point x="1080.0" y="660.0" type="line"/>
      <point x="80.0" y="660.0" type="line"/>
    </contour>
    <contour>
      <point x="580.0" y="1060.6666666666667" type="curve"/>
      <point x="523.3333333333334" y="1060.6666666666667"/>
      <point x="482.6666666666667" y="1012.0"/>
      <point x="482.6666666666667" y="961.3333333333334" type="curve"/>
      <point x="482.6666666666667" y="908.0"/>
      <point x="523.3333333333334" y="864.0"/>
      <point x="580.0" y="864.0" type="curve"/>
      <point x="632.0" y="864.0"/>
      <point x="676.0" y="908.0"/>
      <point x="676.0" y="961.3333333333334" type="curve"/>
      <point x="676.0" y="1012.0"/>
      <point x="632.0" y="1060.6666666666667"/>
    </contour>
    <contour>
      <point x="580.0" y="334.6666666666667" type="curve"/>
      <point x="523.3333333333334" y="334.6666666666667"/>
      <point x="482.6666666666667" y="287.3333333333333"/>
      <point x="482.6666666666667" y="235.33333333333334" type="curve"/>
      <point x="482.6666666666667" y="182.0"/>
      <point x="523.3333333333334" y="139.33333333333334"/>
      <point x="580.0" y="139.33333333333334" type="curve"/>
      <point x="632.0" y="139.33333333333334"/>
      <point x="679.3333333333334" y="182.0"/>
      <point x="679.3333333333334" y="235.33333333333334" type="curve"/>
      <point x="679.3333333333334" y="287.3333333333333"/>
      <point x="632.0" y="334.6666666666667"/>
    </contour>
  </outline>
</glyph>
<glyph name="oslash" format="2">
  <advance width="1120.0"/>
  <unicode hex="00F8"/>
  <outline>
    <contour>
      <point x="301.3333333333333" y="-51.333333333333336" type="line"/>
      <point x="346.6666666666667" y="26.666666666666664" type="line"/>
      <point x="411.3333333333333" y="-6.0"/>
      <point x="483.3333333333333" y="-26.0"/>
      <point x="560.0" y="-26.0" type="curve" smooth="yes"/>
      <point x="836.0" y="-26.0"/>
      <point x="1060.0" y="210.0"/>
      <point x="1060.0" y="500.0" type="curve" smooth="yes"/>
      <point x="1060.0" y="673.3333333333334"/>
      <point x="983.3333333333334" y="824.6666666666666"/>
      <point x="863.3333333333334" y="920.6666666666666" type="curve"/>
      <point x="911.3333333333334" y="1002.6666666666666" type="line"/>
      <point x="820.0" y="1055.3333333333333" type="line"/>
      <point x="773.3333333333334" y="977.3333333333334" type="line"/>
      <point x="710.6666666666666" y="1009.3333333333334"/>
      <point x="637.3333333333334" y="1028.0"/>
      <point x="560.0" y="1028.0" type="curve" smooth="yes"/>
      <point x="284.0" y="1028.0"/>
      <point x="60.0" y="792.0"/>
      <point x="60.0" y="500.0" type="curve" smooth="yes"/>
      <point x="60.0" y="330.6666666666667"/>
      <point x="138.66666666666666" y="179.33333333333334"/>
      <point x="258.6666666666667" y="83.33333333333333" type="curve"/>
      <point x="210.66666666666666" y="1.333333333333334" type="line"/>
    </contour>
    <contour>
      <point x="318.0" y="186.66666666666669" type="line"/>
      <point x="231.33333333333334" y="257.3333333333333"/>
      <point x="174.0" y="369.3333333333333"/>
      <point x="174.0" y="495.3333333333333" type="curve" smooth="yes"/>
      <point x="174.0" y="792.6666666666666"/>
      <point x="464.6666666666667" y="1000.6666666666666"/>
      <point x="717.3333333333334" y="878.6666666666666" type="curve"/>
    </contour>
    <contour>
      <point x="403.3333333333333" y="125.33333333333334" type="curve"/>
      <point x="803.3333333333334" y="817.3333333333334" type="line"/>
      <point x="890.0" y="744.6666666666666"/>
      <point x="946.0" y="631.3333333333334"/>
      <point x="946.0" y="504.6666666666667" type="curve" smooth="yes"/>
      <point x="946.0" y="213.33333333333334"/>
      <point x="665.3333333333334" y="0.0"/>
    </contour>
  </outline>
</glyph>
<glyph name="thorn" format="2">
  <advance width="1215.0"/>
  <unicode hex="00FE"/>
  <outline>
    <contour>
      <point x="120.0" y="-500.0" type="line"/>
      <point x="240.0" y="-500.0" type="line"/>
      <point x="240.0" y="197.33333333333334" type="line"/>
      <point x="309.3333333333333" y="62.666666666666664"/>
      <point x="436.6666666666667" y="-28.0"/>
      <point x="609.3333333333334" y="-28.0" type="curve" smooth="yes"/>
      <point x="899.3333333333334" y="-28.0"/>
      <point x="1135.3333333333333" y="208.0"/>
      <point x="1135.3333333333333" y="500.0" type="curve" smooth="yes"/>
      <point x="1135.3333333333333" y="790.0"/>
      <point x="899.3333333333334" y="1026.0"/>
      <point x="609.3333333333334" y="1026.0" type="curve" smooth="yes"/>
      <point x="436.6666666666667" y="1026.0"/>
      <point x="309.3333333333333" y="935.3333333333334"/>
      <point x="240.0" y="801.3333333333334" type="curve"/>
      <point x="240.0" y="1400.0" type="line"/>
      <point x="120.0" y="1400.0" type="line"/>
    </contour>
    <contour>
      <point x="608.0" y="89.33333333333334" type="curve" smooth="yes"/>
      <point x="384.0" y="89.33333333333334"/>
      <point x="249.33333333333334" y="275.3333333333333"/>
      <point x="249.33333333333334" y="500.0" type="curve" smooth="yes"/>
      <point x="249.33333333333334" y="727.3333333333334"/>
      <point x="387.3333333333333" y="909.3333333333334"/>
      <point x="608.0" y="909.3333333333334" type="curve" smooth="yes"/>
      <point x="832.6666666666666" y="909.3333333333334"/>
      <point x="1013.3333333333334" y="724.6666666666666"/>
      <point x="1013.3333333333334" y="500.0" type="curve" smooth="yes"/>
      <point x="1013.3333333333334" y="269.3333333333333"/>
      <point x="826.6666666666666" y="89.33333333333334"/>
    </contour>
  </outline>
</glyph>
<glyph name="OE" format="2">
  <advance width="2178.5"/>
  <unicode hex="0152"/>
  <outline>
    <contour>
      <point x="770.0" y="-26.0" type="curve" smooth="yes"/>
      <point x="1016.6666666666666" y="-26.0"/>
      <point x="1232.0" y="119.33333333333333"/>
      <point x="1341.3333333333333" y="329.3333333333333" type="curve"/>
      <point x="1341.3333333333333" y="0.0" type="line"/>
      <point x="2078.6666666666665" y="0.0" type="line"/>
      <point x="2078.6666666666665" y="120.0" type="line"/>
      <point x="1461.3333333333333" y="120.0" type="line"/>
      <point x="1461.3333333333333" y="640.0" type="line"/>
      <point x="1982.6666666666667" y="640.0" type="line"/>
      <point x="1982.6666666666667" y="760.0" type="line"/>
      <point x="1461.3333333333333" y="760.0" type="line"/>
      <point x="1461.3333333333333" y="1280.0" type="line"/>
      <point x="2078.6666666666665" y="1280.0" type="line"/>
      <point x="2078.6666666666665" y="1400.0" type="line"/>
      <point x="1341.3333333333333" y="1400.0" type="line"/>
      <point x="1341.3333333333333" y="1071.3333333333333" type="line"/>
      <point x="1232.0" y="1280.6666666666667"/>
      <point x="1016.6666666666666" y="1426.0"/>
      <point x="770.0" y="1426.0" type="curve" smooth="yes"/>
      <point x="390.0" y="1426.0"/>
      <point x="80.0" y="1100.0"/>
      <point x="80.0" y="700.0" type="curve" smooth="yes"/>
      <point x="80.0" y="300.0"/>
      <point x="390.0" y="-26.0"/>
    </contour>
    <contour>
      <point x="770.0" y="94.0" type="curve" smooth="yes"/>
      <point x="455.3333333333333" y="94.0"/>
      <point x="200.0" y="367.3333333333333"/>
      <point x="200.0" y="700.0" type="curve" smooth="yes"/>
      <point x="200.0" y="1028.6666666666667"/>
      <point x="452.6666666666667" y="1306.0"/>
      <point x="770.0" y="1306.0" type="curve" smooth="yes"/>
      <point x="1084.6666666666667" y="1306.0"/>
      <point x="1340.0" y="1031.3333333333333"/>
      <point x="1340.0" y="700.0" type="curve" smooth="yes"/>
      <point x="1340.0" y="371.3333333333333"/>
      <point x="1087.3333333333333" y="94.0"/>
    </contour>
  </outline>
</glyph>
<glyph name="oe" format="2">
  <advance width="1998.6666666666667"/>
  <unicode hex="0153"/>
  <outline>
    <contour>
      <point x="560.0" y="-26.0" type="curve" smooth="yes"/>
      <point x="756.0" y="-26.0"/>
      <point x="925.3333333333334" y="96.66666666666667"/>
      <point x="1000.0" y="271.3333333333333" type="curve"/>
      <point x="1075.3333333333333" y="96.66666666666667"/>
      <point x="1244.0" y="-26.0"/>
      <point x="1440.0" y="-26.0" type="curve" smooth="yes"/>
      <point x="1640.0" y="-26.0"/>
      <point x="1812.0" y="98.0"/>
      <point x="1892.0" y="276.0" type="curve"/>
      <point x="1770.6666666666667" y="304.6666666666667" type="line"/>
      <point x="1701.3333333333333" y="173.33333333333334"/>
      <point x="1582.0" y="94.0"/>
      <point x="1440.0" y="94.0" type="curve" smooth="yes"/>
      <point x="1244.0" y="94.66666666666667"/>
      <point x="1088.0" y="247.33333333333334"/>
      <point x="1066.0" y="453.3333333333333" type="curve"/>
      <point x="1936.0" y="453.3333333333333" type="line"/>
      <point x="1946.6666666666667" y="783.3333333333334"/>
      <point x="1734.0" y="1028.0"/>
      <point x="1440.0" y="1028.0" type="curve" smooth="yes"/>
      <point x="1244.0" y="1028.0"/>
      <point x="1075.3333333333333" y="905.3333333333334"/>
      <point x="1000.0" y="729.3333333333334" type="curve"/>
      <point x="925.3333333333334" y="905.3333333333334"/>
      <point x="756.0" y="1028.0"/>
      <point x="560.0" y="1028.0" type="curve" smooth="yes"/>
      <point x="284.0" y="1028.0"/>
      <point x="60.0" y="792.0"/>
      <point x="60.0" y="500.0" type="curve" smooth="yes"/>
      <point x="60.0" y="210.0"/>
      <point x="284.0" y="-26.0"/>
    </contour>
    <contour>
      <point x="560.0" y="94.0" type="curve" smooth="yes"/>
      <point x="353.3333333333333" y="94.0"/>
      <point x="180.0" y="273.3333333333333"/>
      <point x="180.0" y="500.0" type="curve" smooth="yes"/>
      <point x="180.0" y="719.3333333333334"/>
      <point x="344.6666666666667" y="908.0"/>
      <point x="560.0" y="908.0" type="curve" smooth="yes"/>
      <point x="773.3333333333334" y="908.0"/>
      <point x="940.0" y="720.6666666666666"/>
      <point x="940.0" y="500.0" type="curve" smooth="yes"/>
      <point x="940.0" y="282.0"/>
      <point x="774.6666666666666" y="94.0"/>
    </contour>
    <contour>
      <point x="1063.3333333333333" y="553.3333333333334" type="line"/>
      <point x="1082.0" y="756.0"/>
      <point x="1240.0" y="918.0"/>
      <point x="1440.0" y="918.0" type="curve" smooth="yes"/>
      <point x="1638.6666666666667" y="918.0"/>
      <point x="1802.0" y="750.0"/>
      <point x="1815.3333333333333" y="553.3333333333334" type="curve"/>
    </contour>
  </outline>
</glyph>
<glyph name="caron" format="2">
  <advance width="547.0"/>
  <unicode hex="02C7"/>
  <outline>
    <contour>
      <point x="221.33333333333334" y="1166.0" type="line"/>
      <point x="327.3333333333333" y="1166.0" type="line"/>
      <point x="427.3333333333333" y="1400.0" type="line"/>
      <point x="341.3333333333333" y="1400.0" type="line"/>
      <point x="274.6666666666667" y="1238.6666666666667" type="line"/>
      <point x="205.33333333333334" y="1400.0" type="line"/>
      <point x="120.0" y="1400.0" type="line"/>
    </contour>
  </outline>
</glyph>
<glyph name="breve" format="2">
  <advance width="1144.0"/>
  <unicode hex="02D8"/>
  <outline>
    <contour>
      <point x="572.0" y="1128.0" type="curve" smooth="yes"/>
      <point x="750.0" y="1128.0"/>
      <point x="904.0" y="1273.3333333333333"/>
      <point x="904.0" y="1460.0" type="curve"/>
      <point x="814.0" y="1460.0" type="line"/>
      <point x="814.0" y="1326.0"/>
      <point x="704.0" y="1218.0"/>
      <point x="572.0" y="1218.0" type="curve" smooth="yes"/>
      <point x="444.6666666666667" y="1218.0"/>
      <point x="330.0" y="1321.3333333333333"/>
      <point x="330.0" y="1460.0" type="curve"/>
      <point x="240.0" y="1460.0" type="line"/>
      <point x="240.0" y="1278.0"/>
      <point x="390.0" y="1128.0"/>
    </contour>
  </outline>
</glyph>
<glyph name="ogonek" format="2">
  <advance width="1098.0"/>
  <unicode hex="02DB"/>
  <outline>
    <contour>
      <point x="616.6666666666666" y="-375.3333333333333" type="curve" smooth="yes"/>
      <point x="670.0" y="-375.3333333333333" type="line"/>
      <point x="670.0" y="-276.0" type="line"/>
      <point x="615.3333333333334" y="-276.0" type="line" smooth="yes"/>
      <point x="478.6666666666667" y="-276.0"/>
      <point x="361.3333333333333" y="-159.33333333333334"/>
      <point x="361.3333333333333" y="-22.666666666666668" type="curve" smooth="yes"/>
      <point x="361.3333333333333" y="62.0" type="line"/>
      <point x="262.0" y="62.0" type="line"/>
      <point x="262.0" y="-21.333333333333336" type="line" smooth="yes"/>
      <point x="262.0" y="-217.33333333333334"/>
      <point x="420.6666666666667" y="-375.3333333333333"/>
    </contour>
  </outline>
</glyph>
<glyph name="gravecomb" format="2">
  <unicode hex="0300"/>
  <outline>
    <contour>
      <point x="320.0" y="1426.0" type="line"/>
      <point x="465.3333333333333" y="1138.0" type="line"/>
      <point x="520.0" y="1138.0" type="line"/>
      <point x="440.0" y="1426.0" type="line"/>
    </contour>
  </outline>
</glyph>
<glyph name="circumflexcomb" format="2">
  <unicode hex="0302"/>
  <outline>
    <contour>
      <point x="501.3333333333333" y="1400.0" type="line"/>
      <point x="400.0" y="1166.0" type="line"/>
      <point x="485.3333333333333" y="1166.0" type="line"/>
      <point x="554.6666666666666" y="1327.3333333333333" type="line"/>
      <point x="621.3333333333334" y="1166.0" type="line"/>
      <point x="707.3333333333334" y="1166.0" type="line"/>
      <point x="607.3333333333334" y="1400.0" type="line"/>
    </contour>
  </outline>
</glyph>
<glyph name="tildecomb" format="2">
  <unicode hex="0303"/>
  <outline>
    <contour>
      <point x="769.3333333333334" y="1284.0" type="curve" smooth="yes"/>
      <point x="881.3333333333334" y="1284.0"/>
      <point x="955.3333333333334" y="1390.6666666666667"/>
      <point x="919.3333333333334" y="1502.0" type="curve"/>
      <point x="834.0" y="1474.6666666666667" type="line"/>
      <point x="846.6666666666666" y="1441.3333333333333"/>
      <point x="827.3333333333334" y="1375.3333333333333"/>
      <point x="782.0" y="1375.3333333333333" type="curve" smooth="yes"/>
      <point x="710.6666666666666" y="1375.3333333333333"/>
      <point x="558.0" y="1520.0"/>
      <point x="457.3333333333333" y="1520.0" type="curve" smooth="yes"/>
      <point x="344.6666666666667" y="1520.0"/>
      <point x="273.3333333333333" y="1411.3333333333333"/>
      <point x="310.0" y="1305.3333333333333" type="curve"/>
      <point x="395.3333333333333" y="1328.6666666666667" type="line"/>
      <point x="382.0" y="1380.6666666666667"/>
      <point x="410.6666666666667" y="1422.6666666666667"/>
      <point x="448.6666666666667" y="1428.6666666666667" type="curve" smooth="yes"/>
      <point x="521.3333333333334" y="1440.0"/>
      <point x="670.6666666666666" y="1284.0"/>
    </contour>
  </outline>
</glyph>
<glyph name="dotaccentcomb" format="2">
  <unicode hex="0307"/>
  <outline>
    <contour>
      <point x="472.6666666666667" y="1203.3333333333333" type="curve" smooth="yes"/>
      <point x="511.3333333333333" y="1203.3333333333333"/>
      <point x="543.3333333333334" y="1233.3333333333333"/>
      <point x="543.3333333333334" y="1274.0" type="curve" smooth="yes"/>
      <point x="543.3333333333334" y="1314.6666666666667"/>
      <point x="511.3333333333333" y="1344.6666666666667"/>
      <point x="472.6666666666667" y="1344.6666666666667" type="curve" smooth="yes"/>
      <point x="431.3333333333333" y="1344.6666666666667"/>
      <point x="400.0" y="1314.6666666666667"/>
      <point x="400.0" y="1274.0" type="curve" smooth="yes"/>
      <point x="400.0" y="1233.3333333333333"/>
      <point x="431.3333333333333" y="1203.3333333333333"/>
    </contour>
  </outline>
</glyph>
<glyph name="dieresiscomb" format="2">
  <unicode hex="0308"/>
  <outline>
    <contour>
      <point x="474.0" y="1203.3333333333333" type="curve" smooth="yes"/>
      <point x="513.3333333333334" y="1203.3333333333333"/>
      <point x="546.0" y="1233.3333333333333"/>
      <point x="546.0" y="1274.0" type="curve" smooth="yes"/>
      <point x="546.0" y="1313.3333333333333"/>
      <point x="513.3333333333334" y="1346.0"/>
      <point x="474.0" y="1346.0" type="curve" smooth="yes"/>
      <point x="433.3333333333333" y="1346.0"/>
      <point x="400.0" y="1313.3333333333333"/>
      <point x="400.0" y="1274.0" type="curve" smooth="yes"/>
      <point x="400.0" y="1233.3333333333333"/>
      <point x="433.3333333333333" y="1203.3333333333333"/>
    </contour>
    <contour>
      <point x="773.3333333333334" y="1203.3333333333333" type="curve" smooth="yes"/>
      <point x="812.0" y="1203.3333333333333"/>
      <point x="845.3333333333334" y="1233.3333333333333"/>
      <point x="845.3333333333334" y="1274.0" type="curve" smooth="yes"/>
      <point x="845.3333333333334" y="1313.3333333333333"/>
      <point x="812.0" y="1346.0"/>
      <point x="773.3333333333334" y="1346.0" type="curve" smooth="yes"/>
      <point x="732.0" y="1346.0"/>
      <point x="699.3333333333334" y="1313.3333333333333"/>
      <point x="699.3333333333334" y="1274.0" type="curve" smooth="yes"/>
      <point x="699.3333333333334" y="1233.3333333333333"/>
      <point x="732.0" y="1203.3333333333333"/>
    </contour>
  </outline>
</glyph>
<glyph name="ringcomb" format="2">
  <unicode hex="030A"/>
  <outline>
    <contour>
      <point x="553.3333333333334" y="1127.3333333333333" type="curve" smooth="yes"/>
      <point x="638.0" y="1127.3333333333333"/>
      <point x="707.3333333333334" y="1196.0"/>
      <point x="707.3333333333334" y="1282.6666666666667" type="curve" smooth="yes"/>
      <point x="707.3333333333334" y="1365.3333333333333"/>
      <point x="638.0" y="1435.3333333333333"/>
      <point x="553.3333333333334" y="1435.3333333333333" type="curve" smooth="yes"/>
      <point x="469.3333333333333" y="1435.3333333333333"/>
      <point x="400.0" y="1365.3333333333333"/>
      <point x="400.0" y="1282.6666666666667" type="curve" smooth="yes"/>
      <point x="400.0" y="1198.0"/>
      <point x="469.3333333333333" y="1127.3333333333333"/>
    </contour>
    <contour>
      <point x="553.3333333333334" y="1190.6666666666667" type="curve" smooth="yes"/>
      <point x="503.3333333333333" y="1190.6666666666667"/>
      <point x="463.3333333333333" y="1230.6666666666667"/>
      <point x="463.3333333333333" y="1282.6666666666667" type="curve" smooth="yes"/>
      <point x="463.3333333333333" y="1330.6666666666667"/>
      <point x="503.3333333333333" y="1370.6666666666667"/>
      <point x="553.3333333333334" y="1370.6666666666667" type="curve" smooth="yes"/>
      <point x="603.3333333333334" y="1370.6666666666667"/>
      <point x="643.3333333333334" y="1330.6666666666667"/>
      <point x="643.3333333333334" y="1282.6666666666667" type="curve" smooth="yes"/>
      <point x="643.3333333333334" y="1230.6666666666667"/>
      <point x="603.3333333333334" y="1190.6666666666667"/>
    </contour>
  </outline>
</glyph>
<glyph name="cedillacomb" format="2">
  <unicode hex="0327"/>
  <outline>
    <contour>
      <point x="400.0" y="-306.0" type="line"/>
      <point x="453.3333333333333" y="-306.0" type="line" smooth="yes"/>
      <point x="649.3333333333334" y="-306.0"/>
      <point x="808.0" y="-147.33333333333334"/>
      <point x="808.0" y="48.0" type="curve" smooth="yes"/>
      <point x="808.0" y="101.33333333333334" type="line"/>
      <point x="708.6666666666666" y="101.33333333333334" type="line"/>
      <point x="708.6666666666666" y="47.333333333333336" type="line" smooth="yes"/>
      <point x="708.6666666666666" y="-89.33333333333333"/>
      <point x="591.3333333333334" y="-206.66666666666666"/>
      <point x="454.6666666666667" y="-206.66666666666666" type="curve" smooth="yes"/>
      <point x="400.0" y="-206.66666666666666" type="line"/>
    </contour>
  </outline>
</glyph>
<glyph name="mu" format="2">
  <advance width="1042.5"/>
  <unicode hex="03BC"/>
  <outline>
    <contour>
      <point x="80.0" y="-432.0" type="line"/>
      <point x="200.0" y="-432.0" type="line"/>
      <point x="200.0" y="156.0" type="line"/>
      <point x="266.6666666666667" y="48.0"/>
      <point x="377.3333333333333" y="-26.666666666666668"/>
      <point x="511.3333333333333" y="-26.666666666666668" type="curve" smooth="yes"/>
      <point x="649.3333333333334" y="-26.666666666666668"/>
      <point x="765.3333333333334" y="50.666666666666664"/>
      <point x="842.6666666666666" y="177.33333333333334" type="curve"/>
      <point x="842.6666666666666" y="0.0" type="line"/>
      <point x="962.6666666666666" y="0.0" type="line"/>
      <point x="962.6666666666666" y="1000.0" type="line"/>
      <point x="842.6666666666666" y="1000.0" type="line"/>
      <point x="842.6666666666666" y="464.0" type="line" smooth="yes"/>
      <point x="842.6666666666666" y="258.6666666666667"/>
      <point x="704.0" y="91.33333333333334"/>
      <point x="524.6666666666666" y="91.33333333333334" type="curve" smooth="yes"/>
      <point x="343.3333333333333" y="91.33333333333334"/>
      <point x="200.0" y="258.6666666666667"/>
      <point x="200.0" y="464.0" type="curve" smooth="yes"/>
      <point x="200.0" y="1000.0" type="line"/>
      <point x="80.0" y="1000.0" type="line"/>
    </contour>
  </outline>
</glyph>
<glyph name="Germandbls" format="2">
  <advance width="1114.0"/>
  <unicode hex="1E9E"/>
  <outline>
    <contour>
      <point x="120.0" y="0.0" type="line"/>
      <point x="240.0" y="0.0" type="line"/>
      <point x="240.0" y="983.3333333333334" type="line" smooth="yes"/>
      <point x="240.0" y="1152.6666666666667"/>
      <point x="376.0" y="1289.3333333333333"/>
      <point x="540.0" y="1289.3333333333333" type="curve" smooth="yes"/>
      <point x="674.0" y="1289.3333333333333"/>
      <point x="792.6666666666666" y="1248.6666666666667"/>
      <point x="794.0" y="1132.6666666666667" type="curve" smooth="yes"/>
      <point x="795.3333333333334" y="1034.0"/>
      <point x="530.0" y="780.0"/>
      <point x="536.0" y="696.6666666666666" type="curve" smooth="yes"/>
      <point x="539.3333333333334" y="645.3333333333334" type="line"/>
      <point x="609.3333333333334" y="645.3333333333334" type="line" smooth="yes"/>
      <point x="759.3333333333334" y="645.3333333333334"/>
      <point x="942.6666666666666" y="565.3333333333334"/>
      <point x="942.6666666666666" y="379.3333333333333" type="curve" smooth="yes"/>
      <point x="942.6666666666666" y="190.0"/>
      <point x="761.3333333333334" y="108.66666666666667"/>
      <point x="610.6666666666666" y="108.66666666666667" type="curve" smooth="yes"/>
      <point x="519.3333333333334" y="108.66666666666667" type="line"/>
      <point x="549.3333333333334" y="0.0" type="line"/>
      <point x="618.6666666666666" y="0.0" type="line" smooth="yes"/>
      <point x="825.3333333333334" y="0.0"/>
      <point x="1054.0" y="129.33333333333334"/>
      <point x="1054.0" y="377.3333333333333" type="curve" smooth="yes"/>
      <point x="1054.0" y="587.3333333333334"/>
      <point x="854.0" y="747.3333333333334"/>
      <point x="659.3333333333334" y="723.3333333333334" type="curve"/>
      <point x="843.3333333333334" y="970.6666666666666"/>
      <point x="921.3333333333334" y="1045.3333333333333"/>
      <point x="921.3333333333334" y="1131.3333333333333" type="curve" smooth="yes"/>
      <point x="921.3333333333334" y="1302.0"/>
      <point x="751.3333333333334" y="1398.6666666666667"/>
      <point x="557.3333333333334" y="1398.6666666666667" type="curve" smooth="yes"/>
      <point x="316.0" y="1398.6666666666667"/>
      <point x="120.0" y="1202.6666666666667"/>
      <point x="120.0" y="961.3333333333334" type="curve" smooth="yes"/>
    </contour>
  </outline>
</glyph>
<glyph name="quoteleft" format="2">
  <advance width="282.0"/>
  <unicode hex="2018"/>
  <unicode hex="02BB"/>
  <outline>
    <contour>
      <point x="60.0" y="878.0" type="line"/>
      <point x="180.0" y="878.0" type="line"/>
      <point x="242.0" y="1400.0" type="line"/>
      <point x="162.0" y="1400.0" type="line"/>
    </contour>
  </outline>
</glyph>
<glyph name="quoteright" format="2">
  <advance width="282.0"/>
  <unicode hex="2019"/>
  <unicode hex="2032"/>
  <outline>
    <contour>
      <point x="40.0" y="878.0" type="line"/>
      <point x="120.0" y="878.0" type="line"/>
      <point x="222.0" y="1400.0" type="line"/>
      <point x="102.0" y="1400.0" type="line"/>
    </contour>
  </outline>
</glyph>
<glyph name="dagger" format="2">
  <advance width="776.0"/>
  <unicode hex="2020"/>
  <outline>
    <contour>
      <point x="80.0" y="1105.3333333333333" type="line"/>
      <point x="328.0" y="1105.3333333333333" type="line"/>
      <point x="328.0" y="590.0" type="line"/>
      <point x="448.0" y="590.0" type="line"/>
      <point x="448.0" y="1105.3333333333333" type="line"/>
      <point x="696.0" y="1105.3333333333333" type="line"/>
      <point x="696.0" y="1225.3333333333333" type="line"/>
      <point x="448.0" y="1225.3333333333333" type="line"/>
      <point x="448.0" y="1500.0" type="line"/>
      <point x="328.0" y="1500.0" type="line"/>
      <point x="328.0" y="1225.3333333333333" type="line"/>
      <point x="80.0" y="1225.3333333333333" type="line"/>
    </contour>
  </outline>
</glyph>
<glyph name="daggerdbl" format="2">
  <advance width="776.0"/>
  <unicode hex="2021"/>
  <outline>
    <contour>
      <point x="80.0" y="792.0" type="line"/>
      <point x="328.0" y="792.0" type="line"/>
      <point x="328.0" y="560.0" type="line"/>
      <point x="448.0" y="560.0" type="line"/>
      <point x="448.0" y="792.0" type="line"/>
      <point x="696.0" y="792.0" type="line"/>
      <point x="696.0" y="910.0" type="line"/>
      <point x="448.0" y="910.0" type="line"/>
      <point x="448.0" y="1130.0" type="line"/>
      <point x="696.0" y="1130.0" type="line"/>
      <point x="696.0" y="1250.0" type="line"/>
      <point x="448.0" y="1250.0" type="line"/>
      <point x="448.0" y="1500.0" type="line"/>
      <point x="328.0" y="1500.0" type="line"/>
      <point x="328.0" y="1250.0" type="line"/>
      <point x="80.0" y="1250.0" type="line"/>
      <point x="80.0" y="1130.0" type="line"/>
      <point x="328.0" y="1130.0" type="line"/>
      <point x="328.0" y="910.0" type="line"/>
      <point x="80.0" y="910.0" type="line"/>
    </contour>
  </outline>
</glyph>
<glyph name="bullet" format="2">
  <advance width="350.0"/>
  <unicode hex="2022"/>
  <outline>
    <contour>
      <point x="173.33333333333334" y="505.3333333333333" type="curve" smooth="yes"/>
      <point x="228.0" y="505.3333333333333"/>
      <point x="270.0" y="546.6666666666666"/>
      <point x="270.0" y="601.3333333333334" type="curve" smooth="yes"/>
      <point x="270.0" y="653.3333333333334"/>
      <point x="228.0" y="695.3333333333334"/>
      <point x="173.33333333333334" y="695.3333333333334" type="curve" smooth="yes"/>
      <point x="121.33333333333333" y="695.3333333333334"/>
      <point x="80.0" y="653.3333333333334"/>
      <point x="80.0" y="601.3333333333334" type="curve" smooth="yes"/>
      <point x="80.0" y="546.6666666666666"/>
      <point x="121.33333333333333" y="505.3333333333333"/>
    </contour>
  </outline>
</glyph>
<glyph name="perthousand" format="2">
  <advance width="1726.0"/>
  <unicode hex="2030"/>
  <outline>
    <contour>
      <point x="145.33333333333334" y="0.0" type="line"/>
      <point x="284.0" y="0.0" type="line"/>
      <point x="1092.0" y="1400.0" type="line"/>
      <point x="953.3333333333334" y="1400.0" type="line"/>
    </contour>
    <contour>
      <point x="307.3333333333333" y="865.3333333333334" type="curve"/>
      <point x="431.3333333333333" y="865.3333333333334"/>
      <point x="534.6666666666666" y="965.3333333333334"/>
      <point x="534.6666666666666" y="1092.0" type="curve"/>
      <point x="534.6666666666666" y="1217.3333333333333"/>
      <point x="432.6666666666667" y="1320.6666666666667"/>
      <point x="307.3333333333333" y="1320.6666666666667" type="curve"/>
      <point x="183.33333333333334" y="1320.6666666666667"/>
      <point x="80.0" y="1219.3333333333333"/>
      <point x="80.0" y="1092.0" type="curve"/>
      <point x="80.0" y="966.0"/>
      <point x="182.66666666666666" y="865.3333333333334"/>
    </contour>
    <contour>
      <point x="307.3333333333333" y="960.0" type="curve"/>
      <point x="233.33333333333334" y="960.0"/>
      <point x="175.33333333333334" y="1019.3333333333334"/>
      <point x="175.33333333333334" y="1092.0" type="curve"/>
      <point x="175.33333333333334" y="1166.0"/>
      <point x="233.33333333333334" y="1225.3333333333333"/>
      <point x="307.3333333333333" y="1225.3333333333333" type="curve"/>
      <point x="381.3333333333333" y="1225.3333333333333"/>
      <point x="439.3333333333333" y="1166.0"/>
      <point x="439.3333333333333" y="1092.0" type="curve"/>
      <point x="439.3333333333333" y="1019.3333333333334"/>
      <point x="381.3333333333333" y="960.0"/>
    </contour>
    <contour>
      <point x="886.0" y="79.33333333333333" type="curve"/>
      <point x="1011.3333333333334" y="79.33333333333333"/>
      <point x="1113.3333333333333" y="182.66666666666666"/>
      <point x="1113.3333333333333" y="307.3333333333333" type="curve"/>
      <point x="1113.3333333333333" y="431.3333333333333"/>
      <point x="1013.3333333333334" y="535.3333333333334"/>
      <point x="886.0" y="535.3333333333334" type="curve"/>
      <point x="762.6666666666666" y="535.3333333333334"/>
      <point x="657.3333333333334" y="434.6666666666667"/>
      <point x="657.3333333333334" y="307.3333333333333" type="curve"/>
      <point x="657.3333333333334" y="184.66666666666666"/>
      <point x="760.0" y="79.33333333333333"/>
    </contour>
    <contour>
      <point x="886.0" y="174.0" type="curve"/>
      <point x="812.6666666666666" y="174.0"/>
      <point x="752.6666666666666" y="234.0"/>
      <point x="752.6666666666666" y="307.3333333333333" type="curve"/>
      <point x="752.6666666666666" y="380.0"/>
      <point x="812.6666666666666" y="440.0"/>
      <point x="886.0" y="440.0" type="curve"/>
      <point x="958.6666666666666" y="440.0"/>
      <point x="1018.6666666666666" y="380.0"/>
      <point x="1018.6666666666666" y="307.3333333333333" type="curve"/>
      <point x="1018.6666666666666" y="234.0"/>
      <point x="958.6666666666666" y="174.0"/>
    </contour>
    <contour>
      <point x="1418.6666666666667" y="79.33333333333333" type="curve"/>
      <point x="1544.0" y="79.33333333333333"/>
      <point x="1646.0" y="182.66666666666666"/>
      <point x="1646.0" y="307.3333333333333" type="curve"/>
      <point x="1646.0" y="431.3333333333333"/>
      <point x="1546.0" y="535.3333333333334"/>
      <point x="1418.6666666666667" y="535.3333333333334" type="curve"/>
      <point x="1295.3333333333333" y="535.3333333333334"/>
      <point x="1190.0" y="434.6666666666667"/>
      <point x="1190.0" y="307.3333333333333" type="curve"/>
      <point x="1190.0" y="184.66666666666666"/>
      <point x="1292.6666666666667" y="79.33333333333333"/>
    </contour>
    <contour>
      <point x="1418.6666666666667" y="174.0" type="curve"/>
      <point x="1345.3333333333333" y="174.0"/>
      <point x="1285.3333333333333" y="234.0"/>
      <point x="1285.3333333333333" y="307.3333333333333" type="curve"/>
      <point x="1285.3333333333333" y="380.0"/>
      <point x="1345.3333333333333" y="440.0"/>
      <point x="1418.6666666666667" y="440.0" type="curve"/>
      <point x="1491.3333333333333" y="440.0"/>
      <point x="1551.3333333333333" y="380.0"/>
      <point x="1551.3333333333333" y="307.3333333333333" type="curve"/>
      <point x="1551.3333333333333" y="234.0"/>
      <point x="1491.3333333333333" y="174.0"/>
    </contour>
  </outline>
</glyph>
<glyph name="primeReversed" format="2">
  <advance width="422.0"/>
  <unicode hex="2035"/>
  <outline>
    <contour>
      <point x="222.0" y="878.0" type="line"/>
      <point x="302.0" y="878.0" type="line"/>
      <point x="240.0" y="1400.0" type="line"/>
      <point x="120.0" y="1400.0" type="line"/>
    </contour>
  </outline>
</glyph>
<glyph name="guilsinglleft" format="2">
  <advance width="655.0"/>
  <unicode hex="2039"/>
  <outline>
    <contour>
      <point x="420.0" y="261.0" type="line"/>
      <point x="555.3333333333334" y="261.0" type="line"/>
      <point x="255.33333333333334" y="601.0" type="line"/>
      <point x="555.3333333333334" y="939.0" type="line"/>
      <point x="420.0" y="939.0" type="line"/>
      <point x="120.0" y="601.0" type="line"/>
    </contour>
  </outline>
</glyph>
<glyph name="guilsinglright" format="2">
  <advance width="655.0"/>
  <unicode hex="203A"/>
  <outline>
    <contour>
      <point x="100.0" y="261.0" type="line"/>
      <point x="235.33333333333334" y="261.0" type="line"/>
      <point x="535.3333333333334" y="601.0" type="line"/>
      <point x="235.33333333333334" y="939.0" type="line"/>
      <point x="100.0" y="939.0" type="line"/>
      <point x="399.3333333333333" y="601.0" type="line"/>
    </contour>
  </outline>
</glyph>
<glyph name="fraction" format="2">
  <advance width="921.0"/>
  <unicode hex="2044"/>
  <unicode hex="2215"/>
  <outline>
    <contour>
      <point x="0.0" y="0.0" type="line"/>
      <point x="113.33333333333334" y="0.0" type="line"/>
      <point x="921.3333333333334" y="1400.0" type="line"/>
      <point x="808.0" y="1400.0" type="line"/>
    </contour>
  </outline>
</glyph>
<glyph name="zerosuperior" format="2">
  <advance width="648.0"/>
  <unicode hex="2070"/>
  <outline>
    <contour>
      <point x="324.0" y="798.0" type="curve"/>
      <point x="463.0" y="798.0"/>
      <point x="576.0" y="940.6666666666666"/>
      <point x="576.0" y="1132.6666666666667" type="curve"/>
      <point x="576.0" y="1324.0"/>
      <point x="463.0" y="1468.0"/>
      <point x="324.0" y="1468.0" type="curve"/>
      <point x="185.0" y="1468.0"/>
      <point x="72.0" y="1324.0"/>
      <point x="72.0" y="1132.6666666666667" type="curve"/>
      <point x="72.0" y="940.6666666666666"/>
      <point x="185.0" y="798.0"/>
    </contour>
    <contour>
      <point x="324.0" y="891.3333333333334" type="curve"/>
      <point x="230.66666666666666" y="891.3333333333334"/>
      <point x="168.0" y="1012.0"/>
      <point x="168.0" y="1132.6666666666667" type="curve"/>
      <point x="168.0" y="1247.3333333333333"/>
      <point x="226.66666666666666" y="1375.3333333333333"/>
      <point x="324.0" y="1375.3333333333333" type="curve"/>
      <point x="416.6666666666667" y="1375.3333333333333"/>
      <point x="480.0" y="1254.3333333333333"/>
      <point x="480.0" y="1132.6666666666667" type="curve"/>
      <point x="480.0" y="1021.0"/>
      <point x="420.0" y="891.3333333333334"/>
    </contour>
  </outline>
</glyph>
<glyph name="foursuperior" format="2">
  <advance width="679.5"/>
  <unicode hex="2074"/>
  <outline>
    <contour>
      <point x="367.0" y="818.0" type="line"/>
      <point x="463.0" y="818.0" type="line"/>
      <point x="463.0" y="943.6666666666666" type="line"/>
      <point x="535.3333333333334" y="943.6666666666666" type="line"/>
      <point x="535.3333333333334" y="1039.6666666666667" type="line"/>
      <point x="463.0" y="1039.6666666666667" type="line"/>
      <point x="463.0" y="1449.0" type="line"/>
      <point x="343.0" y="1449.0" type="line"/>
      <point x="96.0" y="1059.0" type="line"/>
      <point x="96.0" y="943.6666666666666" type="line"/>
      <point x="367.0" y="943.6666666666666" type="line"/>
    </contour>
    <contour>
      <point x="194.33333333333334" y="1039.6666666666667" type="line"/>
      <point x="371.0" y="1318.3333333333333" type="line"/>
      <point x="371.0" y="1039.6666666666667" type="line"/>
    </contour>
  </outline>
</glyph>
<glyph name="fivesuperior" format="2">
  <advance width="679.0"/>
  <unicode hex="2075"/>
  <outline>
    <contour>
      <point x="309.0" y="798.0" type="curve" smooth="yes"/>
      <point x="433.6666666666667" y="798.0"/>
      <point x="535.3333333333334" y="887.0"/>
      <point x="535.3333333333334" y="1011.0" type="curve" smooth="yes"/>
      <point x="535.3333333333334" y="1167.0"/>
      <point x="406.6666666666667" y="1250.0"/>
      <point x="232.33333333333334" y="1229.3333333333333" type="curve"/>
      <point x="241.0" y="1359.0" type="line"/>
      <point x="500.6666666666667" y="1359.0" type="line"/>
      <point x="500.6666666666667" y="1449.0" type="line"/>
      <point x="154.0" y="1449.0" type="line"/>
      <point x="124.33333333333333" y="1111.3333333333333" type="line"/>
      <point x="201.66666666666666" y="1133.3333333333333"/>
      <point x="247.0" y="1140.0"/>
      <point x="309.0" y="1139.3333333333333" type="curve" smooth="yes"/>
      <point x="380.0" y="1138.0"/>
      <point x="439.3333333333333" y="1082.3333333333333"/>
      <point x="439.3333333333333" y="1011.0" type="curve" smooth="yes"/>
      <point x="439.3333333333333" y="941.3333333333334"/>
      <point x="380.0" y="891.3333333333334"/>
      <point x="309.0" y="891.3333333333334" type="curve" smooth="yes"/>
      <point x="238.33333333333334" y="891.3333333333334"/>
      <point x="180.0" y="941.3333333333334"/>
      <point x="180.0" y="1011.0" type="curve"/>
      <point x="84.0" y="1011.0" type="line"/>
      <point x="84.0" y="887.0"/>
      <point x="184.66666666666666" y="798.0"/>
    </contour>
  </outline>
</glyph>
<glyph name="sixsuperior" format="2">
  <advance width="706.0"/>
  <unicode hex="2076"/>
  <outline>
    <contour>
      <point x="329.0" y="798.0" type="curve" smooth="yes"/>
      <point x="452.3333333333333" y="798.0"/>
      <point x="562.0" y="883.3333333333334"/>
      <point x="562.0" y="1018.3333333333334" type="curve" smooth="yes"/>
      <point x="562.0" y="1151.0"/>
      <point x="444.3333333333333" y="1263.6666666666667"/>
      <point x="301.3333333333333" y="1245.0" type="curve"/>
      <point x="418.0" y="1446.0" type="line"/>
      <point x="306.0" y="1446.0" type="line"/>
      <point x="128.33333333333334" y="1143.3333333333333"/>
      <point x="96.0" y="1096.0"/>
      <point x="96.0" y="1019.0" type="curve" smooth="yes"/>
      <point x="96.0" y="894.3333333333334"/>
      <point x="194.0" y="798.0"/>
    </contour>
    <contour>
      <point x="329.0" y="891.3333333333334" type="curve" smooth="yes"/>
      <point x="256.0" y="891.3333333333334"/>
      <point x="194.66666666666666" y="938.6666666666666"/>
      <point x="192.66666666666666" y="1013.0" type="curve" smooth="yes"/>
      <point x="190.0" y="1090.0"/>
      <point x="249.33333333333334" y="1155.3333333333333"/>
      <point x="329.0" y="1155.3333333333333" type="curve" smooth="yes"/>
      <point x="396.0" y="1155.3333333333333"/>
      <point x="463.3333333333333" y="1104.0"/>
      <point x="465.3333333333333" y="1023.0" type="curve" smooth="yes"/>
      <point x="468.0" y="946.0"/>
      <point x="406.0" y="891.3333333333334"/>
    </contour>
  </outline>
</glyph>
<glyph name="sevensuperior" format="2">
  <advance width="630.5"/>
  <unicode hex="2077"/>
  <outline>
    <contour>
      <point x="141.33333333333334" y="818.0" type="line"/>
      <point x="252.0" y="818.0" type="line"/>
      <point x="558.6666666666666" y="1353.6666666666667" type="line"/>
      <point x="558.6666666666666" y="1448.3333333333333" type="line"/>
      <point x="120.0" y="1448.3333333333333" type="line"/>
      <point x="120.0" y="1352.3333333333333" type="line"/>
      <point x="447.3333333333333" y="1352.3333333333333" type="line"/>
    </contour>
  </outline>
</glyph>
